G04 #@! TF.FileFunction,Copper,L1,Top,Signal*
%FSLAX46Y46*%
G04 Gerber Fmt 4.6, Leading zero omitted, Abs format (unit mm)*
G04 Created by KiCad (PCBNEW 4.0.2-stable) date Vendredi 08 juillet 2016 21:03:03*
%MOMM*%
G01*
G04 APERTURE LIST*
%ADD10C,0.100000*%
%ADD11R,2.540000X2.540000*%
%ADD12C,2.540000*%
%ADD13C,4.064000*%
%ADD14R,0.400000X1.350000*%
%ADD15O,1.250000X0.950000*%
%ADD16O,1.000000X1.550000*%
%ADD17O,2.199640X1.501140*%
%ADD18R,1.250000X1.500000*%
%ADD19R,1.000000X2.000000*%
%ADD20R,1.300000X1.500000*%
%ADD21R,1.500000X1.300000*%
%ADD22R,0.800100X1.800860*%
%ADD23R,1.550000X0.600000*%
%ADD24R,2.032000X1.727200*%
%ADD25O,2.032000X1.727200*%
%ADD26R,1.500000X1.250000*%
%ADD27C,0.600000*%
%ADD28C,0.250000*%
%ADD29C,0.254000*%
G04 APERTURE END LIST*
D10*
D11*
X58000000Y-36800000D03*
D12*
X58000000Y-74620000D03*
D13*
X70000000Y-74600000D03*
X70000000Y-36400000D03*
D14*
X59300900Y-39562540D03*
X58650900Y-39562540D03*
X58000900Y-39562540D03*
X57350900Y-39562540D03*
X56700900Y-39562540D03*
D15*
X60500900Y-39562540D03*
X55500900Y-39562540D03*
D16*
X61500900Y-36862540D03*
X54500900Y-36862540D03*
D17*
X50480000Y-43230000D03*
X50480000Y-45770000D03*
X50480000Y-48310000D03*
X50480000Y-50850000D03*
X50480000Y-53390000D03*
X50480000Y-55930000D03*
X50480000Y-58470000D03*
X50480000Y-61010000D03*
X50480000Y-63550000D03*
X50480000Y-66090000D03*
X50480000Y-68630000D03*
X50480000Y-71170000D03*
X65720000Y-71170000D03*
X65720000Y-68630000D03*
X65720000Y-66090000D03*
X65720000Y-63550000D03*
X65720000Y-61010000D03*
X65720000Y-58470000D03*
X65720000Y-55930000D03*
X65720000Y-53390000D03*
X65720000Y-50850000D03*
X65720000Y-48310000D03*
X65720000Y-45770000D03*
X65720000Y-43230000D03*
X63180000Y-54660000D03*
X63180000Y-52120000D03*
D18*
X59600000Y-60750000D03*
X59600000Y-58250000D03*
D19*
X62500000Y-66400000D03*
X61230000Y-66400000D03*
X59960000Y-66400000D03*
X58690000Y-66400000D03*
X57420000Y-66400000D03*
X56150000Y-66400000D03*
X54880000Y-66400000D03*
X53610000Y-66400000D03*
D18*
X53900000Y-45950000D03*
X53900000Y-48450000D03*
D20*
X53500000Y-52050000D03*
X53500000Y-54750000D03*
D21*
X53950000Y-43000000D03*
X56650000Y-43000000D03*
D22*
X55750000Y-54601140D03*
X57650000Y-54601140D03*
X56700000Y-51598860D03*
D23*
X56800000Y-45295000D03*
X56800000Y-46565000D03*
X56800000Y-47835000D03*
X56800000Y-49105000D03*
X62200000Y-49105000D03*
X62200000Y-47835000D03*
X62200000Y-46565000D03*
X62200000Y-45295000D03*
D18*
X60100000Y-54750000D03*
X60100000Y-52250000D03*
D20*
X62600000Y-58050000D03*
X62600000Y-60750000D03*
X56600000Y-60750000D03*
X56600000Y-58050000D03*
D24*
X70500000Y-53000000D03*
D25*
X70500000Y-55540000D03*
X70500000Y-58080000D03*
X70500000Y-60620000D03*
D20*
X66000000Y-35450000D03*
X66000000Y-38150000D03*
D24*
X70500000Y-41100000D03*
D25*
X70500000Y-43640000D03*
X70500000Y-46180000D03*
X70500000Y-48720000D03*
D26*
X62550000Y-63500000D03*
X60050000Y-63500000D03*
D20*
X66000000Y-76250000D03*
X66000000Y-73550000D03*
D24*
X70500000Y-65000000D03*
D25*
X70500000Y-67540000D03*
X70500000Y-70080000D03*
D18*
X53600000Y-60750000D03*
X53600000Y-58250000D03*
D27*
X59895600Y-49029900D03*
X59381400Y-68292700D03*
X58857200Y-54076600D03*
X55067500Y-68079900D03*
X55226800Y-46268600D03*
X55814100Y-53028500D03*
D28*
X66975300Y-74273500D02*
X66975300Y-76250000D01*
X69979900Y-71268900D02*
X66975300Y-74273500D01*
X70500000Y-71268900D02*
X69979900Y-71268900D01*
X70500000Y-70080000D02*
X70500000Y-71268900D01*
X66000000Y-76250000D02*
X66975300Y-76250000D01*
X65024700Y-75274700D02*
X65024700Y-76250000D01*
X62500000Y-72750000D02*
X65024700Y-75274700D01*
X62500000Y-66400000D02*
X62500000Y-72750000D01*
X66000000Y-76250000D02*
X65024700Y-76250000D01*
X62500000Y-64500300D02*
X62500000Y-66400000D01*
X62550000Y-64450300D02*
X62500000Y-64500300D01*
X62550000Y-63500000D02*
X62550000Y-64450300D01*
X58000000Y-36800000D02*
X56404700Y-36800000D01*
X53900000Y-45950000D02*
X54023100Y-45950000D01*
X53500000Y-52050000D02*
X53500000Y-50974700D01*
X56800000Y-47835000D02*
X55699700Y-47835000D01*
X52929200Y-50403900D02*
X53500000Y-50974700D01*
X52929200Y-47043900D02*
X52929200Y-50403900D01*
X54023100Y-45950000D02*
X52929200Y-47043900D01*
X62324700Y-56974700D02*
X62600000Y-56974700D01*
X60100000Y-54750000D02*
X62324700Y-56974700D01*
X62600000Y-58050000D02*
X62600000Y-56974700D01*
X62200000Y-46565000D02*
X61099700Y-46565000D01*
X56800000Y-47835000D02*
X57787700Y-47835000D01*
X62200000Y-45295000D02*
X62750200Y-45295000D01*
X62200000Y-46565000D02*
X63300300Y-46565000D01*
X63300300Y-45845100D02*
X63300300Y-46565000D01*
X62750200Y-45295000D02*
X63300300Y-45845100D01*
X55699700Y-47626600D02*
X54023100Y-45950000D01*
X55699700Y-47835000D02*
X55699700Y-47626600D01*
X61099700Y-46565000D02*
X59207300Y-46565000D01*
X54546900Y-38657800D02*
X54546900Y-41986900D01*
X56404700Y-36800000D02*
X54546900Y-38657800D01*
X54509100Y-42024700D02*
X54546900Y-41986900D01*
X53950000Y-42024700D02*
X54509100Y-42024700D01*
X59207300Y-43686400D02*
X59207300Y-46565000D01*
X57507800Y-41986900D02*
X59207300Y-43686400D01*
X54546900Y-41986900D02*
X57507800Y-41986900D01*
X53950000Y-43000000D02*
X53950000Y-42024700D01*
X65720000Y-50850000D02*
X65720000Y-51118900D01*
X63300300Y-48699200D02*
X63300300Y-46565000D01*
X65720000Y-51118900D02*
X63300300Y-48699200D01*
X57911900Y-53113500D02*
X57650000Y-53375400D01*
X57911900Y-47835000D02*
X57911900Y-53113500D01*
X57937300Y-47835000D02*
X57911900Y-47835000D01*
X59207300Y-46565000D02*
X57937300Y-47835000D01*
X57911900Y-47835000D02*
X57787700Y-47835000D01*
X57650000Y-54538900D02*
X57650000Y-53375400D01*
X57650000Y-54538900D02*
X57650000Y-54601100D01*
X58524300Y-54750000D02*
X60100000Y-54750000D01*
X58375400Y-54601100D02*
X58524300Y-54750000D01*
X57650000Y-54601100D02*
X58375400Y-54601100D01*
X66412200Y-51811100D02*
X65720000Y-51118900D01*
X70500000Y-51811100D02*
X66412200Y-51811100D01*
X70500000Y-53000000D02*
X70500000Y-51811100D01*
X54550300Y-60240000D02*
X54550300Y-60039700D01*
X54550300Y-60039700D02*
X54830000Y-59760000D01*
X67196900Y-42100000D02*
X67196900Y-42156900D01*
X67340000Y-42300000D02*
X67340000Y-43520000D01*
X67196900Y-42156900D02*
X67340000Y-42300000D01*
X71940000Y-53550000D02*
X71940000Y-54180000D01*
X71768900Y-54351100D02*
X71540300Y-54351100D01*
X71940000Y-54180000D02*
X71768900Y-54351100D01*
X71841400Y-49980000D02*
X71841400Y-49958600D01*
X71360000Y-47440000D02*
X71091200Y-47440000D01*
X71980000Y-48060000D02*
X71360000Y-47440000D01*
X71980000Y-49820000D02*
X71980000Y-48060000D01*
X71841400Y-49958600D02*
X71980000Y-49820000D01*
X54550300Y-59960000D02*
X54550300Y-59319700D01*
X54550300Y-59319700D02*
X54840000Y-59030000D01*
X52271800Y-52748200D02*
X52271800Y-52971800D01*
X54810000Y-52810000D02*
X54810000Y-52666500D01*
X54270000Y-53350000D02*
X54810000Y-52810000D01*
X52650000Y-53350000D02*
X54270000Y-53350000D01*
X52271800Y-52971800D02*
X52650000Y-53350000D01*
X61230000Y-65380000D02*
X61230000Y-64900000D01*
X61210000Y-64880000D02*
X60479700Y-64880000D01*
X61230000Y-64900000D02*
X61210000Y-64880000D01*
X71841400Y-50800000D02*
X71990000Y-50800000D01*
X71940000Y-50850000D02*
X71940000Y-53550000D01*
X71940000Y-53550000D02*
X71940000Y-54300000D01*
X71990000Y-50800000D02*
X71940000Y-50850000D01*
X65070000Y-35450000D02*
X64950000Y-35450000D01*
X64880000Y-35520000D02*
X64880000Y-40040000D01*
X64950000Y-35450000D02*
X64880000Y-35520000D01*
X55505300Y-49105000D02*
X54850300Y-48450000D01*
X55812300Y-49105000D02*
X55505300Y-49105000D01*
X53900000Y-48450000D02*
X54850300Y-48450000D01*
X65720000Y-45770000D02*
X65720000Y-44694100D01*
X66000000Y-35450000D02*
X65070000Y-35450000D01*
X65070000Y-35450000D02*
X65024700Y-35450000D01*
X56700900Y-39562500D02*
X56700900Y-38562200D01*
X65024700Y-38562200D02*
X56700900Y-38562200D01*
X65024700Y-38562200D02*
X65024700Y-35450000D01*
X70500000Y-46180000D02*
X70500000Y-47368900D01*
X70500000Y-47368900D02*
X71020100Y-47368900D01*
X71020100Y-47368900D02*
X71091200Y-47440000D01*
X71540300Y-54351100D02*
X70500000Y-54351100D01*
X70500000Y-55540000D02*
X70500000Y-54351100D01*
X71841400Y-54050000D02*
X71540300Y-54351100D01*
X71841400Y-50800000D02*
X71841400Y-54050000D01*
X71841400Y-49980000D02*
X71841400Y-50800000D01*
X54550300Y-59124400D02*
X55624700Y-58050000D01*
X54550300Y-60750000D02*
X54550300Y-60240000D01*
X54550300Y-60240000D02*
X54550300Y-59960000D01*
X54550300Y-59960000D02*
X54550300Y-59124400D01*
X53600000Y-60750000D02*
X54550300Y-60750000D01*
X56600000Y-58050000D02*
X55624700Y-58050000D01*
X50480000Y-50850000D02*
X50480000Y-51925900D01*
X56800000Y-49105000D02*
X56507100Y-49105000D01*
X56507100Y-49105000D02*
X55812300Y-49105000D01*
X56700000Y-49297900D02*
X56700000Y-51598900D01*
X56507100Y-49105000D02*
X56700000Y-49297900D01*
X56700000Y-51598900D02*
X56700000Y-51756500D01*
X56600000Y-52368300D02*
X56600000Y-56974700D01*
X55108200Y-52368300D02*
X56600000Y-52368300D01*
X54810000Y-52666500D02*
X55108200Y-52368300D01*
X51449500Y-51925900D02*
X52271800Y-52748200D01*
X50480000Y-51925900D02*
X51449500Y-51925900D01*
X56700000Y-52268300D02*
X56700000Y-51756500D01*
X56600000Y-52368300D02*
X56700000Y-52268300D01*
X56600000Y-58050000D02*
X56600000Y-57512300D01*
X56600000Y-57512300D02*
X56600000Y-56974700D01*
X57912000Y-57512300D02*
X58649700Y-58250000D01*
X56600000Y-57512300D02*
X57912000Y-57512300D01*
X59600000Y-58250000D02*
X58649700Y-58250000D01*
X59895600Y-50970300D02*
X60100000Y-51174700D01*
X59895600Y-49029900D02*
X59895600Y-50970300D01*
X60100000Y-52250000D02*
X60100000Y-51174700D01*
X61230000Y-71390000D02*
X61230000Y-66400000D01*
X58000000Y-74620000D02*
X61230000Y-71390000D01*
X60479700Y-64880000D02*
X60050000Y-64450300D01*
X60050000Y-63500000D02*
X60050000Y-64450300D01*
X61230000Y-66400000D02*
X61230000Y-65380000D01*
X66257900Y-44694100D02*
X67196900Y-43755100D01*
X65720000Y-44694100D02*
X66257900Y-44694100D01*
X65024700Y-39147700D02*
X65024700Y-38562200D01*
X67196900Y-41319900D02*
X65024700Y-39147700D01*
X67196900Y-43755100D02*
X67196900Y-42100000D01*
X67196900Y-42100000D02*
X67196900Y-41319900D01*
X70500000Y-43755100D02*
X67196900Y-43755100D01*
X70500000Y-43640000D02*
X70500000Y-43755100D01*
X70500000Y-43755100D02*
X70500000Y-46180000D01*
X61968100Y-43230000D02*
X59300900Y-40562800D01*
X65720000Y-43230000D02*
X61968100Y-43230000D01*
X59300900Y-39562500D02*
X59300900Y-40562800D01*
X59960000Y-66400000D02*
X59960000Y-67725300D01*
X60006700Y-67772000D02*
X59960000Y-67725300D01*
X60006700Y-68551800D02*
X60006700Y-67772000D01*
X57388500Y-71170000D02*
X60006700Y-68551800D01*
X50480000Y-71170000D02*
X57388500Y-71170000D01*
X58814000Y-67725300D02*
X59381400Y-68292700D01*
X58690000Y-67725300D02*
X58814000Y-67725300D01*
X58690000Y-66400000D02*
X58690000Y-67725300D01*
X57420000Y-64271400D02*
X57420000Y-66400000D01*
X59217300Y-62474100D02*
X57420000Y-64271400D01*
X65720000Y-62474100D02*
X59217300Y-62474100D01*
X65720000Y-63550000D02*
X65720000Y-62474100D01*
X58857200Y-49147700D02*
X58857200Y-54076600D01*
X60169900Y-47835000D02*
X58857200Y-49147700D01*
X62200000Y-47835000D02*
X60169900Y-47835000D01*
X62200000Y-49105000D02*
X61099700Y-49105000D01*
X56150000Y-63848300D02*
X56150000Y-66400000D01*
X55618700Y-63317000D02*
X56150000Y-63848300D01*
X55618700Y-59812500D02*
X55618700Y-63317000D01*
X56031300Y-59399900D02*
X55618700Y-59812500D01*
X63123300Y-59399900D02*
X56031300Y-59399900D01*
X63613700Y-58909500D02*
X63123300Y-59399900D01*
X63613700Y-56973300D02*
X63613700Y-58909500D01*
X61099700Y-54459300D02*
X63613700Y-56973300D01*
X61099700Y-49105000D02*
X61099700Y-54459300D01*
X66257900Y-67554100D02*
X65720000Y-67554100D01*
X67184000Y-66628000D02*
X66257900Y-67554100D01*
X67184000Y-60547900D02*
X67184000Y-66628000D01*
X66216800Y-59580700D02*
X67184000Y-60547900D01*
X64284900Y-59580700D02*
X66216800Y-59580700D01*
X63613700Y-58909500D02*
X64284900Y-59580700D01*
X65720000Y-68630000D02*
X65720000Y-67554100D01*
X55067500Y-67912800D02*
X55067500Y-68079900D01*
X54880000Y-67725300D02*
X55067500Y-67912800D01*
X54880000Y-66400000D02*
X54880000Y-67725300D01*
X55523200Y-46565000D02*
X55226800Y-46268600D01*
X56800000Y-46565000D02*
X55523200Y-46565000D01*
X49942100Y-54465900D02*
X50480000Y-54465900D01*
X49016000Y-55392000D02*
X49942100Y-54465900D01*
X49016000Y-61478800D02*
X49016000Y-55392000D01*
X49817200Y-62280000D02*
X49016000Y-61478800D01*
X51088200Y-62280000D02*
X49817200Y-62280000D01*
X53610000Y-64801800D02*
X51088200Y-62280000D01*
X53610000Y-66400000D02*
X53610000Y-64801800D01*
X50480000Y-53390000D02*
X50480000Y-54465900D01*
X56800000Y-45295000D02*
X55699700Y-45295000D01*
X56650000Y-43000000D02*
X56650000Y-43975300D01*
X55699700Y-45295000D02*
X55699700Y-44874600D01*
X56531100Y-43975300D02*
X56650000Y-43975300D01*
X55699700Y-44806700D02*
X56531100Y-43975300D01*
X55699700Y-44874600D02*
X55699700Y-44806700D01*
X49942100Y-67554100D02*
X50480000Y-67554100D01*
X48561700Y-66173700D02*
X49942100Y-67554100D01*
X48561700Y-50836700D02*
X48561700Y-66173700D01*
X49818400Y-49580000D02*
X48561700Y-50836700D01*
X51091400Y-49580000D02*
X49818400Y-49580000D01*
X52157400Y-48514000D02*
X51091400Y-49580000D01*
X52157400Y-45828900D02*
X52157400Y-48514000D01*
X53111700Y-44874600D02*
X52157400Y-45828900D01*
X55699700Y-44874600D02*
X53111700Y-44874600D01*
X50480000Y-68630000D02*
X50480000Y-67554100D01*
X53500000Y-54750000D02*
X54475300Y-54750000D01*
X54624200Y-54601100D02*
X54475300Y-54750000D01*
X55750000Y-54601100D02*
X54624200Y-54601100D01*
X55750000Y-53092600D02*
X55814100Y-53028500D01*
X55750000Y-54601100D02*
X55750000Y-53092600D01*
X56600000Y-60750000D02*
X59600000Y-60750000D01*
X59600000Y-60750000D02*
X62600000Y-60750000D01*
X64034800Y-60750000D02*
X64294800Y-61010000D01*
X62600000Y-60750000D02*
X64034800Y-60750000D01*
X65720000Y-61010000D02*
X64294800Y-61010000D01*
X64461500Y-57017400D02*
X63180000Y-55735900D01*
X66897400Y-57017400D02*
X64461500Y-57017400D01*
X69311100Y-59431100D02*
X66897400Y-57017400D01*
X70500000Y-59431100D02*
X69311100Y-59431100D01*
X70500000Y-60620000D02*
X70500000Y-59431100D01*
X63180000Y-54660000D02*
X63180000Y-55735900D01*
X70500000Y-58080000D02*
X70500000Y-56891100D01*
X69979900Y-56891100D02*
X70500000Y-56891100D01*
X67145300Y-54056500D02*
X69979900Y-56891100D01*
X67145300Y-52934600D02*
X67145300Y-54056500D01*
X66472200Y-52261500D02*
X67145300Y-52934600D01*
X64746700Y-52261500D02*
X66472200Y-52261500D01*
X64605200Y-52120000D02*
X64746700Y-52261500D01*
X63180000Y-52120000D02*
X64605200Y-52120000D01*
X51405600Y-57005900D02*
X50480000Y-57005900D01*
X52649700Y-58250000D02*
X51405600Y-57005900D01*
X53600000Y-58250000D02*
X52649700Y-58250000D01*
X50480000Y-55930000D02*
X50480000Y-57005900D01*
X68736400Y-39911100D02*
X66975300Y-38150000D01*
X70500000Y-39911100D02*
X68736400Y-39911100D01*
X70500000Y-41100000D02*
X70500000Y-39911100D01*
X66000000Y-38150000D02*
X66975300Y-38150000D01*
X68311300Y-72214000D02*
X66975300Y-73550000D01*
X68311300Y-70397500D02*
X68311300Y-72214000D01*
X69979900Y-68728900D02*
X68311300Y-70397500D01*
X70500000Y-68728900D02*
X69979900Y-68728900D01*
X70500000Y-67540000D02*
X70500000Y-68728900D01*
X66000000Y-73550000D02*
X66975300Y-73550000D01*
D29*
G36*
X60177000Y-63373000D02*
X60197000Y-63373000D01*
X60197000Y-63627000D01*
X60177000Y-63627000D01*
X60177000Y-64601250D01*
X60335750Y-64760000D01*
X60862542Y-64760000D01*
X60985223Y-64735597D01*
X61100785Y-64687730D01*
X61204789Y-64618237D01*
X61293237Y-64529789D01*
X61301773Y-64517015D01*
X61321900Y-64547559D01*
X61458550Y-64664025D01*
X61622237Y-64737810D01*
X61740000Y-64754545D01*
X61740000Y-64765000D01*
X61515750Y-64765000D01*
X61357000Y-64923750D01*
X61357000Y-66273000D01*
X61361928Y-66273000D01*
X61361928Y-66527000D01*
X61357000Y-66527000D01*
X61357000Y-67876250D01*
X61515750Y-68035000D01*
X61740000Y-68035000D01*
X61740000Y-72750000D01*
X61746851Y-72819877D01*
X61752969Y-72889803D01*
X61754084Y-72893641D01*
X61754474Y-72897618D01*
X61774764Y-72964821D01*
X61794351Y-73032240D01*
X61796190Y-73035788D01*
X61797345Y-73039613D01*
X61830299Y-73101591D01*
X61862610Y-73163925D01*
X61865103Y-73167048D01*
X61866980Y-73170578D01*
X61911355Y-73224987D01*
X61955148Y-73279846D01*
X61960631Y-73285406D01*
X61960726Y-73285522D01*
X61960834Y-73285611D01*
X61962599Y-73287401D01*
X63798198Y-75123000D01*
X59837394Y-75123000D01*
X59886874Y-74942389D01*
X59913514Y-74568084D01*
X59866618Y-74195773D01*
X59747988Y-73839765D01*
X59619871Y-73600076D01*
X59327852Y-73471753D01*
X58179605Y-74620000D01*
X58193748Y-74634143D01*
X58014143Y-74813748D01*
X58000000Y-74799605D01*
X57985858Y-74813748D01*
X57806253Y-74634143D01*
X57820395Y-74620000D01*
X56672148Y-73471753D01*
X56380129Y-73600076D01*
X56212277Y-73935695D01*
X56113126Y-74297611D01*
X56086486Y-74671916D01*
X56133382Y-75044227D01*
X56159631Y-75123000D01*
X51750000Y-75123000D01*
X51703841Y-75131685D01*
X51661447Y-75158965D01*
X51633006Y-75200590D01*
X51623000Y-75250000D01*
X51623000Y-76815000D01*
X49033505Y-76815000D01*
X48939454Y-76805778D01*
X48881213Y-76788194D01*
X48827500Y-76759635D01*
X48780354Y-76721183D01*
X48741577Y-76674310D01*
X48712642Y-76620796D01*
X48694651Y-76562677D01*
X48685000Y-76470855D01*
X48685000Y-73292148D01*
X56851753Y-73292148D01*
X58000000Y-74440395D01*
X59148247Y-73292148D01*
X59019924Y-73000129D01*
X58684305Y-72832277D01*
X58322389Y-72733126D01*
X57948084Y-72706486D01*
X57575773Y-72753382D01*
X57219765Y-72872012D01*
X56980076Y-73000129D01*
X56851753Y-73292148D01*
X48685000Y-73292148D01*
X48685000Y-67371802D01*
X49061828Y-67748630D01*
X48973666Y-67855199D01*
X48845050Y-68093070D01*
X48765086Y-68351392D01*
X48736820Y-68620327D01*
X48761328Y-68889630D01*
X48837678Y-69149044D01*
X48962960Y-69388687D01*
X49132404Y-69599433D01*
X49339555Y-69773253D01*
X49571837Y-69900950D01*
X49355593Y-70015929D01*
X49146036Y-70186840D01*
X48973666Y-70395199D01*
X48845050Y-70633070D01*
X48765086Y-70891392D01*
X48736820Y-71160327D01*
X48761328Y-71429630D01*
X48837678Y-71689044D01*
X48962960Y-71928687D01*
X49132404Y-72139433D01*
X49339555Y-72313253D01*
X49576522Y-72443526D01*
X49834280Y-72525292D01*
X50103010Y-72555435D01*
X50122356Y-72555570D01*
X50837644Y-72555570D01*
X51106769Y-72529182D01*
X51365644Y-72451023D01*
X51604407Y-72324071D01*
X51813964Y-72153160D01*
X51986334Y-71944801D01*
X51994337Y-71930000D01*
X57388500Y-71930000D01*
X57458377Y-71923149D01*
X57528303Y-71917031D01*
X57532141Y-71915916D01*
X57536118Y-71915526D01*
X57603321Y-71895236D01*
X57670740Y-71875649D01*
X57674288Y-71873810D01*
X57678113Y-71872655D01*
X57740091Y-71839701D01*
X57802425Y-71807390D01*
X57805548Y-71804897D01*
X57809078Y-71803020D01*
X57863487Y-71758645D01*
X57918346Y-71714852D01*
X57923906Y-71709369D01*
X57924022Y-71709274D01*
X57924111Y-71709166D01*
X57925901Y-71707401D01*
X60544101Y-69089201D01*
X60588668Y-69034945D01*
X60633786Y-68981175D01*
X60635711Y-68977674D01*
X60638248Y-68974585D01*
X60671413Y-68912733D01*
X60705243Y-68851196D01*
X60706452Y-68847384D01*
X60708339Y-68843865D01*
X60728852Y-68776769D01*
X60750092Y-68709813D01*
X60750538Y-68705841D01*
X60751706Y-68702019D01*
X60758803Y-68632151D01*
X60766626Y-68562411D01*
X60766680Y-68554606D01*
X60766696Y-68554453D01*
X60766682Y-68554310D01*
X60766700Y-68551800D01*
X60766700Y-68035000D01*
X60944250Y-68035000D01*
X61103000Y-67876250D01*
X61103000Y-66527000D01*
X61098072Y-66527000D01*
X61098072Y-66273000D01*
X61103000Y-66273000D01*
X61103000Y-64923750D01*
X60944250Y-64765000D01*
X60667458Y-64765000D01*
X60590015Y-64780405D01*
X60460000Y-64761928D01*
X59460000Y-64761928D01*
X59358879Y-64769992D01*
X59323607Y-64780915D01*
X59190000Y-64761928D01*
X58190000Y-64761928D01*
X58180000Y-64762725D01*
X58180000Y-64586202D01*
X58665000Y-64101202D01*
X58665000Y-64187542D01*
X58689403Y-64310223D01*
X58737270Y-64425785D01*
X58806763Y-64529789D01*
X58895211Y-64618237D01*
X58999215Y-64687730D01*
X59114777Y-64735597D01*
X59237458Y-64760000D01*
X59764250Y-64760000D01*
X59923000Y-64601250D01*
X59923000Y-63627000D01*
X59903000Y-63627000D01*
X59903000Y-63373000D01*
X59923000Y-63373000D01*
X59923000Y-63353000D01*
X60177000Y-63353000D01*
X60177000Y-63373000D01*
X60177000Y-63373000D01*
G37*
X60177000Y-63373000D02*
X60197000Y-63373000D01*
X60197000Y-63627000D01*
X60177000Y-63627000D01*
X60177000Y-64601250D01*
X60335750Y-64760000D01*
X60862542Y-64760000D01*
X60985223Y-64735597D01*
X61100785Y-64687730D01*
X61204789Y-64618237D01*
X61293237Y-64529789D01*
X61301773Y-64517015D01*
X61321900Y-64547559D01*
X61458550Y-64664025D01*
X61622237Y-64737810D01*
X61740000Y-64754545D01*
X61740000Y-64765000D01*
X61515750Y-64765000D01*
X61357000Y-64923750D01*
X61357000Y-66273000D01*
X61361928Y-66273000D01*
X61361928Y-66527000D01*
X61357000Y-66527000D01*
X61357000Y-67876250D01*
X61515750Y-68035000D01*
X61740000Y-68035000D01*
X61740000Y-72750000D01*
X61746851Y-72819877D01*
X61752969Y-72889803D01*
X61754084Y-72893641D01*
X61754474Y-72897618D01*
X61774764Y-72964821D01*
X61794351Y-73032240D01*
X61796190Y-73035788D01*
X61797345Y-73039613D01*
X61830299Y-73101591D01*
X61862610Y-73163925D01*
X61865103Y-73167048D01*
X61866980Y-73170578D01*
X61911355Y-73224987D01*
X61955148Y-73279846D01*
X61960631Y-73285406D01*
X61960726Y-73285522D01*
X61960834Y-73285611D01*
X61962599Y-73287401D01*
X63798198Y-75123000D01*
X59837394Y-75123000D01*
X59886874Y-74942389D01*
X59913514Y-74568084D01*
X59866618Y-74195773D01*
X59747988Y-73839765D01*
X59619871Y-73600076D01*
X59327852Y-73471753D01*
X58179605Y-74620000D01*
X58193748Y-74634143D01*
X58014143Y-74813748D01*
X58000000Y-74799605D01*
X57985858Y-74813748D01*
X57806253Y-74634143D01*
X57820395Y-74620000D01*
X56672148Y-73471753D01*
X56380129Y-73600076D01*
X56212277Y-73935695D01*
X56113126Y-74297611D01*
X56086486Y-74671916D01*
X56133382Y-75044227D01*
X56159631Y-75123000D01*
X51750000Y-75123000D01*
X51703841Y-75131685D01*
X51661447Y-75158965D01*
X51633006Y-75200590D01*
X51623000Y-75250000D01*
X51623000Y-76815000D01*
X49033505Y-76815000D01*
X48939454Y-76805778D01*
X48881213Y-76788194D01*
X48827500Y-76759635D01*
X48780354Y-76721183D01*
X48741577Y-76674310D01*
X48712642Y-76620796D01*
X48694651Y-76562677D01*
X48685000Y-76470855D01*
X48685000Y-73292148D01*
X56851753Y-73292148D01*
X58000000Y-74440395D01*
X59148247Y-73292148D01*
X59019924Y-73000129D01*
X58684305Y-72832277D01*
X58322389Y-72733126D01*
X57948084Y-72706486D01*
X57575773Y-72753382D01*
X57219765Y-72872012D01*
X56980076Y-73000129D01*
X56851753Y-73292148D01*
X48685000Y-73292148D01*
X48685000Y-67371802D01*
X49061828Y-67748630D01*
X48973666Y-67855199D01*
X48845050Y-68093070D01*
X48765086Y-68351392D01*
X48736820Y-68620327D01*
X48761328Y-68889630D01*
X48837678Y-69149044D01*
X48962960Y-69388687D01*
X49132404Y-69599433D01*
X49339555Y-69773253D01*
X49571837Y-69900950D01*
X49355593Y-70015929D01*
X49146036Y-70186840D01*
X48973666Y-70395199D01*
X48845050Y-70633070D01*
X48765086Y-70891392D01*
X48736820Y-71160327D01*
X48761328Y-71429630D01*
X48837678Y-71689044D01*
X48962960Y-71928687D01*
X49132404Y-72139433D01*
X49339555Y-72313253D01*
X49576522Y-72443526D01*
X49834280Y-72525292D01*
X50103010Y-72555435D01*
X50122356Y-72555570D01*
X50837644Y-72555570D01*
X51106769Y-72529182D01*
X51365644Y-72451023D01*
X51604407Y-72324071D01*
X51813964Y-72153160D01*
X51986334Y-71944801D01*
X51994337Y-71930000D01*
X57388500Y-71930000D01*
X57458377Y-71923149D01*
X57528303Y-71917031D01*
X57532141Y-71915916D01*
X57536118Y-71915526D01*
X57603321Y-71895236D01*
X57670740Y-71875649D01*
X57674288Y-71873810D01*
X57678113Y-71872655D01*
X57740091Y-71839701D01*
X57802425Y-71807390D01*
X57805548Y-71804897D01*
X57809078Y-71803020D01*
X57863487Y-71758645D01*
X57918346Y-71714852D01*
X57923906Y-71709369D01*
X57924022Y-71709274D01*
X57924111Y-71709166D01*
X57925901Y-71707401D01*
X60544101Y-69089201D01*
X60588668Y-69034945D01*
X60633786Y-68981175D01*
X60635711Y-68977674D01*
X60638248Y-68974585D01*
X60671413Y-68912733D01*
X60705243Y-68851196D01*
X60706452Y-68847384D01*
X60708339Y-68843865D01*
X60728852Y-68776769D01*
X60750092Y-68709813D01*
X60750538Y-68705841D01*
X60751706Y-68702019D01*
X60758803Y-68632151D01*
X60766626Y-68562411D01*
X60766680Y-68554606D01*
X60766696Y-68554453D01*
X60766682Y-68554310D01*
X60766700Y-68551800D01*
X60766700Y-68035000D01*
X60944250Y-68035000D01*
X61103000Y-67876250D01*
X61103000Y-66527000D01*
X61098072Y-66527000D01*
X61098072Y-66273000D01*
X61103000Y-66273000D01*
X61103000Y-64923750D01*
X60944250Y-64765000D01*
X60667458Y-64765000D01*
X60590015Y-64780405D01*
X60460000Y-64761928D01*
X59460000Y-64761928D01*
X59358879Y-64769992D01*
X59323607Y-64780915D01*
X59190000Y-64761928D01*
X58190000Y-64761928D01*
X58180000Y-64762725D01*
X58180000Y-64586202D01*
X58665000Y-64101202D01*
X58665000Y-64187542D01*
X58689403Y-64310223D01*
X58737270Y-64425785D01*
X58806763Y-64529789D01*
X58895211Y-64618237D01*
X58999215Y-64687730D01*
X59114777Y-64735597D01*
X59237458Y-64760000D01*
X59764250Y-64760000D01*
X59923000Y-64601250D01*
X59923000Y-63627000D01*
X59903000Y-63627000D01*
X59903000Y-63373000D01*
X59923000Y-63373000D01*
X59923000Y-63353000D01*
X60177000Y-63353000D01*
X60177000Y-63373000D01*
G36*
X64945211Y-34206763D02*
X64856763Y-34295211D01*
X64787270Y-34399215D01*
X64739403Y-34514777D01*
X64715000Y-34637458D01*
X64715000Y-35164250D01*
X64873750Y-35323000D01*
X65873000Y-35323000D01*
X65873000Y-35303000D01*
X66127000Y-35303000D01*
X66127000Y-35323000D01*
X67126250Y-35323000D01*
X67285000Y-35164250D01*
X67285000Y-34637458D01*
X67260597Y-34514777D01*
X67212730Y-34399215D01*
X67143237Y-34295211D01*
X67054789Y-34206763D01*
X67022218Y-34185000D01*
X68513996Y-34185000D01*
X68320762Y-34311449D01*
X67947074Y-34677391D01*
X67651582Y-35108946D01*
X67445541Y-35589678D01*
X67336797Y-36101274D01*
X67329495Y-36624249D01*
X67423911Y-37138682D01*
X67616450Y-37624979D01*
X67782065Y-37881963D01*
X67512701Y-37612599D01*
X67458445Y-37568032D01*
X67404675Y-37522914D01*
X67401174Y-37520989D01*
X67398085Y-37518452D01*
X67336233Y-37485287D01*
X67288072Y-37458811D01*
X67288072Y-37400000D01*
X67280008Y-37298879D01*
X67226894Y-37127366D01*
X67128100Y-36977441D01*
X66991450Y-36860975D01*
X66858396Y-36800998D01*
X66950785Y-36762730D01*
X67054789Y-36693237D01*
X67143237Y-36604789D01*
X67212730Y-36500785D01*
X67260597Y-36385223D01*
X67285000Y-36262542D01*
X67285000Y-35735750D01*
X67126250Y-35577000D01*
X66127000Y-35577000D01*
X66127000Y-35597000D01*
X65873000Y-35597000D01*
X65873000Y-35577000D01*
X64873750Y-35577000D01*
X64715000Y-35735750D01*
X64715000Y-36262542D01*
X64739403Y-36385223D01*
X64787270Y-36500785D01*
X64856763Y-36604789D01*
X64945211Y-36693237D01*
X65049215Y-36762730D01*
X65144663Y-36802266D01*
X65077366Y-36823106D01*
X64927441Y-36921900D01*
X64810975Y-37058550D01*
X64737190Y-37222237D01*
X64711928Y-37400000D01*
X64711928Y-38900000D01*
X64719992Y-39001121D01*
X64773106Y-39172634D01*
X64871900Y-39322559D01*
X65008550Y-39439025D01*
X65172237Y-39512810D01*
X65350000Y-39538072D01*
X66650000Y-39538072D01*
X66751121Y-39530008D01*
X66922634Y-39476894D01*
X67072559Y-39378100D01*
X67098344Y-39347846D01*
X68198999Y-40448502D01*
X68253290Y-40493097D01*
X68307025Y-40538186D01*
X68310525Y-40540110D01*
X68313616Y-40542649D01*
X68375501Y-40575831D01*
X68437004Y-40609643D01*
X68440814Y-40610852D01*
X68444336Y-40612740D01*
X68511504Y-40633276D01*
X68578387Y-40654492D01*
X68582354Y-40654937D01*
X68586181Y-40656107D01*
X68656099Y-40663209D01*
X68725789Y-40671026D01*
X68733594Y-40671080D01*
X68733747Y-40671096D01*
X68733890Y-40671082D01*
X68736400Y-40671100D01*
X68845928Y-40671100D01*
X68845928Y-41963600D01*
X68853992Y-42064721D01*
X68907106Y-42236234D01*
X69005900Y-42386159D01*
X69142550Y-42502625D01*
X69300272Y-42573721D01*
X69149267Y-42737965D01*
X68996314Y-42989081D01*
X68895291Y-43265211D01*
X68892642Y-43280974D01*
X69013783Y-43513000D01*
X70373000Y-43513000D01*
X70373000Y-43493000D01*
X70627000Y-43493000D01*
X70627000Y-43513000D01*
X71986217Y-43513000D01*
X72107358Y-43280974D01*
X72104709Y-43265211D01*
X72003686Y-42989081D01*
X71850733Y-42737965D01*
X71695653Y-42569288D01*
X71788634Y-42540494D01*
X71938559Y-42441700D01*
X72055025Y-42305050D01*
X72128810Y-42141363D01*
X72154072Y-41963600D01*
X72154072Y-40236400D01*
X72146008Y-40135279D01*
X72092894Y-39963766D01*
X71994100Y-39813841D01*
X71857450Y-39697375D01*
X71693763Y-39623590D01*
X71516000Y-39598328D01*
X71190341Y-39598328D01*
X71169093Y-39558365D01*
X71135941Y-39494952D01*
X71134271Y-39492875D01*
X71133020Y-39490522D01*
X71087790Y-39435065D01*
X71042999Y-39379356D01*
X71040960Y-39377645D01*
X71039274Y-39375578D01*
X70984102Y-39329936D01*
X70929375Y-39284014D01*
X70927043Y-39282732D01*
X70924987Y-39281031D01*
X70862031Y-39246991D01*
X70799396Y-39212557D01*
X70796855Y-39211751D01*
X70794512Y-39210484D01*
X70726203Y-39189339D01*
X70658013Y-39167708D01*
X70655364Y-39167411D01*
X70652819Y-39166623D01*
X70581728Y-39159151D01*
X70510611Y-39151174D01*
X70505489Y-39151138D01*
X70505306Y-39151119D01*
X70505122Y-39151136D01*
X70500000Y-39151100D01*
X69051203Y-39151100D01*
X68518366Y-38618263D01*
X68692583Y-38739347D01*
X69171864Y-38948740D01*
X69682689Y-39061052D01*
X70205600Y-39072006D01*
X70720679Y-38981183D01*
X71208309Y-38792044D01*
X71649914Y-38511793D01*
X72028674Y-38151104D01*
X72315000Y-37745212D01*
X72315000Y-73264776D01*
X72076777Y-72906222D01*
X71708235Y-72535098D01*
X71274627Y-72242626D01*
X70792469Y-72039946D01*
X70655926Y-72011918D01*
X70716081Y-71993756D01*
X70784701Y-71973560D01*
X70787064Y-71972325D01*
X70789613Y-71971555D01*
X70852735Y-71937993D01*
X70916148Y-71904841D01*
X70918225Y-71903171D01*
X70920578Y-71901920D01*
X70976035Y-71856690D01*
X71031744Y-71811899D01*
X71033455Y-71809860D01*
X71035522Y-71808174D01*
X71081164Y-71753002D01*
X71127086Y-71698275D01*
X71128368Y-71695943D01*
X71130069Y-71693887D01*
X71164109Y-71630931D01*
X71198543Y-71568296D01*
X71199349Y-71565755D01*
X71200616Y-71563412D01*
X71221761Y-71495103D01*
X71231110Y-71465631D01*
X71231460Y-71465525D01*
X71489701Y-71328216D01*
X71716353Y-71143363D01*
X71902784Y-70918006D01*
X72041892Y-70660731D01*
X72128379Y-70381335D01*
X72158951Y-70090462D01*
X72132444Y-69799190D01*
X72049866Y-69518615D01*
X71914363Y-69259422D01*
X71731097Y-69031485D01*
X71507048Y-68843485D01*
X71447413Y-68810701D01*
X71489701Y-68788216D01*
X71716353Y-68603363D01*
X71902784Y-68378006D01*
X72041892Y-68120731D01*
X72128379Y-67841335D01*
X72158951Y-67550462D01*
X72132444Y-67259190D01*
X72049866Y-66978615D01*
X71914363Y-66719422D01*
X71731097Y-66491485D01*
X71707430Y-66471626D01*
X71816785Y-66426330D01*
X71920789Y-66356837D01*
X72009237Y-66268389D01*
X72078730Y-66164385D01*
X72126597Y-66048823D01*
X72151000Y-65926142D01*
X72151000Y-65285750D01*
X71992250Y-65127000D01*
X70627000Y-65127000D01*
X70627000Y-65147000D01*
X70373000Y-65147000D01*
X70373000Y-65127000D01*
X69007750Y-65127000D01*
X68849000Y-65285750D01*
X68849000Y-65926142D01*
X68873403Y-66048823D01*
X68921270Y-66164385D01*
X68990763Y-66268389D01*
X69079211Y-66356837D01*
X69183215Y-66426330D01*
X69290727Y-66470863D01*
X69283647Y-66476637D01*
X69097216Y-66701994D01*
X68958108Y-66959269D01*
X68871621Y-67238665D01*
X68841049Y-67529538D01*
X68867556Y-67820810D01*
X68950134Y-68101385D01*
X69085637Y-68360578D01*
X69169329Y-68464669D01*
X67773899Y-69860099D01*
X67729332Y-69914355D01*
X67684214Y-69968125D01*
X67682289Y-69971626D01*
X67679752Y-69974715D01*
X67646587Y-70036567D01*
X67612757Y-70098104D01*
X67611548Y-70101916D01*
X67609661Y-70105435D01*
X67589148Y-70172531D01*
X67567908Y-70239487D01*
X67567462Y-70243459D01*
X67566294Y-70247281D01*
X67559197Y-70317149D01*
X67551374Y-70386889D01*
X67551320Y-70394694D01*
X67551304Y-70394847D01*
X67551318Y-70394990D01*
X67551300Y-70397500D01*
X67551300Y-71899198D01*
X67098384Y-72352114D01*
X66991450Y-72260975D01*
X66946573Y-72240746D01*
X67053964Y-72153160D01*
X67226334Y-71944801D01*
X67354950Y-71706930D01*
X67434914Y-71448608D01*
X67463180Y-71179673D01*
X67438672Y-70910370D01*
X67362322Y-70650956D01*
X67237040Y-70411313D01*
X67067596Y-70200567D01*
X66860445Y-70026747D01*
X66628163Y-69899050D01*
X66844407Y-69784071D01*
X67053964Y-69613160D01*
X67226334Y-69404801D01*
X67354950Y-69166930D01*
X67434914Y-68908608D01*
X67463180Y-68639673D01*
X67438672Y-68370370D01*
X67362322Y-68110956D01*
X67237040Y-67871313D01*
X67138299Y-67748503D01*
X67721401Y-67165401D01*
X67765968Y-67111145D01*
X67811086Y-67057375D01*
X67813011Y-67053874D01*
X67815548Y-67050785D01*
X67848713Y-66988933D01*
X67882543Y-66927396D01*
X67883752Y-66923584D01*
X67885639Y-66920065D01*
X67906152Y-66852969D01*
X67927392Y-66786013D01*
X67927838Y-66782041D01*
X67929006Y-66778219D01*
X67936098Y-66708395D01*
X67943926Y-66638611D01*
X67943981Y-66630796D01*
X67943995Y-66630653D01*
X67943982Y-66630520D01*
X67944000Y-66628000D01*
X67944000Y-64073858D01*
X68849000Y-64073858D01*
X68849000Y-64714250D01*
X69007750Y-64873000D01*
X70373000Y-64873000D01*
X70373000Y-63660150D01*
X70627000Y-63660150D01*
X70627000Y-64873000D01*
X71992250Y-64873000D01*
X72151000Y-64714250D01*
X72151000Y-64073858D01*
X72126597Y-63951177D01*
X72078730Y-63835615D01*
X72009237Y-63731611D01*
X71920789Y-63643163D01*
X71816785Y-63573670D01*
X71701223Y-63525803D01*
X71578542Y-63501400D01*
X70785750Y-63501400D01*
X70627000Y-63660150D01*
X70373000Y-63660150D01*
X70214250Y-63501400D01*
X69421458Y-63501400D01*
X69298777Y-63525803D01*
X69183215Y-63573670D01*
X69079211Y-63643163D01*
X68990763Y-63731611D01*
X68921270Y-63835615D01*
X68873403Y-63951177D01*
X68849000Y-64073858D01*
X67944000Y-64073858D01*
X67944000Y-60547900D01*
X67937144Y-60477973D01*
X67931030Y-60408097D01*
X67929916Y-60404264D01*
X67929526Y-60400282D01*
X67909224Y-60333038D01*
X67889649Y-60265660D01*
X67887810Y-60262112D01*
X67886655Y-60258287D01*
X67853691Y-60196290D01*
X67821389Y-60133974D01*
X67818897Y-60130853D01*
X67817020Y-60127322D01*
X67772641Y-60072907D01*
X67728852Y-60018054D01*
X67723369Y-60012494D01*
X67723274Y-60012378D01*
X67723166Y-60012289D01*
X67721401Y-60010499D01*
X67103809Y-59392907D01*
X67226334Y-59244801D01*
X67354950Y-59006930D01*
X67434914Y-58748608D01*
X67446222Y-58641024D01*
X68773699Y-59968501D01*
X68827955Y-60013068D01*
X68881725Y-60058186D01*
X68885226Y-60060111D01*
X68888315Y-60062648D01*
X68941966Y-60091415D01*
X68871621Y-60318665D01*
X68841049Y-60609538D01*
X68867556Y-60900810D01*
X68950134Y-61181385D01*
X69085637Y-61440578D01*
X69268903Y-61668515D01*
X69492952Y-61856515D01*
X69749251Y-61997416D01*
X70028036Y-62085852D01*
X70318688Y-62118454D01*
X70339612Y-62118600D01*
X70660388Y-62118600D01*
X70951468Y-62090059D01*
X71231460Y-62005525D01*
X71489701Y-61868216D01*
X71716353Y-61683363D01*
X71902784Y-61458006D01*
X72041892Y-61200731D01*
X72128379Y-60921335D01*
X72158951Y-60630462D01*
X72132444Y-60339190D01*
X72049866Y-60058615D01*
X71914363Y-59799422D01*
X71731097Y-59571485D01*
X71507048Y-59383485D01*
X71447413Y-59350701D01*
X71489701Y-59328216D01*
X71716353Y-59143363D01*
X71902784Y-58918006D01*
X72041892Y-58660731D01*
X72128379Y-58381335D01*
X72158951Y-58090462D01*
X72132444Y-57799190D01*
X72049866Y-57518615D01*
X71914363Y-57259422D01*
X71731097Y-57031485D01*
X71507048Y-56843485D01*
X71445128Y-56809444D01*
X71651729Y-56658486D01*
X71850733Y-56442035D01*
X72003686Y-56190919D01*
X72104709Y-55914789D01*
X72107358Y-55899026D01*
X71986217Y-55667000D01*
X70627000Y-55667000D01*
X70627000Y-55687000D01*
X70373000Y-55687000D01*
X70373000Y-55667000D01*
X70353000Y-55667000D01*
X70353000Y-55413000D01*
X70373000Y-55413000D01*
X70373000Y-55393000D01*
X70627000Y-55393000D01*
X70627000Y-55413000D01*
X71986217Y-55413000D01*
X72107358Y-55180974D01*
X72104709Y-55165211D01*
X72003686Y-54889081D01*
X71850733Y-54637965D01*
X71695653Y-54469288D01*
X71788634Y-54440494D01*
X71938559Y-54341700D01*
X72055025Y-54205050D01*
X72128810Y-54041363D01*
X72154072Y-53863600D01*
X72154072Y-52136400D01*
X72146008Y-52035279D01*
X72092894Y-51863766D01*
X71994100Y-51713841D01*
X71857450Y-51597375D01*
X71693763Y-51523590D01*
X71516000Y-51498328D01*
X71190341Y-51498328D01*
X71169093Y-51458365D01*
X71135941Y-51394952D01*
X71134271Y-51392875D01*
X71133020Y-51390522D01*
X71087790Y-51335065D01*
X71042999Y-51279356D01*
X71040960Y-51277645D01*
X71039274Y-51275578D01*
X70984102Y-51229936D01*
X70929375Y-51184014D01*
X70927043Y-51182732D01*
X70924987Y-51181031D01*
X70862031Y-51146991D01*
X70799396Y-51112557D01*
X70796855Y-51111751D01*
X70794512Y-51110484D01*
X70726203Y-51089339D01*
X70658013Y-51067708D01*
X70655364Y-51067411D01*
X70652819Y-51066623D01*
X70581728Y-51059151D01*
X70510611Y-51051174D01*
X70505489Y-51051138D01*
X70505306Y-51051119D01*
X70505122Y-51051136D01*
X70500000Y-51051100D01*
X67443060Y-51051100D01*
X67463180Y-50859673D01*
X67438672Y-50590370D01*
X67362322Y-50330956D01*
X67237040Y-50091313D01*
X67067596Y-49880567D01*
X66860445Y-49706747D01*
X66628163Y-49579050D01*
X66844407Y-49464071D01*
X67053964Y-49293160D01*
X67226334Y-49084801D01*
X67354950Y-48846930D01*
X67397479Y-48709538D01*
X68841049Y-48709538D01*
X68867556Y-49000810D01*
X68950134Y-49281385D01*
X69085637Y-49540578D01*
X69268903Y-49768515D01*
X69492952Y-49956515D01*
X69749251Y-50097416D01*
X70028036Y-50185852D01*
X70318688Y-50218454D01*
X70339612Y-50218600D01*
X70660388Y-50218600D01*
X70951468Y-50190059D01*
X71231460Y-50105525D01*
X71489701Y-49968216D01*
X71716353Y-49783363D01*
X71902784Y-49558006D01*
X72041892Y-49300731D01*
X72128379Y-49021335D01*
X72158951Y-48730462D01*
X72132444Y-48439190D01*
X72049866Y-48158615D01*
X71914363Y-47899422D01*
X71731097Y-47671485D01*
X71507048Y-47483485D01*
X71445128Y-47449444D01*
X71651729Y-47298486D01*
X71850733Y-47082035D01*
X72003686Y-46830919D01*
X72104709Y-46554789D01*
X72107358Y-46539026D01*
X71986217Y-46307000D01*
X70627000Y-46307000D01*
X70627000Y-46327000D01*
X70373000Y-46327000D01*
X70373000Y-46307000D01*
X69013783Y-46307000D01*
X68892642Y-46539026D01*
X68895291Y-46554789D01*
X68996314Y-46830919D01*
X69149267Y-47082035D01*
X69348271Y-47298486D01*
X69553795Y-47448657D01*
X69510299Y-47471784D01*
X69283647Y-47656637D01*
X69097216Y-47881994D01*
X68958108Y-48139269D01*
X68871621Y-48418665D01*
X68841049Y-48709538D01*
X67397479Y-48709538D01*
X67434914Y-48588608D01*
X67463180Y-48319673D01*
X67438672Y-48050370D01*
X67362322Y-47790956D01*
X67237040Y-47551313D01*
X67067596Y-47340567D01*
X66860445Y-47166747D01*
X66626562Y-47038170D01*
X66716817Y-47001499D01*
X66944628Y-46851502D01*
X67138798Y-46659943D01*
X67291866Y-46434185D01*
X67397950Y-46182902D01*
X67412133Y-46111275D01*
X67289479Y-45897000D01*
X65847000Y-45897000D01*
X65847000Y-45917000D01*
X65593000Y-45917000D01*
X65593000Y-45897000D01*
X65573000Y-45897000D01*
X65573000Y-45643000D01*
X65593000Y-45643000D01*
X65593000Y-45623000D01*
X65847000Y-45623000D01*
X65847000Y-45643000D01*
X67289479Y-45643000D01*
X67412133Y-45428725D01*
X67397950Y-45357098D01*
X67291866Y-45105815D01*
X67138798Y-44880057D01*
X66944628Y-44688498D01*
X66716817Y-44538501D01*
X66624505Y-44500994D01*
X66844407Y-44384071D01*
X67053964Y-44213160D01*
X67226334Y-44004801D01*
X67229456Y-43999026D01*
X68892642Y-43999026D01*
X68895291Y-44014789D01*
X68996314Y-44290919D01*
X69149267Y-44542035D01*
X69348271Y-44758486D01*
X69555633Y-44910000D01*
X69348271Y-45061514D01*
X69149267Y-45277965D01*
X68996314Y-45529081D01*
X68895291Y-45805211D01*
X68892642Y-45820974D01*
X69013783Y-46053000D01*
X70373000Y-46053000D01*
X70373000Y-43767000D01*
X70627000Y-43767000D01*
X70627000Y-46053000D01*
X71986217Y-46053000D01*
X72107358Y-45820974D01*
X72104709Y-45805211D01*
X72003686Y-45529081D01*
X71850733Y-45277965D01*
X71651729Y-45061514D01*
X71444367Y-44910000D01*
X71651729Y-44758486D01*
X71850733Y-44542035D01*
X72003686Y-44290919D01*
X72104709Y-44014789D01*
X72107358Y-43999026D01*
X71986217Y-43767000D01*
X70627000Y-43767000D01*
X70373000Y-43767000D01*
X69013783Y-43767000D01*
X68892642Y-43999026D01*
X67229456Y-43999026D01*
X67354950Y-43766930D01*
X67434914Y-43508608D01*
X67463180Y-43239673D01*
X67438672Y-42970370D01*
X67362322Y-42710956D01*
X67237040Y-42471313D01*
X67067596Y-42260567D01*
X66860445Y-42086747D01*
X66623478Y-41956474D01*
X66365720Y-41874708D01*
X66096990Y-41844565D01*
X66077644Y-41844430D01*
X65362356Y-41844430D01*
X65093231Y-41870818D01*
X64834356Y-41948977D01*
X64595593Y-42075929D01*
X64386036Y-42246840D01*
X64213666Y-42455199D01*
X64205663Y-42470000D01*
X62282902Y-42470000D01*
X60485442Y-40672540D01*
X60656997Y-40672540D01*
X60872597Y-40651400D01*
X61079985Y-40588786D01*
X61271262Y-40487083D01*
X61439141Y-40350164D01*
X61577229Y-40183244D01*
X61680265Y-39992682D01*
X61744326Y-39785736D01*
X61766970Y-39570289D01*
X61747336Y-39354547D01*
X61686171Y-39146727D01*
X61585805Y-38954745D01*
X61450062Y-38785914D01*
X61284110Y-38646664D01*
X61094273Y-38542300D01*
X60887779Y-38476796D01*
X60672495Y-38452648D01*
X60656997Y-38452540D01*
X60344803Y-38452540D01*
X60129203Y-38473680D01*
X60008705Y-38510060D01*
X59979000Y-38464981D01*
X59842350Y-38348515D01*
X59838231Y-38346658D01*
X59882810Y-38247763D01*
X59908072Y-38070000D01*
X59908072Y-35685000D01*
X60812242Y-35685000D01*
X60706782Y-35769792D01*
X60564396Y-35939480D01*
X60457681Y-36133594D01*
X60390702Y-36344738D01*
X60366011Y-36564871D01*
X60365900Y-36580718D01*
X60365900Y-37144362D01*
X60387516Y-37364818D01*
X60451540Y-37576877D01*
X60555534Y-37772461D01*
X60695537Y-37944122D01*
X60866216Y-38085320D01*
X61061070Y-38190677D01*
X61272677Y-38256180D01*
X61492976Y-38279334D01*
X61713578Y-38259258D01*
X61926078Y-38196716D01*
X62122384Y-38094089D01*
X62295018Y-37955288D01*
X62437404Y-37785600D01*
X62544119Y-37591486D01*
X62611098Y-37380342D01*
X62635789Y-37160209D01*
X62635900Y-37144362D01*
X62635900Y-36580718D01*
X62614284Y-36360262D01*
X62550260Y-36148203D01*
X62446266Y-35952619D01*
X62306263Y-35780958D01*
X62190270Y-35685000D01*
X62250000Y-35685000D01*
X62314145Y-35678710D01*
X62378356Y-35672867D01*
X62380662Y-35672188D01*
X62383051Y-35671954D01*
X62444723Y-35653334D01*
X62506606Y-35635121D01*
X62508736Y-35634008D01*
X62511033Y-35633314D01*
X62567886Y-35603084D01*
X62625081Y-35573184D01*
X62626955Y-35571677D01*
X62629073Y-35570551D01*
X62678986Y-35529843D01*
X62729269Y-35489414D01*
X62730813Y-35487573D01*
X62732674Y-35486056D01*
X62773766Y-35436384D01*
X62815203Y-35387002D01*
X62816360Y-35384898D01*
X62817891Y-35383047D01*
X62848541Y-35326361D01*
X62879608Y-35269850D01*
X62880335Y-35267558D01*
X62881476Y-35265448D01*
X62900524Y-35203916D01*
X62920031Y-35142420D01*
X62920299Y-35140032D01*
X62921009Y-35137738D01*
X62927746Y-35073634D01*
X62934933Y-35009564D01*
X62934965Y-35004950D01*
X62934983Y-35004782D01*
X62934968Y-35004614D01*
X62935000Y-35000000D01*
X62935000Y-34533505D01*
X62944222Y-34439453D01*
X62945982Y-34433624D01*
X63183893Y-34195713D01*
X63187323Y-34194651D01*
X63279145Y-34185000D01*
X64977782Y-34185000D01*
X64945211Y-34206763D01*
X64945211Y-34206763D01*
G37*
X64945211Y-34206763D02*
X64856763Y-34295211D01*
X64787270Y-34399215D01*
X64739403Y-34514777D01*
X64715000Y-34637458D01*
X64715000Y-35164250D01*
X64873750Y-35323000D01*
X65873000Y-35323000D01*
X65873000Y-35303000D01*
X66127000Y-35303000D01*
X66127000Y-35323000D01*
X67126250Y-35323000D01*
X67285000Y-35164250D01*
X67285000Y-34637458D01*
X67260597Y-34514777D01*
X67212730Y-34399215D01*
X67143237Y-34295211D01*
X67054789Y-34206763D01*
X67022218Y-34185000D01*
X68513996Y-34185000D01*
X68320762Y-34311449D01*
X67947074Y-34677391D01*
X67651582Y-35108946D01*
X67445541Y-35589678D01*
X67336797Y-36101274D01*
X67329495Y-36624249D01*
X67423911Y-37138682D01*
X67616450Y-37624979D01*
X67782065Y-37881963D01*
X67512701Y-37612599D01*
X67458445Y-37568032D01*
X67404675Y-37522914D01*
X67401174Y-37520989D01*
X67398085Y-37518452D01*
X67336233Y-37485287D01*
X67288072Y-37458811D01*
X67288072Y-37400000D01*
X67280008Y-37298879D01*
X67226894Y-37127366D01*
X67128100Y-36977441D01*
X66991450Y-36860975D01*
X66858396Y-36800998D01*
X66950785Y-36762730D01*
X67054789Y-36693237D01*
X67143237Y-36604789D01*
X67212730Y-36500785D01*
X67260597Y-36385223D01*
X67285000Y-36262542D01*
X67285000Y-35735750D01*
X67126250Y-35577000D01*
X66127000Y-35577000D01*
X66127000Y-35597000D01*
X65873000Y-35597000D01*
X65873000Y-35577000D01*
X64873750Y-35577000D01*
X64715000Y-35735750D01*
X64715000Y-36262542D01*
X64739403Y-36385223D01*
X64787270Y-36500785D01*
X64856763Y-36604789D01*
X64945211Y-36693237D01*
X65049215Y-36762730D01*
X65144663Y-36802266D01*
X65077366Y-36823106D01*
X64927441Y-36921900D01*
X64810975Y-37058550D01*
X64737190Y-37222237D01*
X64711928Y-37400000D01*
X64711928Y-38900000D01*
X64719992Y-39001121D01*
X64773106Y-39172634D01*
X64871900Y-39322559D01*
X65008550Y-39439025D01*
X65172237Y-39512810D01*
X65350000Y-39538072D01*
X66650000Y-39538072D01*
X66751121Y-39530008D01*
X66922634Y-39476894D01*
X67072559Y-39378100D01*
X67098344Y-39347846D01*
X68198999Y-40448502D01*
X68253290Y-40493097D01*
X68307025Y-40538186D01*
X68310525Y-40540110D01*
X68313616Y-40542649D01*
X68375501Y-40575831D01*
X68437004Y-40609643D01*
X68440814Y-40610852D01*
X68444336Y-40612740D01*
X68511504Y-40633276D01*
X68578387Y-40654492D01*
X68582354Y-40654937D01*
X68586181Y-40656107D01*
X68656099Y-40663209D01*
X68725789Y-40671026D01*
X68733594Y-40671080D01*
X68733747Y-40671096D01*
X68733890Y-40671082D01*
X68736400Y-40671100D01*
X68845928Y-40671100D01*
X68845928Y-41963600D01*
X68853992Y-42064721D01*
X68907106Y-42236234D01*
X69005900Y-42386159D01*
X69142550Y-42502625D01*
X69300272Y-42573721D01*
X69149267Y-42737965D01*
X68996314Y-42989081D01*
X68895291Y-43265211D01*
X68892642Y-43280974D01*
X69013783Y-43513000D01*
X70373000Y-43513000D01*
X70373000Y-43493000D01*
X70627000Y-43493000D01*
X70627000Y-43513000D01*
X71986217Y-43513000D01*
X72107358Y-43280974D01*
X72104709Y-43265211D01*
X72003686Y-42989081D01*
X71850733Y-42737965D01*
X71695653Y-42569288D01*
X71788634Y-42540494D01*
X71938559Y-42441700D01*
X72055025Y-42305050D01*
X72128810Y-42141363D01*
X72154072Y-41963600D01*
X72154072Y-40236400D01*
X72146008Y-40135279D01*
X72092894Y-39963766D01*
X71994100Y-39813841D01*
X71857450Y-39697375D01*
X71693763Y-39623590D01*
X71516000Y-39598328D01*
X71190341Y-39598328D01*
X71169093Y-39558365D01*
X71135941Y-39494952D01*
X71134271Y-39492875D01*
X71133020Y-39490522D01*
X71087790Y-39435065D01*
X71042999Y-39379356D01*
X71040960Y-39377645D01*
X71039274Y-39375578D01*
X70984102Y-39329936D01*
X70929375Y-39284014D01*
X70927043Y-39282732D01*
X70924987Y-39281031D01*
X70862031Y-39246991D01*
X70799396Y-39212557D01*
X70796855Y-39211751D01*
X70794512Y-39210484D01*
X70726203Y-39189339D01*
X70658013Y-39167708D01*
X70655364Y-39167411D01*
X70652819Y-39166623D01*
X70581728Y-39159151D01*
X70510611Y-39151174D01*
X70505489Y-39151138D01*
X70505306Y-39151119D01*
X70505122Y-39151136D01*
X70500000Y-39151100D01*
X69051203Y-39151100D01*
X68518366Y-38618263D01*
X68692583Y-38739347D01*
X69171864Y-38948740D01*
X69682689Y-39061052D01*
X70205600Y-39072006D01*
X70720679Y-38981183D01*
X71208309Y-38792044D01*
X71649914Y-38511793D01*
X72028674Y-38151104D01*
X72315000Y-37745212D01*
X72315000Y-73264776D01*
X72076777Y-72906222D01*
X71708235Y-72535098D01*
X71274627Y-72242626D01*
X70792469Y-72039946D01*
X70655926Y-72011918D01*
X70716081Y-71993756D01*
X70784701Y-71973560D01*
X70787064Y-71972325D01*
X70789613Y-71971555D01*
X70852735Y-71937993D01*
X70916148Y-71904841D01*
X70918225Y-71903171D01*
X70920578Y-71901920D01*
X70976035Y-71856690D01*
X71031744Y-71811899D01*
X71033455Y-71809860D01*
X71035522Y-71808174D01*
X71081164Y-71753002D01*
X71127086Y-71698275D01*
X71128368Y-71695943D01*
X71130069Y-71693887D01*
X71164109Y-71630931D01*
X71198543Y-71568296D01*
X71199349Y-71565755D01*
X71200616Y-71563412D01*
X71221761Y-71495103D01*
X71231110Y-71465631D01*
X71231460Y-71465525D01*
X71489701Y-71328216D01*
X71716353Y-71143363D01*
X71902784Y-70918006D01*
X72041892Y-70660731D01*
X72128379Y-70381335D01*
X72158951Y-70090462D01*
X72132444Y-69799190D01*
X72049866Y-69518615D01*
X71914363Y-69259422D01*
X71731097Y-69031485D01*
X71507048Y-68843485D01*
X71447413Y-68810701D01*
X71489701Y-68788216D01*
X71716353Y-68603363D01*
X71902784Y-68378006D01*
X72041892Y-68120731D01*
X72128379Y-67841335D01*
X72158951Y-67550462D01*
X72132444Y-67259190D01*
X72049866Y-66978615D01*
X71914363Y-66719422D01*
X71731097Y-66491485D01*
X71707430Y-66471626D01*
X71816785Y-66426330D01*
X71920789Y-66356837D01*
X72009237Y-66268389D01*
X72078730Y-66164385D01*
X72126597Y-66048823D01*
X72151000Y-65926142D01*
X72151000Y-65285750D01*
X71992250Y-65127000D01*
X70627000Y-65127000D01*
X70627000Y-65147000D01*
X70373000Y-65147000D01*
X70373000Y-65127000D01*
X69007750Y-65127000D01*
X68849000Y-65285750D01*
X68849000Y-65926142D01*
X68873403Y-66048823D01*
X68921270Y-66164385D01*
X68990763Y-66268389D01*
X69079211Y-66356837D01*
X69183215Y-66426330D01*
X69290727Y-66470863D01*
X69283647Y-66476637D01*
X69097216Y-66701994D01*
X68958108Y-66959269D01*
X68871621Y-67238665D01*
X68841049Y-67529538D01*
X68867556Y-67820810D01*
X68950134Y-68101385D01*
X69085637Y-68360578D01*
X69169329Y-68464669D01*
X67773899Y-69860099D01*
X67729332Y-69914355D01*
X67684214Y-69968125D01*
X67682289Y-69971626D01*
X67679752Y-69974715D01*
X67646587Y-70036567D01*
X67612757Y-70098104D01*
X67611548Y-70101916D01*
X67609661Y-70105435D01*
X67589148Y-70172531D01*
X67567908Y-70239487D01*
X67567462Y-70243459D01*
X67566294Y-70247281D01*
X67559197Y-70317149D01*
X67551374Y-70386889D01*
X67551320Y-70394694D01*
X67551304Y-70394847D01*
X67551318Y-70394990D01*
X67551300Y-70397500D01*
X67551300Y-71899198D01*
X67098384Y-72352114D01*
X66991450Y-72260975D01*
X66946573Y-72240746D01*
X67053964Y-72153160D01*
X67226334Y-71944801D01*
X67354950Y-71706930D01*
X67434914Y-71448608D01*
X67463180Y-71179673D01*
X67438672Y-70910370D01*
X67362322Y-70650956D01*
X67237040Y-70411313D01*
X67067596Y-70200567D01*
X66860445Y-70026747D01*
X66628163Y-69899050D01*
X66844407Y-69784071D01*
X67053964Y-69613160D01*
X67226334Y-69404801D01*
X67354950Y-69166930D01*
X67434914Y-68908608D01*
X67463180Y-68639673D01*
X67438672Y-68370370D01*
X67362322Y-68110956D01*
X67237040Y-67871313D01*
X67138299Y-67748503D01*
X67721401Y-67165401D01*
X67765968Y-67111145D01*
X67811086Y-67057375D01*
X67813011Y-67053874D01*
X67815548Y-67050785D01*
X67848713Y-66988933D01*
X67882543Y-66927396D01*
X67883752Y-66923584D01*
X67885639Y-66920065D01*
X67906152Y-66852969D01*
X67927392Y-66786013D01*
X67927838Y-66782041D01*
X67929006Y-66778219D01*
X67936098Y-66708395D01*
X67943926Y-66638611D01*
X67943981Y-66630796D01*
X67943995Y-66630653D01*
X67943982Y-66630520D01*
X67944000Y-66628000D01*
X67944000Y-64073858D01*
X68849000Y-64073858D01*
X68849000Y-64714250D01*
X69007750Y-64873000D01*
X70373000Y-64873000D01*
X70373000Y-63660150D01*
X70627000Y-63660150D01*
X70627000Y-64873000D01*
X71992250Y-64873000D01*
X72151000Y-64714250D01*
X72151000Y-64073858D01*
X72126597Y-63951177D01*
X72078730Y-63835615D01*
X72009237Y-63731611D01*
X71920789Y-63643163D01*
X71816785Y-63573670D01*
X71701223Y-63525803D01*
X71578542Y-63501400D01*
X70785750Y-63501400D01*
X70627000Y-63660150D01*
X70373000Y-63660150D01*
X70214250Y-63501400D01*
X69421458Y-63501400D01*
X69298777Y-63525803D01*
X69183215Y-63573670D01*
X69079211Y-63643163D01*
X68990763Y-63731611D01*
X68921270Y-63835615D01*
X68873403Y-63951177D01*
X68849000Y-64073858D01*
X67944000Y-64073858D01*
X67944000Y-60547900D01*
X67937144Y-60477973D01*
X67931030Y-60408097D01*
X67929916Y-60404264D01*
X67929526Y-60400282D01*
X67909224Y-60333038D01*
X67889649Y-60265660D01*
X67887810Y-60262112D01*
X67886655Y-60258287D01*
X67853691Y-60196290D01*
X67821389Y-60133974D01*
X67818897Y-60130853D01*
X67817020Y-60127322D01*
X67772641Y-60072907D01*
X67728852Y-60018054D01*
X67723369Y-60012494D01*
X67723274Y-60012378D01*
X67723166Y-60012289D01*
X67721401Y-60010499D01*
X67103809Y-59392907D01*
X67226334Y-59244801D01*
X67354950Y-59006930D01*
X67434914Y-58748608D01*
X67446222Y-58641024D01*
X68773699Y-59968501D01*
X68827955Y-60013068D01*
X68881725Y-60058186D01*
X68885226Y-60060111D01*
X68888315Y-60062648D01*
X68941966Y-60091415D01*
X68871621Y-60318665D01*
X68841049Y-60609538D01*
X68867556Y-60900810D01*
X68950134Y-61181385D01*
X69085637Y-61440578D01*
X69268903Y-61668515D01*
X69492952Y-61856515D01*
X69749251Y-61997416D01*
X70028036Y-62085852D01*
X70318688Y-62118454D01*
X70339612Y-62118600D01*
X70660388Y-62118600D01*
X70951468Y-62090059D01*
X71231460Y-62005525D01*
X71489701Y-61868216D01*
X71716353Y-61683363D01*
X71902784Y-61458006D01*
X72041892Y-61200731D01*
X72128379Y-60921335D01*
X72158951Y-60630462D01*
X72132444Y-60339190D01*
X72049866Y-60058615D01*
X71914363Y-59799422D01*
X71731097Y-59571485D01*
X71507048Y-59383485D01*
X71447413Y-59350701D01*
X71489701Y-59328216D01*
X71716353Y-59143363D01*
X71902784Y-58918006D01*
X72041892Y-58660731D01*
X72128379Y-58381335D01*
X72158951Y-58090462D01*
X72132444Y-57799190D01*
X72049866Y-57518615D01*
X71914363Y-57259422D01*
X71731097Y-57031485D01*
X71507048Y-56843485D01*
X71445128Y-56809444D01*
X71651729Y-56658486D01*
X71850733Y-56442035D01*
X72003686Y-56190919D01*
X72104709Y-55914789D01*
X72107358Y-55899026D01*
X71986217Y-55667000D01*
X70627000Y-55667000D01*
X70627000Y-55687000D01*
X70373000Y-55687000D01*
X70373000Y-55667000D01*
X70353000Y-55667000D01*
X70353000Y-55413000D01*
X70373000Y-55413000D01*
X70373000Y-55393000D01*
X70627000Y-55393000D01*
X70627000Y-55413000D01*
X71986217Y-55413000D01*
X72107358Y-55180974D01*
X72104709Y-55165211D01*
X72003686Y-54889081D01*
X71850733Y-54637965D01*
X71695653Y-54469288D01*
X71788634Y-54440494D01*
X71938559Y-54341700D01*
X72055025Y-54205050D01*
X72128810Y-54041363D01*
X72154072Y-53863600D01*
X72154072Y-52136400D01*
X72146008Y-52035279D01*
X72092894Y-51863766D01*
X71994100Y-51713841D01*
X71857450Y-51597375D01*
X71693763Y-51523590D01*
X71516000Y-51498328D01*
X71190341Y-51498328D01*
X71169093Y-51458365D01*
X71135941Y-51394952D01*
X71134271Y-51392875D01*
X71133020Y-51390522D01*
X71087790Y-51335065D01*
X71042999Y-51279356D01*
X71040960Y-51277645D01*
X71039274Y-51275578D01*
X70984102Y-51229936D01*
X70929375Y-51184014D01*
X70927043Y-51182732D01*
X70924987Y-51181031D01*
X70862031Y-51146991D01*
X70799396Y-51112557D01*
X70796855Y-51111751D01*
X70794512Y-51110484D01*
X70726203Y-51089339D01*
X70658013Y-51067708D01*
X70655364Y-51067411D01*
X70652819Y-51066623D01*
X70581728Y-51059151D01*
X70510611Y-51051174D01*
X70505489Y-51051138D01*
X70505306Y-51051119D01*
X70505122Y-51051136D01*
X70500000Y-51051100D01*
X67443060Y-51051100D01*
X67463180Y-50859673D01*
X67438672Y-50590370D01*
X67362322Y-50330956D01*
X67237040Y-50091313D01*
X67067596Y-49880567D01*
X66860445Y-49706747D01*
X66628163Y-49579050D01*
X66844407Y-49464071D01*
X67053964Y-49293160D01*
X67226334Y-49084801D01*
X67354950Y-48846930D01*
X67397479Y-48709538D01*
X68841049Y-48709538D01*
X68867556Y-49000810D01*
X68950134Y-49281385D01*
X69085637Y-49540578D01*
X69268903Y-49768515D01*
X69492952Y-49956515D01*
X69749251Y-50097416D01*
X70028036Y-50185852D01*
X70318688Y-50218454D01*
X70339612Y-50218600D01*
X70660388Y-50218600D01*
X70951468Y-50190059D01*
X71231460Y-50105525D01*
X71489701Y-49968216D01*
X71716353Y-49783363D01*
X71902784Y-49558006D01*
X72041892Y-49300731D01*
X72128379Y-49021335D01*
X72158951Y-48730462D01*
X72132444Y-48439190D01*
X72049866Y-48158615D01*
X71914363Y-47899422D01*
X71731097Y-47671485D01*
X71507048Y-47483485D01*
X71445128Y-47449444D01*
X71651729Y-47298486D01*
X71850733Y-47082035D01*
X72003686Y-46830919D01*
X72104709Y-46554789D01*
X72107358Y-46539026D01*
X71986217Y-46307000D01*
X70627000Y-46307000D01*
X70627000Y-46327000D01*
X70373000Y-46327000D01*
X70373000Y-46307000D01*
X69013783Y-46307000D01*
X68892642Y-46539026D01*
X68895291Y-46554789D01*
X68996314Y-46830919D01*
X69149267Y-47082035D01*
X69348271Y-47298486D01*
X69553795Y-47448657D01*
X69510299Y-47471784D01*
X69283647Y-47656637D01*
X69097216Y-47881994D01*
X68958108Y-48139269D01*
X68871621Y-48418665D01*
X68841049Y-48709538D01*
X67397479Y-48709538D01*
X67434914Y-48588608D01*
X67463180Y-48319673D01*
X67438672Y-48050370D01*
X67362322Y-47790956D01*
X67237040Y-47551313D01*
X67067596Y-47340567D01*
X66860445Y-47166747D01*
X66626562Y-47038170D01*
X66716817Y-47001499D01*
X66944628Y-46851502D01*
X67138798Y-46659943D01*
X67291866Y-46434185D01*
X67397950Y-46182902D01*
X67412133Y-46111275D01*
X67289479Y-45897000D01*
X65847000Y-45897000D01*
X65847000Y-45917000D01*
X65593000Y-45917000D01*
X65593000Y-45897000D01*
X65573000Y-45897000D01*
X65573000Y-45643000D01*
X65593000Y-45643000D01*
X65593000Y-45623000D01*
X65847000Y-45623000D01*
X65847000Y-45643000D01*
X67289479Y-45643000D01*
X67412133Y-45428725D01*
X67397950Y-45357098D01*
X67291866Y-45105815D01*
X67138798Y-44880057D01*
X66944628Y-44688498D01*
X66716817Y-44538501D01*
X66624505Y-44500994D01*
X66844407Y-44384071D01*
X67053964Y-44213160D01*
X67226334Y-44004801D01*
X67229456Y-43999026D01*
X68892642Y-43999026D01*
X68895291Y-44014789D01*
X68996314Y-44290919D01*
X69149267Y-44542035D01*
X69348271Y-44758486D01*
X69555633Y-44910000D01*
X69348271Y-45061514D01*
X69149267Y-45277965D01*
X68996314Y-45529081D01*
X68895291Y-45805211D01*
X68892642Y-45820974D01*
X69013783Y-46053000D01*
X70373000Y-46053000D01*
X70373000Y-43767000D01*
X70627000Y-43767000D01*
X70627000Y-46053000D01*
X71986217Y-46053000D01*
X72107358Y-45820974D01*
X72104709Y-45805211D01*
X72003686Y-45529081D01*
X71850733Y-45277965D01*
X71651729Y-45061514D01*
X71444367Y-44910000D01*
X71651729Y-44758486D01*
X71850733Y-44542035D01*
X72003686Y-44290919D01*
X72104709Y-44014789D01*
X72107358Y-43999026D01*
X71986217Y-43767000D01*
X70627000Y-43767000D01*
X70373000Y-43767000D01*
X69013783Y-43767000D01*
X68892642Y-43999026D01*
X67229456Y-43999026D01*
X67354950Y-43766930D01*
X67434914Y-43508608D01*
X67463180Y-43239673D01*
X67438672Y-42970370D01*
X67362322Y-42710956D01*
X67237040Y-42471313D01*
X67067596Y-42260567D01*
X66860445Y-42086747D01*
X66623478Y-41956474D01*
X66365720Y-41874708D01*
X66096990Y-41844565D01*
X66077644Y-41844430D01*
X65362356Y-41844430D01*
X65093231Y-41870818D01*
X64834356Y-41948977D01*
X64595593Y-42075929D01*
X64386036Y-42246840D01*
X64213666Y-42455199D01*
X64205663Y-42470000D01*
X62282902Y-42470000D01*
X60485442Y-40672540D01*
X60656997Y-40672540D01*
X60872597Y-40651400D01*
X61079985Y-40588786D01*
X61271262Y-40487083D01*
X61439141Y-40350164D01*
X61577229Y-40183244D01*
X61680265Y-39992682D01*
X61744326Y-39785736D01*
X61766970Y-39570289D01*
X61747336Y-39354547D01*
X61686171Y-39146727D01*
X61585805Y-38954745D01*
X61450062Y-38785914D01*
X61284110Y-38646664D01*
X61094273Y-38542300D01*
X60887779Y-38476796D01*
X60672495Y-38452648D01*
X60656997Y-38452540D01*
X60344803Y-38452540D01*
X60129203Y-38473680D01*
X60008705Y-38510060D01*
X59979000Y-38464981D01*
X59842350Y-38348515D01*
X59838231Y-38346658D01*
X59882810Y-38247763D01*
X59908072Y-38070000D01*
X59908072Y-35685000D01*
X60812242Y-35685000D01*
X60706782Y-35769792D01*
X60564396Y-35939480D01*
X60457681Y-36133594D01*
X60390702Y-36344738D01*
X60366011Y-36564871D01*
X60365900Y-36580718D01*
X60365900Y-37144362D01*
X60387516Y-37364818D01*
X60451540Y-37576877D01*
X60555534Y-37772461D01*
X60695537Y-37944122D01*
X60866216Y-38085320D01*
X61061070Y-38190677D01*
X61272677Y-38256180D01*
X61492976Y-38279334D01*
X61713578Y-38259258D01*
X61926078Y-38196716D01*
X62122384Y-38094089D01*
X62295018Y-37955288D01*
X62437404Y-37785600D01*
X62544119Y-37591486D01*
X62611098Y-37380342D01*
X62635789Y-37160209D01*
X62635900Y-37144362D01*
X62635900Y-36580718D01*
X62614284Y-36360262D01*
X62550260Y-36148203D01*
X62446266Y-35952619D01*
X62306263Y-35780958D01*
X62190270Y-35685000D01*
X62250000Y-35685000D01*
X62314145Y-35678710D01*
X62378356Y-35672867D01*
X62380662Y-35672188D01*
X62383051Y-35671954D01*
X62444723Y-35653334D01*
X62506606Y-35635121D01*
X62508736Y-35634008D01*
X62511033Y-35633314D01*
X62567886Y-35603084D01*
X62625081Y-35573184D01*
X62626955Y-35571677D01*
X62629073Y-35570551D01*
X62678986Y-35529843D01*
X62729269Y-35489414D01*
X62730813Y-35487573D01*
X62732674Y-35486056D01*
X62773766Y-35436384D01*
X62815203Y-35387002D01*
X62816360Y-35384898D01*
X62817891Y-35383047D01*
X62848541Y-35326361D01*
X62879608Y-35269850D01*
X62880335Y-35267558D01*
X62881476Y-35265448D01*
X62900524Y-35203916D01*
X62920031Y-35142420D01*
X62920299Y-35140032D01*
X62921009Y-35137738D01*
X62927746Y-35073634D01*
X62934933Y-35009564D01*
X62934965Y-35004950D01*
X62934983Y-35004782D01*
X62934968Y-35004614D01*
X62935000Y-35000000D01*
X62935000Y-34533505D01*
X62944222Y-34439453D01*
X62945982Y-34433624D01*
X63183893Y-34195713D01*
X63187323Y-34194651D01*
X63279145Y-34185000D01*
X64977782Y-34185000D01*
X64945211Y-34206763D01*
G36*
X52220325Y-58877086D02*
X52223826Y-58879011D01*
X52226915Y-58881548D01*
X52288767Y-58914713D01*
X52336928Y-58941189D01*
X52336928Y-59000000D01*
X52344992Y-59101121D01*
X52398106Y-59272634D01*
X52496900Y-59422559D01*
X52584497Y-59497217D01*
X52570211Y-59506763D01*
X52481763Y-59595211D01*
X52412270Y-59699215D01*
X52364403Y-59814777D01*
X52340000Y-59937458D01*
X52340000Y-60464250D01*
X52498750Y-60623000D01*
X53473000Y-60623000D01*
X53473000Y-60603000D01*
X53727000Y-60603000D01*
X53727000Y-60623000D01*
X53747000Y-60623000D01*
X53747000Y-60877000D01*
X53727000Y-60877000D01*
X53727000Y-61976250D01*
X53885750Y-62135000D01*
X54287542Y-62135000D01*
X54410223Y-62110597D01*
X54525785Y-62062730D01*
X54629789Y-61993237D01*
X54718237Y-61904789D01*
X54787730Y-61800785D01*
X54835597Y-61685223D01*
X54858700Y-61569077D01*
X54858700Y-63317000D01*
X54865551Y-63386877D01*
X54871669Y-63456803D01*
X54872784Y-63460641D01*
X54873174Y-63464618D01*
X54893464Y-63531821D01*
X54913051Y-63599240D01*
X54914890Y-63602788D01*
X54916045Y-63606613D01*
X54948999Y-63668591D01*
X54981310Y-63730925D01*
X54983803Y-63734048D01*
X54985680Y-63737578D01*
X55030055Y-63791987D01*
X55073848Y-63846846D01*
X55079331Y-63852406D01*
X55079426Y-63852522D01*
X55079534Y-63852611D01*
X55081299Y-63854401D01*
X55390000Y-64163102D01*
X55390000Y-64763349D01*
X55380000Y-64761928D01*
X54380000Y-64761928D01*
X54366198Y-64763029D01*
X54363148Y-64731919D01*
X54357031Y-64661997D01*
X54355916Y-64658159D01*
X54355526Y-64654182D01*
X54335246Y-64587012D01*
X54315650Y-64519561D01*
X54313809Y-64516010D01*
X54312655Y-64512187D01*
X54279710Y-64450226D01*
X54247390Y-64387875D01*
X54244897Y-64384752D01*
X54243020Y-64381222D01*
X54198645Y-64326813D01*
X54154852Y-64271954D01*
X54149369Y-64266394D01*
X54149274Y-64266278D01*
X54149166Y-64266189D01*
X54147401Y-64264399D01*
X51842123Y-61959121D01*
X51986334Y-61784801D01*
X52114950Y-61546930D01*
X52194914Y-61288608D01*
X52221490Y-61035750D01*
X52340000Y-61035750D01*
X52340000Y-61562542D01*
X52364403Y-61685223D01*
X52412270Y-61800785D01*
X52481763Y-61904789D01*
X52570211Y-61993237D01*
X52674215Y-62062730D01*
X52789777Y-62110597D01*
X52912458Y-62135000D01*
X53314250Y-62135000D01*
X53473000Y-61976250D01*
X53473000Y-60877000D01*
X52498750Y-60877000D01*
X52340000Y-61035750D01*
X52221490Y-61035750D01*
X52223180Y-61019673D01*
X52198672Y-60750370D01*
X52122322Y-60490956D01*
X51997040Y-60251313D01*
X51827596Y-60040567D01*
X51620445Y-59866747D01*
X51388163Y-59739050D01*
X51604407Y-59624071D01*
X51813964Y-59453160D01*
X51986334Y-59244801D01*
X52114950Y-59006930D01*
X52168583Y-58833669D01*
X52220325Y-58877086D01*
X52220325Y-58877086D01*
G37*
X52220325Y-58877086D02*
X52223826Y-58879011D01*
X52226915Y-58881548D01*
X52288767Y-58914713D01*
X52336928Y-58941189D01*
X52336928Y-59000000D01*
X52344992Y-59101121D01*
X52398106Y-59272634D01*
X52496900Y-59422559D01*
X52584497Y-59497217D01*
X52570211Y-59506763D01*
X52481763Y-59595211D01*
X52412270Y-59699215D01*
X52364403Y-59814777D01*
X52340000Y-59937458D01*
X52340000Y-60464250D01*
X52498750Y-60623000D01*
X53473000Y-60623000D01*
X53473000Y-60603000D01*
X53727000Y-60603000D01*
X53727000Y-60623000D01*
X53747000Y-60623000D01*
X53747000Y-60877000D01*
X53727000Y-60877000D01*
X53727000Y-61976250D01*
X53885750Y-62135000D01*
X54287542Y-62135000D01*
X54410223Y-62110597D01*
X54525785Y-62062730D01*
X54629789Y-61993237D01*
X54718237Y-61904789D01*
X54787730Y-61800785D01*
X54835597Y-61685223D01*
X54858700Y-61569077D01*
X54858700Y-63317000D01*
X54865551Y-63386877D01*
X54871669Y-63456803D01*
X54872784Y-63460641D01*
X54873174Y-63464618D01*
X54893464Y-63531821D01*
X54913051Y-63599240D01*
X54914890Y-63602788D01*
X54916045Y-63606613D01*
X54948999Y-63668591D01*
X54981310Y-63730925D01*
X54983803Y-63734048D01*
X54985680Y-63737578D01*
X55030055Y-63791987D01*
X55073848Y-63846846D01*
X55079331Y-63852406D01*
X55079426Y-63852522D01*
X55079534Y-63852611D01*
X55081299Y-63854401D01*
X55390000Y-64163102D01*
X55390000Y-64763349D01*
X55380000Y-64761928D01*
X54380000Y-64761928D01*
X54366198Y-64763029D01*
X54363148Y-64731919D01*
X54357031Y-64661997D01*
X54355916Y-64658159D01*
X54355526Y-64654182D01*
X54335246Y-64587012D01*
X54315650Y-64519561D01*
X54313809Y-64516010D01*
X54312655Y-64512187D01*
X54279710Y-64450226D01*
X54247390Y-64387875D01*
X54244897Y-64384752D01*
X54243020Y-64381222D01*
X54198645Y-64326813D01*
X54154852Y-64271954D01*
X54149369Y-64266394D01*
X54149274Y-64266278D01*
X54149166Y-64266189D01*
X54147401Y-64264399D01*
X51842123Y-61959121D01*
X51986334Y-61784801D01*
X52114950Y-61546930D01*
X52194914Y-61288608D01*
X52221490Y-61035750D01*
X52340000Y-61035750D01*
X52340000Y-61562542D01*
X52364403Y-61685223D01*
X52412270Y-61800785D01*
X52481763Y-61904789D01*
X52570211Y-61993237D01*
X52674215Y-62062730D01*
X52789777Y-62110597D01*
X52912458Y-62135000D01*
X53314250Y-62135000D01*
X53473000Y-61976250D01*
X53473000Y-60877000D01*
X52498750Y-60877000D01*
X52340000Y-61035750D01*
X52221490Y-61035750D01*
X52223180Y-61019673D01*
X52198672Y-60750370D01*
X52122322Y-60490956D01*
X51997040Y-60251313D01*
X51827596Y-60040567D01*
X51620445Y-59866747D01*
X51388163Y-59739050D01*
X51604407Y-59624071D01*
X51813964Y-59453160D01*
X51986334Y-59244801D01*
X52114950Y-59006930D01*
X52168583Y-58833669D01*
X52220325Y-58877086D01*
G36*
X52169200Y-50403900D02*
X52176051Y-50473777D01*
X52182169Y-50543703D01*
X52183284Y-50547541D01*
X52183674Y-50551518D01*
X52203964Y-50618721D01*
X52223551Y-50686140D01*
X52225390Y-50689688D01*
X52226545Y-50693513D01*
X52259499Y-50755491D01*
X52291810Y-50817825D01*
X52294303Y-50820948D01*
X52296180Y-50824478D01*
X52340555Y-50878887D01*
X52359086Y-50902101D01*
X52310975Y-50958550D01*
X52237190Y-51122237D01*
X52211928Y-51300000D01*
X52211928Y-52800000D01*
X52219992Y-52901121D01*
X52273106Y-53072634D01*
X52371900Y-53222559D01*
X52508550Y-53339025D01*
X52647142Y-53401498D01*
X52577366Y-53423106D01*
X52427441Y-53521900D01*
X52310975Y-53658550D01*
X52237190Y-53822237D01*
X52211928Y-54000000D01*
X52211928Y-55500000D01*
X52219992Y-55601121D01*
X52273106Y-55772634D01*
X52371900Y-55922559D01*
X52508550Y-56039025D01*
X52672237Y-56112810D01*
X52850000Y-56138072D01*
X54150000Y-56138072D01*
X54251121Y-56130008D01*
X54422634Y-56076894D01*
X54572559Y-55978100D01*
X54689025Y-55841450D01*
X54751180Y-55703563D01*
X54773056Y-55774204D01*
X54871850Y-55924129D01*
X55008500Y-56040595D01*
X55172187Y-56114380D01*
X55349950Y-56139642D01*
X56150050Y-56139642D01*
X56251171Y-56131578D01*
X56422684Y-56078464D01*
X56572609Y-55979670D01*
X56689075Y-55843020D01*
X56700988Y-55816592D01*
X56771850Y-55924129D01*
X56908500Y-56040595D01*
X57072187Y-56114380D01*
X57249950Y-56139642D01*
X58050050Y-56139642D01*
X58151171Y-56131578D01*
X58322684Y-56078464D01*
X58472609Y-55979670D01*
X58589075Y-55843020D01*
X58662860Y-55679333D01*
X58686924Y-55510000D01*
X58837725Y-55510000D01*
X58844992Y-55601121D01*
X58898106Y-55772634D01*
X58996900Y-55922559D01*
X59133550Y-56039025D01*
X59297237Y-56112810D01*
X59475000Y-56138072D01*
X60413270Y-56138072D01*
X61355909Y-57080711D01*
X61337190Y-57122237D01*
X61311928Y-57300000D01*
X61311928Y-58639900D01*
X60860000Y-58639900D01*
X60860000Y-58535750D01*
X60701250Y-58377000D01*
X59727000Y-58377000D01*
X59727000Y-58397000D01*
X59473000Y-58397000D01*
X59473000Y-58377000D01*
X58498750Y-58377000D01*
X58340000Y-58535750D01*
X58340000Y-58639900D01*
X57885000Y-58639900D01*
X57885000Y-58335750D01*
X57726250Y-58177000D01*
X56727000Y-58177000D01*
X56727000Y-58197000D01*
X56473000Y-58197000D01*
X56473000Y-58177000D01*
X55473750Y-58177000D01*
X55315000Y-58335750D01*
X55315000Y-58862542D01*
X55339403Y-58985223D01*
X55348709Y-59007689D01*
X55081299Y-59275099D01*
X55036732Y-59329355D01*
X54991614Y-59383125D01*
X54989689Y-59386626D01*
X54987152Y-59389715D01*
X54953987Y-59451567D01*
X54920157Y-59513104D01*
X54918948Y-59516916D01*
X54917061Y-59520435D01*
X54896548Y-59587531D01*
X54875308Y-59654487D01*
X54874862Y-59658459D01*
X54873694Y-59662281D01*
X54866597Y-59732149D01*
X54858774Y-59801889D01*
X54858720Y-59809694D01*
X54858704Y-59809847D01*
X54858718Y-59809990D01*
X54858700Y-59812500D01*
X54858700Y-59930923D01*
X54835597Y-59814777D01*
X54787730Y-59699215D01*
X54718237Y-59595211D01*
X54629789Y-59506763D01*
X54617015Y-59498227D01*
X54647559Y-59478100D01*
X54764025Y-59341450D01*
X54837810Y-59177763D01*
X54863072Y-59000000D01*
X54863072Y-57500000D01*
X54855008Y-57398879D01*
X54805020Y-57237458D01*
X55315000Y-57237458D01*
X55315000Y-57764250D01*
X55473750Y-57923000D01*
X56473000Y-57923000D01*
X56473000Y-56823750D01*
X56727000Y-56823750D01*
X56727000Y-57923000D01*
X57726250Y-57923000D01*
X57885000Y-57764250D01*
X57885000Y-57437458D01*
X58340000Y-57437458D01*
X58340000Y-57964250D01*
X58498750Y-58123000D01*
X59473000Y-58123000D01*
X59473000Y-57023750D01*
X59727000Y-57023750D01*
X59727000Y-58123000D01*
X60701250Y-58123000D01*
X60860000Y-57964250D01*
X60860000Y-57437458D01*
X60835597Y-57314777D01*
X60787730Y-57199215D01*
X60718237Y-57095211D01*
X60629789Y-57006763D01*
X60525785Y-56937270D01*
X60410223Y-56889403D01*
X60287542Y-56865000D01*
X59885750Y-56865000D01*
X59727000Y-57023750D01*
X59473000Y-57023750D01*
X59314250Y-56865000D01*
X58912458Y-56865000D01*
X58789777Y-56889403D01*
X58674215Y-56937270D01*
X58570211Y-57006763D01*
X58481763Y-57095211D01*
X58412270Y-57199215D01*
X58364403Y-57314777D01*
X58340000Y-57437458D01*
X57885000Y-57437458D01*
X57885000Y-57237458D01*
X57860597Y-57114777D01*
X57812730Y-56999215D01*
X57743237Y-56895211D01*
X57654789Y-56806763D01*
X57550785Y-56737270D01*
X57435223Y-56689403D01*
X57312542Y-56665000D01*
X56885750Y-56665000D01*
X56727000Y-56823750D01*
X56473000Y-56823750D01*
X56314250Y-56665000D01*
X55887458Y-56665000D01*
X55764777Y-56689403D01*
X55649215Y-56737270D01*
X55545211Y-56806763D01*
X55456763Y-56895211D01*
X55387270Y-56999215D01*
X55339403Y-57114777D01*
X55315000Y-57237458D01*
X54805020Y-57237458D01*
X54801894Y-57227366D01*
X54703100Y-57077441D01*
X54566450Y-56960975D01*
X54402763Y-56887190D01*
X54225000Y-56861928D01*
X52975000Y-56861928D01*
X52873879Y-56869992D01*
X52702366Y-56923106D01*
X52552441Y-57021900D01*
X52526656Y-57052154D01*
X52054055Y-56579553D01*
X52114950Y-56466930D01*
X52194914Y-56208608D01*
X52223180Y-55939673D01*
X52198672Y-55670370D01*
X52122322Y-55410956D01*
X51997040Y-55171313D01*
X51827596Y-54960567D01*
X51620445Y-54786747D01*
X51388163Y-54659050D01*
X51604407Y-54544071D01*
X51813964Y-54373160D01*
X51986334Y-54164801D01*
X52114950Y-53926930D01*
X52194914Y-53668608D01*
X52223180Y-53399673D01*
X52198672Y-53130370D01*
X52122322Y-52870956D01*
X51997040Y-52631313D01*
X51827596Y-52420567D01*
X51620445Y-52246747D01*
X51386562Y-52118170D01*
X51476817Y-52081499D01*
X51704628Y-51931502D01*
X51898798Y-51739943D01*
X52051866Y-51514185D01*
X52157950Y-51262902D01*
X52172133Y-51191275D01*
X52049479Y-50977000D01*
X50607000Y-50977000D01*
X50607000Y-50997000D01*
X50353000Y-50997000D01*
X50353000Y-50977000D01*
X50333000Y-50977000D01*
X50333000Y-50723000D01*
X50353000Y-50723000D01*
X50353000Y-50703000D01*
X50607000Y-50703000D01*
X50607000Y-50723000D01*
X52049479Y-50723000D01*
X52172133Y-50508725D01*
X52157950Y-50437098D01*
X52051866Y-50185815D01*
X51898798Y-49960057D01*
X51842090Y-49904112D01*
X52169200Y-49577002D01*
X52169200Y-50403900D01*
X52169200Y-50403900D01*
G37*
X52169200Y-50403900D02*
X52176051Y-50473777D01*
X52182169Y-50543703D01*
X52183284Y-50547541D01*
X52183674Y-50551518D01*
X52203964Y-50618721D01*
X52223551Y-50686140D01*
X52225390Y-50689688D01*
X52226545Y-50693513D01*
X52259499Y-50755491D01*
X52291810Y-50817825D01*
X52294303Y-50820948D01*
X52296180Y-50824478D01*
X52340555Y-50878887D01*
X52359086Y-50902101D01*
X52310975Y-50958550D01*
X52237190Y-51122237D01*
X52211928Y-51300000D01*
X52211928Y-52800000D01*
X52219992Y-52901121D01*
X52273106Y-53072634D01*
X52371900Y-53222559D01*
X52508550Y-53339025D01*
X52647142Y-53401498D01*
X52577366Y-53423106D01*
X52427441Y-53521900D01*
X52310975Y-53658550D01*
X52237190Y-53822237D01*
X52211928Y-54000000D01*
X52211928Y-55500000D01*
X52219992Y-55601121D01*
X52273106Y-55772634D01*
X52371900Y-55922559D01*
X52508550Y-56039025D01*
X52672237Y-56112810D01*
X52850000Y-56138072D01*
X54150000Y-56138072D01*
X54251121Y-56130008D01*
X54422634Y-56076894D01*
X54572559Y-55978100D01*
X54689025Y-55841450D01*
X54751180Y-55703563D01*
X54773056Y-55774204D01*
X54871850Y-55924129D01*
X55008500Y-56040595D01*
X55172187Y-56114380D01*
X55349950Y-56139642D01*
X56150050Y-56139642D01*
X56251171Y-56131578D01*
X56422684Y-56078464D01*
X56572609Y-55979670D01*
X56689075Y-55843020D01*
X56700988Y-55816592D01*
X56771850Y-55924129D01*
X56908500Y-56040595D01*
X57072187Y-56114380D01*
X57249950Y-56139642D01*
X58050050Y-56139642D01*
X58151171Y-56131578D01*
X58322684Y-56078464D01*
X58472609Y-55979670D01*
X58589075Y-55843020D01*
X58662860Y-55679333D01*
X58686924Y-55510000D01*
X58837725Y-55510000D01*
X58844992Y-55601121D01*
X58898106Y-55772634D01*
X58996900Y-55922559D01*
X59133550Y-56039025D01*
X59297237Y-56112810D01*
X59475000Y-56138072D01*
X60413270Y-56138072D01*
X61355909Y-57080711D01*
X61337190Y-57122237D01*
X61311928Y-57300000D01*
X61311928Y-58639900D01*
X60860000Y-58639900D01*
X60860000Y-58535750D01*
X60701250Y-58377000D01*
X59727000Y-58377000D01*
X59727000Y-58397000D01*
X59473000Y-58397000D01*
X59473000Y-58377000D01*
X58498750Y-58377000D01*
X58340000Y-58535750D01*
X58340000Y-58639900D01*
X57885000Y-58639900D01*
X57885000Y-58335750D01*
X57726250Y-58177000D01*
X56727000Y-58177000D01*
X56727000Y-58197000D01*
X56473000Y-58197000D01*
X56473000Y-58177000D01*
X55473750Y-58177000D01*
X55315000Y-58335750D01*
X55315000Y-58862542D01*
X55339403Y-58985223D01*
X55348709Y-59007689D01*
X55081299Y-59275099D01*
X55036732Y-59329355D01*
X54991614Y-59383125D01*
X54989689Y-59386626D01*
X54987152Y-59389715D01*
X54953987Y-59451567D01*
X54920157Y-59513104D01*
X54918948Y-59516916D01*
X54917061Y-59520435D01*
X54896548Y-59587531D01*
X54875308Y-59654487D01*
X54874862Y-59658459D01*
X54873694Y-59662281D01*
X54866597Y-59732149D01*
X54858774Y-59801889D01*
X54858720Y-59809694D01*
X54858704Y-59809847D01*
X54858718Y-59809990D01*
X54858700Y-59812500D01*
X54858700Y-59930923D01*
X54835597Y-59814777D01*
X54787730Y-59699215D01*
X54718237Y-59595211D01*
X54629789Y-59506763D01*
X54617015Y-59498227D01*
X54647559Y-59478100D01*
X54764025Y-59341450D01*
X54837810Y-59177763D01*
X54863072Y-59000000D01*
X54863072Y-57500000D01*
X54855008Y-57398879D01*
X54805020Y-57237458D01*
X55315000Y-57237458D01*
X55315000Y-57764250D01*
X55473750Y-57923000D01*
X56473000Y-57923000D01*
X56473000Y-56823750D01*
X56727000Y-56823750D01*
X56727000Y-57923000D01*
X57726250Y-57923000D01*
X57885000Y-57764250D01*
X57885000Y-57437458D01*
X58340000Y-57437458D01*
X58340000Y-57964250D01*
X58498750Y-58123000D01*
X59473000Y-58123000D01*
X59473000Y-57023750D01*
X59727000Y-57023750D01*
X59727000Y-58123000D01*
X60701250Y-58123000D01*
X60860000Y-57964250D01*
X60860000Y-57437458D01*
X60835597Y-57314777D01*
X60787730Y-57199215D01*
X60718237Y-57095211D01*
X60629789Y-57006763D01*
X60525785Y-56937270D01*
X60410223Y-56889403D01*
X60287542Y-56865000D01*
X59885750Y-56865000D01*
X59727000Y-57023750D01*
X59473000Y-57023750D01*
X59314250Y-56865000D01*
X58912458Y-56865000D01*
X58789777Y-56889403D01*
X58674215Y-56937270D01*
X58570211Y-57006763D01*
X58481763Y-57095211D01*
X58412270Y-57199215D01*
X58364403Y-57314777D01*
X58340000Y-57437458D01*
X57885000Y-57437458D01*
X57885000Y-57237458D01*
X57860597Y-57114777D01*
X57812730Y-56999215D01*
X57743237Y-56895211D01*
X57654789Y-56806763D01*
X57550785Y-56737270D01*
X57435223Y-56689403D01*
X57312542Y-56665000D01*
X56885750Y-56665000D01*
X56727000Y-56823750D01*
X56473000Y-56823750D01*
X56314250Y-56665000D01*
X55887458Y-56665000D01*
X55764777Y-56689403D01*
X55649215Y-56737270D01*
X55545211Y-56806763D01*
X55456763Y-56895211D01*
X55387270Y-56999215D01*
X55339403Y-57114777D01*
X55315000Y-57237458D01*
X54805020Y-57237458D01*
X54801894Y-57227366D01*
X54703100Y-57077441D01*
X54566450Y-56960975D01*
X54402763Y-56887190D01*
X54225000Y-56861928D01*
X52975000Y-56861928D01*
X52873879Y-56869992D01*
X52702366Y-56923106D01*
X52552441Y-57021900D01*
X52526656Y-57052154D01*
X52054055Y-56579553D01*
X52114950Y-56466930D01*
X52194914Y-56208608D01*
X52223180Y-55939673D01*
X52198672Y-55670370D01*
X52122322Y-55410956D01*
X51997040Y-55171313D01*
X51827596Y-54960567D01*
X51620445Y-54786747D01*
X51388163Y-54659050D01*
X51604407Y-54544071D01*
X51813964Y-54373160D01*
X51986334Y-54164801D01*
X52114950Y-53926930D01*
X52194914Y-53668608D01*
X52223180Y-53399673D01*
X52198672Y-53130370D01*
X52122322Y-52870956D01*
X51997040Y-52631313D01*
X51827596Y-52420567D01*
X51620445Y-52246747D01*
X51386562Y-52118170D01*
X51476817Y-52081499D01*
X51704628Y-51931502D01*
X51898798Y-51739943D01*
X52051866Y-51514185D01*
X52157950Y-51262902D01*
X52172133Y-51191275D01*
X52049479Y-50977000D01*
X50607000Y-50977000D01*
X50607000Y-50997000D01*
X50353000Y-50997000D01*
X50353000Y-50977000D01*
X50333000Y-50977000D01*
X50333000Y-50723000D01*
X50353000Y-50723000D01*
X50353000Y-50703000D01*
X50607000Y-50703000D01*
X50607000Y-50723000D01*
X52049479Y-50723000D01*
X52172133Y-50508725D01*
X52157950Y-50437098D01*
X52051866Y-50185815D01*
X51898798Y-49960057D01*
X51842090Y-49904112D01*
X52169200Y-49577002D01*
X52169200Y-50403900D01*
G36*
X55111910Y-48311035D02*
X55156701Y-48366744D01*
X55158740Y-48368455D01*
X55160426Y-48370522D01*
X55215598Y-48416164D01*
X55270325Y-48462086D01*
X55272657Y-48463368D01*
X55274713Y-48465069D01*
X55337669Y-48499109D01*
X55400304Y-48533543D01*
X55402845Y-48534349D01*
X55405188Y-48535616D01*
X55444254Y-48547709D01*
X55414403Y-48619777D01*
X55390000Y-48742458D01*
X55390000Y-48819250D01*
X55548750Y-48978000D01*
X56673000Y-48978000D01*
X56673000Y-48958000D01*
X56927000Y-48958000D01*
X56927000Y-48978000D01*
X56947000Y-48978000D01*
X56947000Y-49232000D01*
X56927000Y-49232000D01*
X56927000Y-49881250D01*
X57085750Y-50040000D01*
X57151900Y-50040000D01*
X57151900Y-50063430D01*
X56985750Y-50063430D01*
X56827000Y-50222180D01*
X56827000Y-51471860D01*
X56847000Y-51471860D01*
X56847000Y-51725860D01*
X56827000Y-51725860D01*
X56827000Y-51745860D01*
X56573000Y-51745860D01*
X56573000Y-51725860D01*
X55823700Y-51725860D01*
X55664950Y-51884610D01*
X55664950Y-52105051D01*
X55548833Y-52127201D01*
X55378822Y-52195890D01*
X55225391Y-52296293D01*
X55094383Y-52424586D01*
X54990789Y-52575881D01*
X54918554Y-52744416D01*
X54880431Y-52923772D01*
X54877871Y-53107117D01*
X54904087Y-53249953D01*
X54810925Y-53359260D01*
X54737140Y-53522947D01*
X54711878Y-53700710D01*
X54711878Y-53704578D01*
X54628100Y-53577441D01*
X54491450Y-53460975D01*
X54352858Y-53398502D01*
X54422634Y-53376894D01*
X54572559Y-53278100D01*
X54689025Y-53141450D01*
X54762810Y-52977763D01*
X54788072Y-52800000D01*
X54788072Y-51300000D01*
X54780008Y-51198879D01*
X54726894Y-51027366D01*
X54628100Y-50877441D01*
X54491450Y-50760975D01*
X54327763Y-50687190D01*
X54193639Y-50668130D01*
X54176496Y-50635888D01*
X55664950Y-50635888D01*
X55664950Y-51313110D01*
X55823700Y-51471860D01*
X56573000Y-51471860D01*
X56573000Y-50222180D01*
X56414250Y-50063430D01*
X56237408Y-50063430D01*
X56114727Y-50087833D01*
X55999165Y-50135700D01*
X55895161Y-50205193D01*
X55806713Y-50293641D01*
X55737220Y-50397645D01*
X55689353Y-50513207D01*
X55664950Y-50635888D01*
X54176496Y-50635888D01*
X54169712Y-50623129D01*
X54137390Y-50560774D01*
X54134895Y-50557649D01*
X54133020Y-50554122D01*
X54088663Y-50499735D01*
X54044852Y-50444854D01*
X54039369Y-50439294D01*
X54039274Y-50439178D01*
X54039166Y-50439089D01*
X54037401Y-50437299D01*
X53689200Y-50089098D01*
X53689200Y-49760050D01*
X53773000Y-49676250D01*
X53773000Y-48577000D01*
X54027000Y-48577000D01*
X54027000Y-49676250D01*
X54185750Y-49835000D01*
X54587542Y-49835000D01*
X54710223Y-49810597D01*
X54825785Y-49762730D01*
X54929789Y-49693237D01*
X55018237Y-49604789D01*
X55087730Y-49500785D01*
X55133307Y-49390750D01*
X55390000Y-49390750D01*
X55390000Y-49467542D01*
X55414403Y-49590223D01*
X55462270Y-49705785D01*
X55531763Y-49809789D01*
X55620211Y-49898237D01*
X55724215Y-49967730D01*
X55839777Y-50015597D01*
X55962458Y-50040000D01*
X56514250Y-50040000D01*
X56673000Y-49881250D01*
X56673000Y-49232000D01*
X55548750Y-49232000D01*
X55390000Y-49390750D01*
X55133307Y-49390750D01*
X55135597Y-49385223D01*
X55160000Y-49262542D01*
X55160000Y-48735750D01*
X55001250Y-48577000D01*
X54027000Y-48577000D01*
X53773000Y-48577000D01*
X53753000Y-48577000D01*
X53753000Y-48323000D01*
X53773000Y-48323000D01*
X53773000Y-48303000D01*
X54027000Y-48303000D01*
X54027000Y-48323000D01*
X55001250Y-48323000D01*
X55067575Y-48256675D01*
X55111910Y-48311035D01*
X55111910Y-48311035D01*
G37*
X55111910Y-48311035D02*
X55156701Y-48366744D01*
X55158740Y-48368455D01*
X55160426Y-48370522D01*
X55215598Y-48416164D01*
X55270325Y-48462086D01*
X55272657Y-48463368D01*
X55274713Y-48465069D01*
X55337669Y-48499109D01*
X55400304Y-48533543D01*
X55402845Y-48534349D01*
X55405188Y-48535616D01*
X55444254Y-48547709D01*
X55414403Y-48619777D01*
X55390000Y-48742458D01*
X55390000Y-48819250D01*
X55548750Y-48978000D01*
X56673000Y-48978000D01*
X56673000Y-48958000D01*
X56927000Y-48958000D01*
X56927000Y-48978000D01*
X56947000Y-48978000D01*
X56947000Y-49232000D01*
X56927000Y-49232000D01*
X56927000Y-49881250D01*
X57085750Y-50040000D01*
X57151900Y-50040000D01*
X57151900Y-50063430D01*
X56985750Y-50063430D01*
X56827000Y-50222180D01*
X56827000Y-51471860D01*
X56847000Y-51471860D01*
X56847000Y-51725860D01*
X56827000Y-51725860D01*
X56827000Y-51745860D01*
X56573000Y-51745860D01*
X56573000Y-51725860D01*
X55823700Y-51725860D01*
X55664950Y-51884610D01*
X55664950Y-52105051D01*
X55548833Y-52127201D01*
X55378822Y-52195890D01*
X55225391Y-52296293D01*
X55094383Y-52424586D01*
X54990789Y-52575881D01*
X54918554Y-52744416D01*
X54880431Y-52923772D01*
X54877871Y-53107117D01*
X54904087Y-53249953D01*
X54810925Y-53359260D01*
X54737140Y-53522947D01*
X54711878Y-53700710D01*
X54711878Y-53704578D01*
X54628100Y-53577441D01*
X54491450Y-53460975D01*
X54352858Y-53398502D01*
X54422634Y-53376894D01*
X54572559Y-53278100D01*
X54689025Y-53141450D01*
X54762810Y-52977763D01*
X54788072Y-52800000D01*
X54788072Y-51300000D01*
X54780008Y-51198879D01*
X54726894Y-51027366D01*
X54628100Y-50877441D01*
X54491450Y-50760975D01*
X54327763Y-50687190D01*
X54193639Y-50668130D01*
X54176496Y-50635888D01*
X55664950Y-50635888D01*
X55664950Y-51313110D01*
X55823700Y-51471860D01*
X56573000Y-51471860D01*
X56573000Y-50222180D01*
X56414250Y-50063430D01*
X56237408Y-50063430D01*
X56114727Y-50087833D01*
X55999165Y-50135700D01*
X55895161Y-50205193D01*
X55806713Y-50293641D01*
X55737220Y-50397645D01*
X55689353Y-50513207D01*
X55664950Y-50635888D01*
X54176496Y-50635888D01*
X54169712Y-50623129D01*
X54137390Y-50560774D01*
X54134895Y-50557649D01*
X54133020Y-50554122D01*
X54088663Y-50499735D01*
X54044852Y-50444854D01*
X54039369Y-50439294D01*
X54039274Y-50439178D01*
X54039166Y-50439089D01*
X54037401Y-50437299D01*
X53689200Y-50089098D01*
X53689200Y-49760050D01*
X53773000Y-49676250D01*
X53773000Y-48577000D01*
X54027000Y-48577000D01*
X54027000Y-49676250D01*
X54185750Y-49835000D01*
X54587542Y-49835000D01*
X54710223Y-49810597D01*
X54825785Y-49762730D01*
X54929789Y-49693237D01*
X55018237Y-49604789D01*
X55087730Y-49500785D01*
X55133307Y-49390750D01*
X55390000Y-49390750D01*
X55390000Y-49467542D01*
X55414403Y-49590223D01*
X55462270Y-49705785D01*
X55531763Y-49809789D01*
X55620211Y-49898237D01*
X55724215Y-49967730D01*
X55839777Y-50015597D01*
X55962458Y-50040000D01*
X56514250Y-50040000D01*
X56673000Y-49881250D01*
X56673000Y-49232000D01*
X55548750Y-49232000D01*
X55390000Y-49390750D01*
X55133307Y-49390750D01*
X55135597Y-49385223D01*
X55160000Y-49262542D01*
X55160000Y-48735750D01*
X55001250Y-48577000D01*
X54027000Y-48577000D01*
X53773000Y-48577000D01*
X53753000Y-48577000D01*
X53753000Y-48323000D01*
X53773000Y-48323000D01*
X53773000Y-48303000D01*
X54027000Y-48303000D01*
X54027000Y-48323000D01*
X55001250Y-48323000D01*
X55067575Y-48256675D01*
X55111910Y-48311035D01*
G36*
X60518536Y-48620898D02*
X60472614Y-48675625D01*
X60471332Y-48677957D01*
X60469631Y-48680013D01*
X60435591Y-48742969D01*
X60401157Y-48805604D01*
X60400351Y-48808145D01*
X60399084Y-48810488D01*
X60377939Y-48878797D01*
X60356308Y-48946987D01*
X60356011Y-48949636D01*
X60355223Y-48952181D01*
X60347751Y-49023272D01*
X60339774Y-49094389D01*
X60339738Y-49099511D01*
X60339719Y-49099694D01*
X60339736Y-49099878D01*
X60339700Y-49105000D01*
X60339700Y-50911050D01*
X60227000Y-51023750D01*
X60227000Y-52123000D01*
X60247000Y-52123000D01*
X60247000Y-52377000D01*
X60227000Y-52377000D01*
X60227000Y-52397000D01*
X59973000Y-52397000D01*
X59973000Y-52377000D01*
X59953000Y-52377000D01*
X59953000Y-52123000D01*
X59973000Y-52123000D01*
X59973000Y-51023750D01*
X59814250Y-50865000D01*
X59617200Y-50865000D01*
X59617200Y-49462502D01*
X60484702Y-48595000D01*
X60539960Y-48595000D01*
X60518536Y-48620898D01*
X60518536Y-48620898D01*
G37*
X60518536Y-48620898D02*
X60472614Y-48675625D01*
X60471332Y-48677957D01*
X60469631Y-48680013D01*
X60435591Y-48742969D01*
X60401157Y-48805604D01*
X60400351Y-48808145D01*
X60399084Y-48810488D01*
X60377939Y-48878797D01*
X60356308Y-48946987D01*
X60356011Y-48949636D01*
X60355223Y-48952181D01*
X60347751Y-49023272D01*
X60339774Y-49094389D01*
X60339738Y-49099511D01*
X60339719Y-49099694D01*
X60339736Y-49099878D01*
X60339700Y-49105000D01*
X60339700Y-50911050D01*
X60227000Y-51023750D01*
X60227000Y-52123000D01*
X60247000Y-52123000D01*
X60247000Y-52377000D01*
X60227000Y-52377000D01*
X60227000Y-52397000D01*
X59973000Y-52397000D01*
X59973000Y-52377000D01*
X59953000Y-52377000D01*
X59953000Y-52123000D01*
X59973000Y-52123000D01*
X59973000Y-51023750D01*
X59814250Y-50865000D01*
X59617200Y-50865000D01*
X59617200Y-49462502D01*
X60484702Y-48595000D01*
X60539960Y-48595000D01*
X60518536Y-48620898D01*
M02*
