G04 #@! TF.FileFunction,Copper,L2,Bot,Signal*
%FSLAX46Y46*%
G04 Gerber Fmt 4.6, Leading zero omitted, Abs format (unit mm)*
G04 Created by KiCad (PCBNEW 4.0.2-stable) date Vendredi 08 juillet 2016 21:03:03*
%MOMM*%
G01*
G04 APERTURE LIST*
%ADD10C,0.100000*%
%ADD11R,2.540000X2.540000*%
%ADD12C,2.540000*%
%ADD13C,4.064000*%
%ADD14O,1.250000X0.950000*%
%ADD15O,1.000000X1.550000*%
%ADD16O,2.199640X1.501140*%
%ADD17R,2.032000X1.727200*%
%ADD18O,2.032000X1.727200*%
%ADD19C,0.600000*%
%ADD20C,0.250000*%
%ADD21C,0.254000*%
G04 APERTURE END LIST*
D10*
D11*
X58000000Y-36800000D03*
D12*
X58000000Y-74620000D03*
D13*
X70000000Y-74600000D03*
X70000000Y-36400000D03*
D14*
X60500900Y-39562540D03*
X55500900Y-39562540D03*
D15*
X61500900Y-36862540D03*
X54500900Y-36862540D03*
D16*
X50480000Y-43230000D03*
X50480000Y-45770000D03*
X50480000Y-48310000D03*
X50480000Y-50850000D03*
X50480000Y-53390000D03*
X50480000Y-55930000D03*
X50480000Y-58470000D03*
X50480000Y-61010000D03*
X50480000Y-63550000D03*
X50480000Y-66090000D03*
X50480000Y-68630000D03*
X50480000Y-71170000D03*
X65720000Y-71170000D03*
X65720000Y-68630000D03*
X65720000Y-66090000D03*
X65720000Y-63550000D03*
X65720000Y-61010000D03*
X65720000Y-58470000D03*
X65720000Y-55930000D03*
X65720000Y-53390000D03*
X65720000Y-50850000D03*
X65720000Y-48310000D03*
X65720000Y-45770000D03*
X65720000Y-43230000D03*
X63180000Y-54660000D03*
X63180000Y-52120000D03*
D17*
X70500000Y-53000000D03*
D18*
X70500000Y-55540000D03*
X70500000Y-58080000D03*
X70500000Y-60620000D03*
D17*
X70500000Y-41100000D03*
D18*
X70500000Y-43640000D03*
X70500000Y-46180000D03*
X70500000Y-48720000D03*
D17*
X70500000Y-65000000D03*
D18*
X70500000Y-67540000D03*
X70500000Y-70080000D03*
D19*
X59895600Y-49029900D03*
X59381400Y-68292700D03*
X58857200Y-54076600D03*
X55067500Y-68079900D03*
X55226800Y-46268600D03*
X55814100Y-53028500D03*
D20*
X71020100Y-54188900D02*
X70500000Y-54188900D01*
X72308700Y-55477500D02*
X71020100Y-54188900D01*
X72308700Y-68271300D02*
X72308700Y-55477500D01*
X70500000Y-70080000D02*
X72308700Y-68271300D01*
X70500000Y-53000000D02*
X70500000Y-54188900D01*
X66464950Y-72354950D02*
X66675050Y-72354950D01*
X67330000Y-71700000D02*
X67840000Y-71700000D01*
X66675050Y-72354950D02*
X67330000Y-71700000D01*
X69980000Y-68732000D02*
X68962000Y-68732000D01*
X68962000Y-68732000D02*
X68960000Y-68730000D01*
X70012000Y-68732000D02*
X69980000Y-68732000D01*
X69980000Y-68732000D02*
X69708000Y-68732000D01*
X69708000Y-68732000D02*
X68690000Y-69750000D01*
X71858300Y-61620000D02*
X71760000Y-61620000D01*
X71690000Y-62621100D02*
X71700000Y-62611100D01*
X71690000Y-61690000D02*
X71690000Y-62621100D01*
X71760000Y-61620000D02*
X71690000Y-61690000D01*
X71700000Y-62611100D02*
X71700000Y-62490000D01*
X71700000Y-62490000D02*
X71700000Y-62611100D01*
X71700000Y-62611100D02*
X70500000Y-63811100D01*
X71858300Y-57567100D02*
X71858300Y-61620000D01*
X71020100Y-56728900D02*
X71858300Y-57567100D01*
X70500000Y-56728900D02*
X71020100Y-56728900D01*
X70500000Y-55540000D02*
X70500000Y-56728900D01*
X50480000Y-50850000D02*
X50480000Y-49774100D01*
X63155500Y-45770000D02*
X59895600Y-49029900D01*
X65720000Y-45770000D02*
X63155500Y-45770000D01*
X55891500Y-49774100D02*
X50480000Y-49774100D01*
X56635700Y-49029900D02*
X55891500Y-49774100D01*
X59895600Y-49029900D02*
X56635700Y-49029900D01*
X70500000Y-65000000D02*
X70500000Y-64405500D01*
X70500000Y-64405500D02*
X70500000Y-63811100D01*
X64199900Y-74620000D02*
X58000000Y-74620000D01*
X67642600Y-71177300D02*
X66464950Y-72354950D01*
X66464950Y-72354950D02*
X64199900Y-74620000D01*
X67642600Y-71101400D02*
X67642600Y-71177300D01*
X70015000Y-68729000D02*
X70012000Y-68732000D01*
X70012000Y-68732000D02*
X67642600Y-71101400D01*
X71214100Y-68729000D02*
X70015000Y-68729000D01*
X71858300Y-68084800D02*
X71214100Y-68729000D01*
X71858300Y-65763800D02*
X71858300Y-68084800D01*
X70500000Y-64405500D02*
X71858300Y-65763800D01*
X61182800Y-70094100D02*
X65720000Y-70094100D01*
X59381400Y-68292700D02*
X61182800Y-70094100D01*
X65720000Y-71170000D02*
X65720000Y-70094100D01*
X65182100Y-62474100D02*
X65720000Y-62474100D01*
X58857200Y-56149200D02*
X65182100Y-62474100D01*
X58857200Y-54076600D02*
X58857200Y-56149200D01*
X65720000Y-63550000D02*
X65720000Y-62474100D01*
X57057400Y-66090000D02*
X65720000Y-66090000D01*
X55067500Y-68079900D02*
X57057400Y-66090000D01*
X54347600Y-67360000D02*
X55067500Y-68079900D01*
X49856400Y-67360000D02*
X54347600Y-67360000D01*
X49052200Y-66555800D02*
X49856400Y-67360000D01*
X49052200Y-47802000D02*
X49052200Y-66555800D01*
X49814200Y-47040000D02*
X49052200Y-47802000D01*
X54455400Y-47040000D02*
X49814200Y-47040000D01*
X55226800Y-46268600D02*
X54455400Y-47040000D01*
X56175600Y-53390000D02*
X65720000Y-53390000D01*
X55814100Y-53028500D02*
X56175600Y-53390000D01*
X51555900Y-54854100D02*
X50480000Y-54854100D01*
X56691300Y-49718700D02*
X51555900Y-54854100D01*
X69664900Y-49718700D02*
X56691300Y-49718700D01*
X69855100Y-49908900D02*
X69664900Y-49718700D01*
X70500000Y-49908900D02*
X69855100Y-49908900D01*
X70500000Y-48720000D02*
X70500000Y-49908900D01*
X50480000Y-55930000D02*
X50480000Y-54854100D01*
X66219500Y-54854100D02*
X65720000Y-54854100D01*
X71855800Y-49217800D02*
X66219500Y-54854100D01*
X71855800Y-43124600D02*
X71855800Y-49217800D01*
X71020100Y-42288900D02*
X71855800Y-43124600D01*
X70500000Y-42288900D02*
X71020100Y-42288900D01*
X70500000Y-41100000D02*
X70500000Y-42288900D01*
X65720000Y-55930000D02*
X65720000Y-54854100D01*
X70500000Y-67540000D02*
X70500000Y-66351100D01*
X65720000Y-58470000D02*
X65720000Y-59545900D01*
X50480000Y-66090000D02*
X50480000Y-65014100D01*
X66257900Y-59545900D02*
X65720000Y-59545900D01*
X67145500Y-60433500D02*
X66257900Y-59545900D01*
X67145500Y-64820000D02*
X67145500Y-60433500D01*
X68676600Y-66351100D02*
X67145500Y-64820000D01*
X70500000Y-66351100D02*
X68676600Y-66351100D01*
X50674100Y-64820000D02*
X50480000Y-65014100D01*
X67145500Y-64820000D02*
X50674100Y-64820000D01*
D21*
G36*
X68139199Y-66888501D02*
X68193455Y-66933068D01*
X68247225Y-66978186D01*
X68250726Y-66980111D01*
X68253815Y-66982648D01*
X68315667Y-67015813D01*
X68377204Y-67049643D01*
X68381016Y-67050852D01*
X68384535Y-67052739D01*
X68451631Y-67073252D01*
X68518587Y-67094492D01*
X68522559Y-67094938D01*
X68526381Y-67096106D01*
X68596205Y-67103198D01*
X68665989Y-67111026D01*
X68673804Y-67111081D01*
X68673947Y-67111095D01*
X68674080Y-67111082D01*
X68676600Y-67111100D01*
X68911109Y-67111100D01*
X68871621Y-67238665D01*
X68841049Y-67529538D01*
X68867556Y-67820810D01*
X68950134Y-68101385D01*
X69085637Y-68360578D01*
X69268903Y-68588515D01*
X69492952Y-68776515D01*
X69552587Y-68809299D01*
X69510299Y-68831784D01*
X69283647Y-69016637D01*
X69097216Y-69241994D01*
X68958108Y-69499269D01*
X68871621Y-69778665D01*
X68841049Y-70069538D01*
X68867556Y-70360810D01*
X68950134Y-70641385D01*
X69085637Y-70900578D01*
X69268903Y-71128515D01*
X69492952Y-71316515D01*
X69749251Y-71457416D01*
X70028036Y-71545852D01*
X70318688Y-71578454D01*
X70339612Y-71578600D01*
X70660388Y-71578600D01*
X70951468Y-71550059D01*
X71231460Y-71465525D01*
X71489701Y-71328216D01*
X71716353Y-71143363D01*
X71902784Y-70918006D01*
X72041892Y-70660731D01*
X72128379Y-70381335D01*
X72158951Y-70090462D01*
X72132444Y-69799190D01*
X72069495Y-69585307D01*
X72315000Y-69339802D01*
X72315000Y-73264776D01*
X72076777Y-72906222D01*
X71708235Y-72535098D01*
X71274627Y-72242626D01*
X70792469Y-72039946D01*
X70280126Y-71934777D01*
X69757113Y-71931125D01*
X69243352Y-72029131D01*
X68758411Y-72225059D01*
X68320762Y-72511449D01*
X67947074Y-72877391D01*
X67651582Y-73308946D01*
X67445541Y-73789678D01*
X67336797Y-74301274D01*
X67329495Y-74824249D01*
X67423911Y-75338682D01*
X67616450Y-75824979D01*
X67899777Y-76264616D01*
X68263101Y-76640850D01*
X68513671Y-76815000D01*
X64627000Y-76815000D01*
X64627000Y-75250000D01*
X64618315Y-75203841D01*
X64591035Y-75161447D01*
X64549410Y-75133006D01*
X64500000Y-75123000D01*
X59837394Y-75123000D01*
X59886874Y-74942389D01*
X59913514Y-74568084D01*
X59866618Y-74195773D01*
X59747988Y-73839765D01*
X59619871Y-73600076D01*
X59327852Y-73471753D01*
X58179605Y-74620000D01*
X58193748Y-74634143D01*
X58014143Y-74813748D01*
X58000000Y-74799605D01*
X57985858Y-74813748D01*
X57806253Y-74634143D01*
X57820395Y-74620000D01*
X56672148Y-73471753D01*
X56380129Y-73600076D01*
X56212277Y-73935695D01*
X56113126Y-74297611D01*
X56086486Y-74671916D01*
X56133382Y-75044227D01*
X56159631Y-75123000D01*
X51750000Y-75123000D01*
X51703841Y-75131685D01*
X51661447Y-75158965D01*
X51633006Y-75200590D01*
X51623000Y-75250000D01*
X51623000Y-76815000D01*
X49033505Y-76815000D01*
X48939454Y-76805778D01*
X48881213Y-76788194D01*
X48827500Y-76759635D01*
X48780354Y-76721183D01*
X48741577Y-76674310D01*
X48712642Y-76620796D01*
X48694651Y-76562677D01*
X48685000Y-76470855D01*
X48685000Y-73292148D01*
X56851753Y-73292148D01*
X58000000Y-74440395D01*
X59148247Y-73292148D01*
X59019924Y-73000129D01*
X58684305Y-72832277D01*
X58322389Y-72733126D01*
X57948084Y-72706486D01*
X57575773Y-72753382D01*
X57219765Y-72872012D01*
X56980076Y-73000129D01*
X56851753Y-73292148D01*
X48685000Y-73292148D01*
X48685000Y-67263402D01*
X49110905Y-67689307D01*
X48973666Y-67855199D01*
X48845050Y-68093070D01*
X48765086Y-68351392D01*
X48736820Y-68620327D01*
X48761328Y-68889630D01*
X48837678Y-69149044D01*
X48962960Y-69388687D01*
X49132404Y-69599433D01*
X49339555Y-69773253D01*
X49571837Y-69900950D01*
X49355593Y-70015929D01*
X49146036Y-70186840D01*
X48973666Y-70395199D01*
X48845050Y-70633070D01*
X48765086Y-70891392D01*
X48736820Y-71160327D01*
X48761328Y-71429630D01*
X48837678Y-71689044D01*
X48962960Y-71928687D01*
X49132404Y-72139433D01*
X49339555Y-72313253D01*
X49576522Y-72443526D01*
X49834280Y-72525292D01*
X50103010Y-72555435D01*
X50122356Y-72555570D01*
X50837644Y-72555570D01*
X51106769Y-72529182D01*
X51365644Y-72451023D01*
X51604407Y-72324071D01*
X51813964Y-72153160D01*
X51986334Y-71944801D01*
X52114950Y-71706930D01*
X52194914Y-71448608D01*
X52223180Y-71179673D01*
X52198672Y-70910370D01*
X52122322Y-70650956D01*
X51997040Y-70411313D01*
X51827596Y-70200567D01*
X51620445Y-70026747D01*
X51388163Y-69899050D01*
X51604407Y-69784071D01*
X51813964Y-69613160D01*
X51986334Y-69404801D01*
X52114950Y-69166930D01*
X52194914Y-68908608D01*
X52223180Y-68639673D01*
X52198672Y-68370370D01*
X52124984Y-68120000D01*
X54032798Y-68120000D01*
X54144749Y-68231951D01*
X54164372Y-68338868D01*
X54231872Y-68509354D01*
X54331201Y-68663483D01*
X54458576Y-68795384D01*
X54609144Y-68900031D01*
X54777171Y-68973440D01*
X54956257Y-69012815D01*
X55139579Y-69016655D01*
X55320157Y-68984814D01*
X55491110Y-68918506D01*
X55645929Y-68820255D01*
X55778715Y-68693804D01*
X55884411Y-68543970D01*
X55958992Y-68376460D01*
X55992286Y-68229916D01*
X57372202Y-66850000D01*
X64204016Y-66850000D01*
X64372404Y-67059433D01*
X64579555Y-67233253D01*
X64811837Y-67360950D01*
X64595593Y-67475929D01*
X64386036Y-67646840D01*
X64213666Y-67855199D01*
X64085050Y-68093070D01*
X64005086Y-68351392D01*
X63976820Y-68620327D01*
X64001328Y-68889630D01*
X64077678Y-69149044D01*
X64174423Y-69334100D01*
X61497602Y-69334100D01*
X60304569Y-68141067D01*
X60280825Y-68021148D01*
X60210950Y-67851620D01*
X60109479Y-67698893D01*
X59980275Y-67568784D01*
X59828260Y-67466249D01*
X59659225Y-67395193D01*
X59479607Y-67358323D01*
X59296249Y-67357043D01*
X59116133Y-67391401D01*
X58946122Y-67460090D01*
X58792691Y-67560493D01*
X58661683Y-67688786D01*
X58558089Y-67840081D01*
X58485854Y-68008616D01*
X58447731Y-68187972D01*
X58445171Y-68371317D01*
X58478272Y-68551668D01*
X58545772Y-68722154D01*
X58645101Y-68876283D01*
X58772476Y-69008184D01*
X58923044Y-69112831D01*
X59091071Y-69186240D01*
X59230877Y-69216979D01*
X60645399Y-70631501D01*
X60699655Y-70676068D01*
X60753425Y-70721186D01*
X60756926Y-70723111D01*
X60760015Y-70725648D01*
X60821867Y-70758813D01*
X60883404Y-70792643D01*
X60887216Y-70793852D01*
X60890735Y-70795739D01*
X60957831Y-70816252D01*
X61024787Y-70837492D01*
X61028759Y-70837938D01*
X61032581Y-70839106D01*
X61102405Y-70846198D01*
X61172189Y-70854026D01*
X61180004Y-70854081D01*
X61180147Y-70854095D01*
X61180280Y-70854082D01*
X61182800Y-70854100D01*
X64016630Y-70854100D01*
X64005086Y-70891392D01*
X63976820Y-71160327D01*
X64001328Y-71429630D01*
X64077678Y-71689044D01*
X64202960Y-71928687D01*
X64372404Y-72139433D01*
X64579555Y-72313253D01*
X64816522Y-72443526D01*
X65074280Y-72525292D01*
X65343010Y-72555435D01*
X65362356Y-72555570D01*
X66077644Y-72555570D01*
X66346769Y-72529182D01*
X66605644Y-72451023D01*
X66844407Y-72324071D01*
X67053964Y-72153160D01*
X67226334Y-71944801D01*
X67354950Y-71706930D01*
X67434914Y-71448608D01*
X67463180Y-71179673D01*
X67438672Y-70910370D01*
X67362322Y-70650956D01*
X67237040Y-70411313D01*
X67067596Y-70200567D01*
X66860445Y-70026747D01*
X66628163Y-69899050D01*
X66844407Y-69784071D01*
X67053964Y-69613160D01*
X67226334Y-69404801D01*
X67354950Y-69166930D01*
X67434914Y-68908608D01*
X67463180Y-68639673D01*
X67438672Y-68370370D01*
X67362322Y-68110956D01*
X67237040Y-67871313D01*
X67067596Y-67660567D01*
X66860445Y-67486747D01*
X66628163Y-67359050D01*
X66844407Y-67244071D01*
X67053964Y-67073160D01*
X67226334Y-66864801D01*
X67354950Y-66626930D01*
X67434914Y-66368608D01*
X67452451Y-66201753D01*
X68139199Y-66888501D01*
X68139199Y-66888501D01*
G37*
X68139199Y-66888501D02*
X68193455Y-66933068D01*
X68247225Y-66978186D01*
X68250726Y-66980111D01*
X68253815Y-66982648D01*
X68315667Y-67015813D01*
X68377204Y-67049643D01*
X68381016Y-67050852D01*
X68384535Y-67052739D01*
X68451631Y-67073252D01*
X68518587Y-67094492D01*
X68522559Y-67094938D01*
X68526381Y-67096106D01*
X68596205Y-67103198D01*
X68665989Y-67111026D01*
X68673804Y-67111081D01*
X68673947Y-67111095D01*
X68674080Y-67111082D01*
X68676600Y-67111100D01*
X68911109Y-67111100D01*
X68871621Y-67238665D01*
X68841049Y-67529538D01*
X68867556Y-67820810D01*
X68950134Y-68101385D01*
X69085637Y-68360578D01*
X69268903Y-68588515D01*
X69492952Y-68776515D01*
X69552587Y-68809299D01*
X69510299Y-68831784D01*
X69283647Y-69016637D01*
X69097216Y-69241994D01*
X68958108Y-69499269D01*
X68871621Y-69778665D01*
X68841049Y-70069538D01*
X68867556Y-70360810D01*
X68950134Y-70641385D01*
X69085637Y-70900578D01*
X69268903Y-71128515D01*
X69492952Y-71316515D01*
X69749251Y-71457416D01*
X70028036Y-71545852D01*
X70318688Y-71578454D01*
X70339612Y-71578600D01*
X70660388Y-71578600D01*
X70951468Y-71550059D01*
X71231460Y-71465525D01*
X71489701Y-71328216D01*
X71716353Y-71143363D01*
X71902784Y-70918006D01*
X72041892Y-70660731D01*
X72128379Y-70381335D01*
X72158951Y-70090462D01*
X72132444Y-69799190D01*
X72069495Y-69585307D01*
X72315000Y-69339802D01*
X72315000Y-73264776D01*
X72076777Y-72906222D01*
X71708235Y-72535098D01*
X71274627Y-72242626D01*
X70792469Y-72039946D01*
X70280126Y-71934777D01*
X69757113Y-71931125D01*
X69243352Y-72029131D01*
X68758411Y-72225059D01*
X68320762Y-72511449D01*
X67947074Y-72877391D01*
X67651582Y-73308946D01*
X67445541Y-73789678D01*
X67336797Y-74301274D01*
X67329495Y-74824249D01*
X67423911Y-75338682D01*
X67616450Y-75824979D01*
X67899777Y-76264616D01*
X68263101Y-76640850D01*
X68513671Y-76815000D01*
X64627000Y-76815000D01*
X64627000Y-75250000D01*
X64618315Y-75203841D01*
X64591035Y-75161447D01*
X64549410Y-75133006D01*
X64500000Y-75123000D01*
X59837394Y-75123000D01*
X59886874Y-74942389D01*
X59913514Y-74568084D01*
X59866618Y-74195773D01*
X59747988Y-73839765D01*
X59619871Y-73600076D01*
X59327852Y-73471753D01*
X58179605Y-74620000D01*
X58193748Y-74634143D01*
X58014143Y-74813748D01*
X58000000Y-74799605D01*
X57985858Y-74813748D01*
X57806253Y-74634143D01*
X57820395Y-74620000D01*
X56672148Y-73471753D01*
X56380129Y-73600076D01*
X56212277Y-73935695D01*
X56113126Y-74297611D01*
X56086486Y-74671916D01*
X56133382Y-75044227D01*
X56159631Y-75123000D01*
X51750000Y-75123000D01*
X51703841Y-75131685D01*
X51661447Y-75158965D01*
X51633006Y-75200590D01*
X51623000Y-75250000D01*
X51623000Y-76815000D01*
X49033505Y-76815000D01*
X48939454Y-76805778D01*
X48881213Y-76788194D01*
X48827500Y-76759635D01*
X48780354Y-76721183D01*
X48741577Y-76674310D01*
X48712642Y-76620796D01*
X48694651Y-76562677D01*
X48685000Y-76470855D01*
X48685000Y-73292148D01*
X56851753Y-73292148D01*
X58000000Y-74440395D01*
X59148247Y-73292148D01*
X59019924Y-73000129D01*
X58684305Y-72832277D01*
X58322389Y-72733126D01*
X57948084Y-72706486D01*
X57575773Y-72753382D01*
X57219765Y-72872012D01*
X56980076Y-73000129D01*
X56851753Y-73292148D01*
X48685000Y-73292148D01*
X48685000Y-67263402D01*
X49110905Y-67689307D01*
X48973666Y-67855199D01*
X48845050Y-68093070D01*
X48765086Y-68351392D01*
X48736820Y-68620327D01*
X48761328Y-68889630D01*
X48837678Y-69149044D01*
X48962960Y-69388687D01*
X49132404Y-69599433D01*
X49339555Y-69773253D01*
X49571837Y-69900950D01*
X49355593Y-70015929D01*
X49146036Y-70186840D01*
X48973666Y-70395199D01*
X48845050Y-70633070D01*
X48765086Y-70891392D01*
X48736820Y-71160327D01*
X48761328Y-71429630D01*
X48837678Y-71689044D01*
X48962960Y-71928687D01*
X49132404Y-72139433D01*
X49339555Y-72313253D01*
X49576522Y-72443526D01*
X49834280Y-72525292D01*
X50103010Y-72555435D01*
X50122356Y-72555570D01*
X50837644Y-72555570D01*
X51106769Y-72529182D01*
X51365644Y-72451023D01*
X51604407Y-72324071D01*
X51813964Y-72153160D01*
X51986334Y-71944801D01*
X52114950Y-71706930D01*
X52194914Y-71448608D01*
X52223180Y-71179673D01*
X52198672Y-70910370D01*
X52122322Y-70650956D01*
X51997040Y-70411313D01*
X51827596Y-70200567D01*
X51620445Y-70026747D01*
X51388163Y-69899050D01*
X51604407Y-69784071D01*
X51813964Y-69613160D01*
X51986334Y-69404801D01*
X52114950Y-69166930D01*
X52194914Y-68908608D01*
X52223180Y-68639673D01*
X52198672Y-68370370D01*
X52124984Y-68120000D01*
X54032798Y-68120000D01*
X54144749Y-68231951D01*
X54164372Y-68338868D01*
X54231872Y-68509354D01*
X54331201Y-68663483D01*
X54458576Y-68795384D01*
X54609144Y-68900031D01*
X54777171Y-68973440D01*
X54956257Y-69012815D01*
X55139579Y-69016655D01*
X55320157Y-68984814D01*
X55491110Y-68918506D01*
X55645929Y-68820255D01*
X55778715Y-68693804D01*
X55884411Y-68543970D01*
X55958992Y-68376460D01*
X55992286Y-68229916D01*
X57372202Y-66850000D01*
X64204016Y-66850000D01*
X64372404Y-67059433D01*
X64579555Y-67233253D01*
X64811837Y-67360950D01*
X64595593Y-67475929D01*
X64386036Y-67646840D01*
X64213666Y-67855199D01*
X64085050Y-68093070D01*
X64005086Y-68351392D01*
X63976820Y-68620327D01*
X64001328Y-68889630D01*
X64077678Y-69149044D01*
X64174423Y-69334100D01*
X61497602Y-69334100D01*
X60304569Y-68141067D01*
X60280825Y-68021148D01*
X60210950Y-67851620D01*
X60109479Y-67698893D01*
X59980275Y-67568784D01*
X59828260Y-67466249D01*
X59659225Y-67395193D01*
X59479607Y-67358323D01*
X59296249Y-67357043D01*
X59116133Y-67391401D01*
X58946122Y-67460090D01*
X58792691Y-67560493D01*
X58661683Y-67688786D01*
X58558089Y-67840081D01*
X58485854Y-68008616D01*
X58447731Y-68187972D01*
X58445171Y-68371317D01*
X58478272Y-68551668D01*
X58545772Y-68722154D01*
X58645101Y-68876283D01*
X58772476Y-69008184D01*
X58923044Y-69112831D01*
X59091071Y-69186240D01*
X59230877Y-69216979D01*
X60645399Y-70631501D01*
X60699655Y-70676068D01*
X60753425Y-70721186D01*
X60756926Y-70723111D01*
X60760015Y-70725648D01*
X60821867Y-70758813D01*
X60883404Y-70792643D01*
X60887216Y-70793852D01*
X60890735Y-70795739D01*
X60957831Y-70816252D01*
X61024787Y-70837492D01*
X61028759Y-70837938D01*
X61032581Y-70839106D01*
X61102405Y-70846198D01*
X61172189Y-70854026D01*
X61180004Y-70854081D01*
X61180147Y-70854095D01*
X61180280Y-70854082D01*
X61182800Y-70854100D01*
X64016630Y-70854100D01*
X64005086Y-70891392D01*
X63976820Y-71160327D01*
X64001328Y-71429630D01*
X64077678Y-71689044D01*
X64202960Y-71928687D01*
X64372404Y-72139433D01*
X64579555Y-72313253D01*
X64816522Y-72443526D01*
X65074280Y-72525292D01*
X65343010Y-72555435D01*
X65362356Y-72555570D01*
X66077644Y-72555570D01*
X66346769Y-72529182D01*
X66605644Y-72451023D01*
X66844407Y-72324071D01*
X67053964Y-72153160D01*
X67226334Y-71944801D01*
X67354950Y-71706930D01*
X67434914Y-71448608D01*
X67463180Y-71179673D01*
X67438672Y-70910370D01*
X67362322Y-70650956D01*
X67237040Y-70411313D01*
X67067596Y-70200567D01*
X66860445Y-70026747D01*
X66628163Y-69899050D01*
X66844407Y-69784071D01*
X67053964Y-69613160D01*
X67226334Y-69404801D01*
X67354950Y-69166930D01*
X67434914Y-68908608D01*
X67463180Y-68639673D01*
X67438672Y-68370370D01*
X67362322Y-68110956D01*
X67237040Y-67871313D01*
X67067596Y-67660567D01*
X66860445Y-67486747D01*
X66628163Y-67359050D01*
X66844407Y-67244071D01*
X67053964Y-67073160D01*
X67226334Y-66864801D01*
X67354950Y-66626930D01*
X67434914Y-66368608D01*
X67452451Y-66201753D01*
X68139199Y-66888501D01*
G36*
X68845928Y-53863600D02*
X68853992Y-53964721D01*
X68907106Y-54136234D01*
X69005900Y-54286159D01*
X69142550Y-54402625D01*
X69300272Y-54473721D01*
X69149267Y-54637965D01*
X68996314Y-54889081D01*
X68895291Y-55165211D01*
X68892642Y-55180974D01*
X69013783Y-55413000D01*
X70373000Y-55413000D01*
X70373000Y-55393000D01*
X70627000Y-55393000D01*
X70627000Y-55413000D01*
X70647000Y-55413000D01*
X70647000Y-55667000D01*
X70627000Y-55667000D01*
X70627000Y-55687000D01*
X70373000Y-55687000D01*
X70373000Y-55667000D01*
X69013783Y-55667000D01*
X68892642Y-55899026D01*
X68895291Y-55914789D01*
X68996314Y-56190919D01*
X69149267Y-56442035D01*
X69348271Y-56658486D01*
X69553795Y-56808657D01*
X69510299Y-56831784D01*
X69283647Y-57016637D01*
X69097216Y-57241994D01*
X68958108Y-57499269D01*
X68871621Y-57778665D01*
X68841049Y-58069538D01*
X68867556Y-58360810D01*
X68950134Y-58641385D01*
X69085637Y-58900578D01*
X69268903Y-59128515D01*
X69492952Y-59316515D01*
X69552587Y-59349299D01*
X69510299Y-59371784D01*
X69283647Y-59556637D01*
X69097216Y-59781994D01*
X68958108Y-60039269D01*
X68871621Y-60318665D01*
X68841049Y-60609538D01*
X68867556Y-60900810D01*
X68950134Y-61181385D01*
X69085637Y-61440578D01*
X69268903Y-61668515D01*
X69492952Y-61856515D01*
X69749251Y-61997416D01*
X70028036Y-62085852D01*
X70318688Y-62118454D01*
X70339612Y-62118600D01*
X70660388Y-62118600D01*
X70951468Y-62090059D01*
X71231460Y-62005525D01*
X71489701Y-61868216D01*
X71548700Y-61820098D01*
X71548700Y-63501400D01*
X70785750Y-63501400D01*
X70627000Y-63660150D01*
X70627000Y-64873000D01*
X70647000Y-64873000D01*
X70647000Y-65127000D01*
X70627000Y-65127000D01*
X70627000Y-65147000D01*
X70373000Y-65147000D01*
X70373000Y-65127000D01*
X69007750Y-65127000D01*
X68849000Y-65285750D01*
X68849000Y-65448698D01*
X67905500Y-64505198D01*
X67905500Y-64073858D01*
X68849000Y-64073858D01*
X68849000Y-64714250D01*
X69007750Y-64873000D01*
X70373000Y-64873000D01*
X70373000Y-63660150D01*
X70214250Y-63501400D01*
X69421458Y-63501400D01*
X69298777Y-63525803D01*
X69183215Y-63573670D01*
X69079211Y-63643163D01*
X68990763Y-63731611D01*
X68921270Y-63835615D01*
X68873403Y-63951177D01*
X68849000Y-64073858D01*
X67905500Y-64073858D01*
X67905500Y-60433500D01*
X67898648Y-60363619D01*
X67892531Y-60293697D01*
X67891416Y-60289859D01*
X67891026Y-60285882D01*
X67870736Y-60218679D01*
X67851149Y-60151260D01*
X67849310Y-60147712D01*
X67848155Y-60143887D01*
X67815201Y-60081909D01*
X67782890Y-60019575D01*
X67780397Y-60016452D01*
X67778520Y-60012922D01*
X67734145Y-59958513D01*
X67690352Y-59903654D01*
X67684869Y-59898094D01*
X67684774Y-59897978D01*
X67684666Y-59897889D01*
X67682901Y-59896099D01*
X67138172Y-59351370D01*
X67226334Y-59244801D01*
X67354950Y-59006930D01*
X67434914Y-58748608D01*
X67463180Y-58479673D01*
X67438672Y-58210370D01*
X67362322Y-57950956D01*
X67237040Y-57711313D01*
X67067596Y-57500567D01*
X66860445Y-57326747D01*
X66628163Y-57199050D01*
X66844407Y-57084071D01*
X67053964Y-56913160D01*
X67226334Y-56704801D01*
X67354950Y-56466930D01*
X67434914Y-56208608D01*
X67463180Y-55939673D01*
X67438672Y-55670370D01*
X67362322Y-55410956D01*
X67237040Y-55171313D01*
X67121184Y-55027218D01*
X68845928Y-53302474D01*
X68845928Y-53863600D01*
X68845928Y-53863600D01*
G37*
X68845928Y-53863600D02*
X68853992Y-53964721D01*
X68907106Y-54136234D01*
X69005900Y-54286159D01*
X69142550Y-54402625D01*
X69300272Y-54473721D01*
X69149267Y-54637965D01*
X68996314Y-54889081D01*
X68895291Y-55165211D01*
X68892642Y-55180974D01*
X69013783Y-55413000D01*
X70373000Y-55413000D01*
X70373000Y-55393000D01*
X70627000Y-55393000D01*
X70627000Y-55413000D01*
X70647000Y-55413000D01*
X70647000Y-55667000D01*
X70627000Y-55667000D01*
X70627000Y-55687000D01*
X70373000Y-55687000D01*
X70373000Y-55667000D01*
X69013783Y-55667000D01*
X68892642Y-55899026D01*
X68895291Y-55914789D01*
X68996314Y-56190919D01*
X69149267Y-56442035D01*
X69348271Y-56658486D01*
X69553795Y-56808657D01*
X69510299Y-56831784D01*
X69283647Y-57016637D01*
X69097216Y-57241994D01*
X68958108Y-57499269D01*
X68871621Y-57778665D01*
X68841049Y-58069538D01*
X68867556Y-58360810D01*
X68950134Y-58641385D01*
X69085637Y-58900578D01*
X69268903Y-59128515D01*
X69492952Y-59316515D01*
X69552587Y-59349299D01*
X69510299Y-59371784D01*
X69283647Y-59556637D01*
X69097216Y-59781994D01*
X68958108Y-60039269D01*
X68871621Y-60318665D01*
X68841049Y-60609538D01*
X68867556Y-60900810D01*
X68950134Y-61181385D01*
X69085637Y-61440578D01*
X69268903Y-61668515D01*
X69492952Y-61856515D01*
X69749251Y-61997416D01*
X70028036Y-62085852D01*
X70318688Y-62118454D01*
X70339612Y-62118600D01*
X70660388Y-62118600D01*
X70951468Y-62090059D01*
X71231460Y-62005525D01*
X71489701Y-61868216D01*
X71548700Y-61820098D01*
X71548700Y-63501400D01*
X70785750Y-63501400D01*
X70627000Y-63660150D01*
X70627000Y-64873000D01*
X70647000Y-64873000D01*
X70647000Y-65127000D01*
X70627000Y-65127000D01*
X70627000Y-65147000D01*
X70373000Y-65147000D01*
X70373000Y-65127000D01*
X69007750Y-65127000D01*
X68849000Y-65285750D01*
X68849000Y-65448698D01*
X67905500Y-64505198D01*
X67905500Y-64073858D01*
X68849000Y-64073858D01*
X68849000Y-64714250D01*
X69007750Y-64873000D01*
X70373000Y-64873000D01*
X70373000Y-63660150D01*
X70214250Y-63501400D01*
X69421458Y-63501400D01*
X69298777Y-63525803D01*
X69183215Y-63573670D01*
X69079211Y-63643163D01*
X68990763Y-63731611D01*
X68921270Y-63835615D01*
X68873403Y-63951177D01*
X68849000Y-64073858D01*
X67905500Y-64073858D01*
X67905500Y-60433500D01*
X67898648Y-60363619D01*
X67892531Y-60293697D01*
X67891416Y-60289859D01*
X67891026Y-60285882D01*
X67870736Y-60218679D01*
X67851149Y-60151260D01*
X67849310Y-60147712D01*
X67848155Y-60143887D01*
X67815201Y-60081909D01*
X67782890Y-60019575D01*
X67780397Y-60016452D01*
X67778520Y-60012922D01*
X67734145Y-59958513D01*
X67690352Y-59903654D01*
X67684869Y-59898094D01*
X67684774Y-59897978D01*
X67684666Y-59897889D01*
X67682901Y-59896099D01*
X67138172Y-59351370D01*
X67226334Y-59244801D01*
X67354950Y-59006930D01*
X67434914Y-58748608D01*
X67463180Y-58479673D01*
X67438672Y-58210370D01*
X67362322Y-57950956D01*
X67237040Y-57711313D01*
X67067596Y-57500567D01*
X66860445Y-57326747D01*
X66628163Y-57199050D01*
X66844407Y-57084071D01*
X67053964Y-56913160D01*
X67226334Y-56704801D01*
X67354950Y-56466930D01*
X67434914Y-56208608D01*
X67463180Y-55939673D01*
X67438672Y-55670370D01*
X67362322Y-55410956D01*
X67237040Y-55171313D01*
X67121184Y-55027218D01*
X68845928Y-53302474D01*
X68845928Y-53863600D01*
G36*
X52609106Y-34198983D02*
X52714052Y-34230668D01*
X52810846Y-34282134D01*
X52895804Y-34351424D01*
X52965684Y-34435894D01*
X53017823Y-34532325D01*
X53050243Y-34637056D01*
X53065000Y-34777455D01*
X53065000Y-35000000D01*
X53071290Y-35064145D01*
X53077133Y-35128356D01*
X53077812Y-35130662D01*
X53078046Y-35133051D01*
X53096666Y-35194723D01*
X53114879Y-35256606D01*
X53115992Y-35258736D01*
X53116686Y-35261033D01*
X53146916Y-35317886D01*
X53176816Y-35375081D01*
X53178323Y-35376955D01*
X53179449Y-35379073D01*
X53220157Y-35428986D01*
X53260586Y-35479269D01*
X53262427Y-35480813D01*
X53263944Y-35482674D01*
X53313616Y-35523766D01*
X53362998Y-35565203D01*
X53365102Y-35566360D01*
X53366953Y-35567891D01*
X53423639Y-35598541D01*
X53480150Y-35629608D01*
X53482442Y-35630335D01*
X53484552Y-35631476D01*
X53546084Y-35650524D01*
X53607580Y-35670031D01*
X53609968Y-35670299D01*
X53612262Y-35671009D01*
X53676366Y-35677746D01*
X53740436Y-35684933D01*
X53745050Y-35684965D01*
X53745218Y-35684983D01*
X53745386Y-35684968D01*
X53750000Y-35685000D01*
X53812242Y-35685000D01*
X53706782Y-35769792D01*
X53564396Y-35939480D01*
X53457681Y-36133594D01*
X53390702Y-36344738D01*
X53366011Y-36564871D01*
X53365900Y-36580718D01*
X53365900Y-37144362D01*
X53387516Y-37364818D01*
X53451540Y-37576877D01*
X53555534Y-37772461D01*
X53695537Y-37944122D01*
X53866216Y-38085320D01*
X54061070Y-38190677D01*
X54272677Y-38256180D01*
X54492976Y-38279334D01*
X54713578Y-38259258D01*
X54926078Y-38196716D01*
X55122384Y-38094089D01*
X55295018Y-37955288D01*
X55437404Y-37785600D01*
X55544119Y-37591486D01*
X55611098Y-37380342D01*
X55635789Y-37160209D01*
X55635900Y-37144362D01*
X55635900Y-36580718D01*
X55614284Y-36360262D01*
X55550260Y-36148203D01*
X55446266Y-35952619D01*
X55306263Y-35780958D01*
X55190270Y-35685000D01*
X56091928Y-35685000D01*
X56091928Y-38070000D01*
X56099992Y-38171121D01*
X56153106Y-38342634D01*
X56251900Y-38492559D01*
X56388550Y-38609025D01*
X56552237Y-38682810D01*
X56730000Y-38708072D01*
X59270000Y-38708072D01*
X59371121Y-38700008D01*
X59542634Y-38646894D01*
X59692559Y-38548100D01*
X59809025Y-38411450D01*
X59882810Y-38247763D01*
X59908072Y-38070000D01*
X59908072Y-35685000D01*
X60812242Y-35685000D01*
X60706782Y-35769792D01*
X60564396Y-35939480D01*
X60457681Y-36133594D01*
X60390702Y-36344738D01*
X60366011Y-36564871D01*
X60365900Y-36580718D01*
X60365900Y-37144362D01*
X60387516Y-37364818D01*
X60451540Y-37576877D01*
X60555534Y-37772461D01*
X60695537Y-37944122D01*
X60866216Y-38085320D01*
X61061070Y-38190677D01*
X61272677Y-38256180D01*
X61492976Y-38279334D01*
X61713578Y-38259258D01*
X61926078Y-38196716D01*
X62122384Y-38094089D01*
X62295018Y-37955288D01*
X62437404Y-37785600D01*
X62544119Y-37591486D01*
X62611098Y-37380342D01*
X62635789Y-37160209D01*
X62635900Y-37144362D01*
X62635900Y-36580718D01*
X62614284Y-36360262D01*
X62550260Y-36148203D01*
X62446266Y-35952619D01*
X62306263Y-35780958D01*
X62190270Y-35685000D01*
X62250000Y-35685000D01*
X62314145Y-35678710D01*
X62378356Y-35672867D01*
X62380662Y-35672188D01*
X62383051Y-35671954D01*
X62444723Y-35653334D01*
X62506606Y-35635121D01*
X62508736Y-35634008D01*
X62511033Y-35633314D01*
X62567886Y-35603084D01*
X62625081Y-35573184D01*
X62626955Y-35571677D01*
X62629073Y-35570551D01*
X62678986Y-35529843D01*
X62729269Y-35489414D01*
X62730813Y-35487573D01*
X62732674Y-35486056D01*
X62773766Y-35436384D01*
X62815203Y-35387002D01*
X62816360Y-35384898D01*
X62817891Y-35383047D01*
X62848541Y-35326361D01*
X62879608Y-35269850D01*
X62880335Y-35267558D01*
X62881476Y-35265448D01*
X62900524Y-35203916D01*
X62920031Y-35142420D01*
X62920299Y-35140032D01*
X62921009Y-35137738D01*
X62927746Y-35073634D01*
X62934933Y-35009564D01*
X62934965Y-35004950D01*
X62934983Y-35004782D01*
X62934968Y-35004614D01*
X62935000Y-35000000D01*
X62935000Y-34533505D01*
X62944222Y-34439453D01*
X62945982Y-34433624D01*
X63183893Y-34195713D01*
X63187323Y-34194651D01*
X63279145Y-34185000D01*
X68513996Y-34185000D01*
X68320762Y-34311449D01*
X67947074Y-34677391D01*
X67651582Y-35108946D01*
X67445541Y-35589678D01*
X67336797Y-36101274D01*
X67329495Y-36624249D01*
X67423911Y-37138682D01*
X67616450Y-37624979D01*
X67899777Y-38064616D01*
X68263101Y-38440850D01*
X68692583Y-38739347D01*
X69171864Y-38948740D01*
X69682689Y-39061052D01*
X70205600Y-39072006D01*
X70720679Y-38981183D01*
X71208309Y-38792044D01*
X71649914Y-38511793D01*
X72028674Y-38151104D01*
X72315000Y-37745212D01*
X72315000Y-42508998D01*
X72072433Y-42266431D01*
X72128810Y-42141363D01*
X72154072Y-41963600D01*
X72154072Y-40236400D01*
X72146008Y-40135279D01*
X72092894Y-39963766D01*
X71994100Y-39813841D01*
X71857450Y-39697375D01*
X71693763Y-39623590D01*
X71516000Y-39598328D01*
X69484000Y-39598328D01*
X69382879Y-39606392D01*
X69211366Y-39659506D01*
X69061441Y-39758300D01*
X68944975Y-39894950D01*
X68871190Y-40058637D01*
X68845928Y-40236400D01*
X68845928Y-41963600D01*
X68853992Y-42064721D01*
X68907106Y-42236234D01*
X69005900Y-42386159D01*
X69142550Y-42502625D01*
X69300272Y-42573721D01*
X69149267Y-42737965D01*
X68996314Y-42989081D01*
X68895291Y-43265211D01*
X68892642Y-43280974D01*
X69013783Y-43513000D01*
X70373000Y-43513000D01*
X70373000Y-43493000D01*
X70627000Y-43493000D01*
X70627000Y-43513000D01*
X70647000Y-43513000D01*
X70647000Y-43767000D01*
X70627000Y-43767000D01*
X70627000Y-46053000D01*
X70647000Y-46053000D01*
X70647000Y-46307000D01*
X70627000Y-46307000D01*
X70627000Y-46327000D01*
X70373000Y-46327000D01*
X70373000Y-46307000D01*
X69013783Y-46307000D01*
X68892642Y-46539026D01*
X68895291Y-46554789D01*
X68996314Y-46830919D01*
X69149267Y-47082035D01*
X69348271Y-47298486D01*
X69553795Y-47448657D01*
X69510299Y-47471784D01*
X69283647Y-47656637D01*
X69097216Y-47881994D01*
X68958108Y-48139269D01*
X68871621Y-48418665D01*
X68841049Y-48709538D01*
X68863724Y-48958700D01*
X67294516Y-48958700D01*
X67354950Y-48846930D01*
X67434914Y-48588608D01*
X67463180Y-48319673D01*
X67438672Y-48050370D01*
X67362322Y-47790956D01*
X67237040Y-47551313D01*
X67067596Y-47340567D01*
X66860445Y-47166747D01*
X66626562Y-47038170D01*
X66716817Y-47001499D01*
X66944628Y-46851502D01*
X67138798Y-46659943D01*
X67291866Y-46434185D01*
X67397950Y-46182902D01*
X67412133Y-46111275D01*
X67289479Y-45897000D01*
X65847000Y-45897000D01*
X65847000Y-45917000D01*
X65593000Y-45917000D01*
X65593000Y-45897000D01*
X64150521Y-45897000D01*
X64027867Y-46111275D01*
X64042050Y-46182902D01*
X64148134Y-46434185D01*
X64301202Y-46659943D01*
X64495372Y-46851502D01*
X64723183Y-47001499D01*
X64815495Y-47039006D01*
X64595593Y-47155929D01*
X64386036Y-47326840D01*
X64213666Y-47535199D01*
X64085050Y-47773070D01*
X64005086Y-48031392D01*
X63976820Y-48300327D01*
X64001328Y-48569630D01*
X64077678Y-48829044D01*
X64145460Y-48958700D01*
X56691300Y-48958700D01*
X56621423Y-48965551D01*
X56551497Y-48971669D01*
X56547659Y-48972784D01*
X56543682Y-48973174D01*
X56476479Y-48993464D01*
X56409060Y-49013051D01*
X56405512Y-49014890D01*
X56401687Y-49016045D01*
X56339690Y-49049009D01*
X56277374Y-49081311D01*
X56274253Y-49083803D01*
X56270722Y-49085680D01*
X56216307Y-49130059D01*
X56161454Y-49173848D01*
X56155894Y-49179331D01*
X56155778Y-49179426D01*
X56155689Y-49179534D01*
X56153899Y-49181299D01*
X52199185Y-53136013D01*
X52198672Y-53130370D01*
X52122322Y-52870956D01*
X51997040Y-52631313D01*
X51827596Y-52420567D01*
X51620445Y-52246747D01*
X51386562Y-52118170D01*
X51476817Y-52081499D01*
X51704628Y-51931502D01*
X51898798Y-51739943D01*
X52051866Y-51514185D01*
X52157950Y-51262902D01*
X52172133Y-51191275D01*
X52049479Y-50977000D01*
X50607000Y-50977000D01*
X50607000Y-50997000D01*
X50353000Y-50997000D01*
X50353000Y-50977000D01*
X50333000Y-50977000D01*
X50333000Y-50723000D01*
X50353000Y-50723000D01*
X50353000Y-50703000D01*
X50607000Y-50703000D01*
X50607000Y-50723000D01*
X52049479Y-50723000D01*
X52172133Y-50508725D01*
X52157950Y-50437098D01*
X52051866Y-50185815D01*
X51898798Y-49960057D01*
X51704628Y-49768498D01*
X51476817Y-49618501D01*
X51384505Y-49580994D01*
X51604407Y-49464071D01*
X51813964Y-49293160D01*
X51986334Y-49084801D01*
X52114950Y-48846930D01*
X52194914Y-48588608D01*
X52223180Y-48319673D01*
X52198672Y-48050370D01*
X52124984Y-47800000D01*
X54455400Y-47800000D01*
X54525277Y-47793149D01*
X54595203Y-47787031D01*
X54599041Y-47785916D01*
X54603018Y-47785526D01*
X54670221Y-47765236D01*
X54737640Y-47745649D01*
X54741188Y-47743810D01*
X54745013Y-47742655D01*
X54806991Y-47709701D01*
X54869325Y-47677390D01*
X54872448Y-47674897D01*
X54875978Y-47673020D01*
X54930387Y-47628645D01*
X54985246Y-47584852D01*
X54990806Y-47579369D01*
X54990922Y-47579274D01*
X54991011Y-47579166D01*
X54992801Y-47577401D01*
X55378969Y-47191233D01*
X55479457Y-47173514D01*
X55650410Y-47107206D01*
X55805229Y-47008955D01*
X55938015Y-46882504D01*
X56043711Y-46732670D01*
X56118292Y-46565160D01*
X56158916Y-46386354D01*
X56161840Y-46176919D01*
X56126225Y-45997048D01*
X56056350Y-45827520D01*
X55954879Y-45674793D01*
X55825675Y-45544684D01*
X55673660Y-45442149D01*
X55504625Y-45371093D01*
X55325007Y-45334223D01*
X55141649Y-45332943D01*
X54961533Y-45367301D01*
X54791522Y-45435990D01*
X54638091Y-45536393D01*
X54507083Y-45664686D01*
X54403489Y-45815981D01*
X54331254Y-45984516D01*
X54302958Y-46117640D01*
X54140598Y-46280000D01*
X52123286Y-46280000D01*
X52194914Y-46048608D01*
X52223180Y-45779673D01*
X52198672Y-45510370D01*
X52122322Y-45250956D01*
X51997040Y-45011313D01*
X51827596Y-44800567D01*
X51620445Y-44626747D01*
X51388163Y-44499050D01*
X51604407Y-44384071D01*
X51813964Y-44213160D01*
X51986334Y-44004801D01*
X52114950Y-43766930D01*
X52194914Y-43508608D01*
X52223180Y-43239673D01*
X52221420Y-43220327D01*
X63976820Y-43220327D01*
X64001328Y-43489630D01*
X64077678Y-43749044D01*
X64202960Y-43988687D01*
X64372404Y-44199433D01*
X64579555Y-44373253D01*
X64813438Y-44501830D01*
X64723183Y-44538501D01*
X64495372Y-44688498D01*
X64301202Y-44880057D01*
X64148134Y-45105815D01*
X64042050Y-45357098D01*
X64027867Y-45428725D01*
X64150521Y-45643000D01*
X65593000Y-45643000D01*
X65593000Y-45623000D01*
X65847000Y-45623000D01*
X65847000Y-45643000D01*
X67289479Y-45643000D01*
X67412133Y-45428725D01*
X67397950Y-45357098D01*
X67291866Y-45105815D01*
X67138798Y-44880057D01*
X66944628Y-44688498D01*
X66716817Y-44538501D01*
X66624505Y-44500994D01*
X66844407Y-44384071D01*
X67053964Y-44213160D01*
X67226334Y-44004801D01*
X67229456Y-43999026D01*
X68892642Y-43999026D01*
X68895291Y-44014789D01*
X68996314Y-44290919D01*
X69149267Y-44542035D01*
X69348271Y-44758486D01*
X69555633Y-44910000D01*
X69348271Y-45061514D01*
X69149267Y-45277965D01*
X68996314Y-45529081D01*
X68895291Y-45805211D01*
X68892642Y-45820974D01*
X69013783Y-46053000D01*
X70373000Y-46053000D01*
X70373000Y-43767000D01*
X69013783Y-43767000D01*
X68892642Y-43999026D01*
X67229456Y-43999026D01*
X67354950Y-43766930D01*
X67434914Y-43508608D01*
X67463180Y-43239673D01*
X67438672Y-42970370D01*
X67362322Y-42710956D01*
X67237040Y-42471313D01*
X67067596Y-42260567D01*
X66860445Y-42086747D01*
X66623478Y-41956474D01*
X66365720Y-41874708D01*
X66096990Y-41844565D01*
X66077644Y-41844430D01*
X65362356Y-41844430D01*
X65093231Y-41870818D01*
X64834356Y-41948977D01*
X64595593Y-42075929D01*
X64386036Y-42246840D01*
X64213666Y-42455199D01*
X64085050Y-42693070D01*
X64005086Y-42951392D01*
X63976820Y-43220327D01*
X52221420Y-43220327D01*
X52198672Y-42970370D01*
X52122322Y-42710956D01*
X51997040Y-42471313D01*
X51827596Y-42260567D01*
X51620445Y-42086747D01*
X51383478Y-41956474D01*
X51125720Y-41874708D01*
X50856990Y-41844565D01*
X50837644Y-41844430D01*
X50122356Y-41844430D01*
X49853231Y-41870818D01*
X49594356Y-41948977D01*
X49355593Y-42075929D01*
X49146036Y-42246840D01*
X48973666Y-42455199D01*
X48845050Y-42693070D01*
X48765086Y-42951392D01*
X48736820Y-43220327D01*
X48761328Y-43489630D01*
X48837678Y-43749044D01*
X48962960Y-43988687D01*
X49132404Y-44199433D01*
X49339555Y-44373253D01*
X49571837Y-44500950D01*
X49355593Y-44615929D01*
X49146036Y-44786840D01*
X48973666Y-44995199D01*
X48845050Y-45233070D01*
X48765086Y-45491392D01*
X48736820Y-45760327D01*
X48761328Y-46029630D01*
X48837678Y-46289044D01*
X48962960Y-46528687D01*
X49091206Y-46688192D01*
X48685000Y-47094398D01*
X48685000Y-39554791D01*
X54234830Y-39554791D01*
X54254464Y-39770533D01*
X54315629Y-39978353D01*
X54415995Y-40170335D01*
X54551738Y-40339166D01*
X54717690Y-40478416D01*
X54907527Y-40582780D01*
X55114021Y-40648284D01*
X55329305Y-40672432D01*
X55344803Y-40672540D01*
X55656997Y-40672540D01*
X55872597Y-40651400D01*
X56079985Y-40588786D01*
X56271262Y-40487083D01*
X56439141Y-40350164D01*
X56577229Y-40183244D01*
X56680265Y-39992682D01*
X56744326Y-39785736D01*
X56766970Y-39570289D01*
X56765560Y-39554791D01*
X59234830Y-39554791D01*
X59254464Y-39770533D01*
X59315629Y-39978353D01*
X59415995Y-40170335D01*
X59551738Y-40339166D01*
X59717690Y-40478416D01*
X59907527Y-40582780D01*
X60114021Y-40648284D01*
X60329305Y-40672432D01*
X60344803Y-40672540D01*
X60656997Y-40672540D01*
X60872597Y-40651400D01*
X61079985Y-40588786D01*
X61271262Y-40487083D01*
X61439141Y-40350164D01*
X61577229Y-40183244D01*
X61680265Y-39992682D01*
X61744326Y-39785736D01*
X61766970Y-39570289D01*
X61747336Y-39354547D01*
X61686171Y-39146727D01*
X61585805Y-38954745D01*
X61450062Y-38785914D01*
X61284110Y-38646664D01*
X61094273Y-38542300D01*
X60887779Y-38476796D01*
X60672495Y-38452648D01*
X60656997Y-38452540D01*
X60344803Y-38452540D01*
X60129203Y-38473680D01*
X59921815Y-38536294D01*
X59730538Y-38637997D01*
X59562659Y-38774916D01*
X59424571Y-38941836D01*
X59321535Y-39132398D01*
X59257474Y-39339344D01*
X59234830Y-39554791D01*
X56765560Y-39554791D01*
X56747336Y-39354547D01*
X56686171Y-39146727D01*
X56585805Y-38954745D01*
X56450062Y-38785914D01*
X56284110Y-38646664D01*
X56094273Y-38542300D01*
X55887779Y-38476796D01*
X55672495Y-38452648D01*
X55656997Y-38452540D01*
X55344803Y-38452540D01*
X55129203Y-38473680D01*
X54921815Y-38536294D01*
X54730538Y-38637997D01*
X54562659Y-38774916D01*
X54424571Y-38941836D01*
X54321535Y-39132398D01*
X54257474Y-39339344D01*
X54234830Y-39554791D01*
X48685000Y-39554791D01*
X48685000Y-37881211D01*
X48841709Y-38043488D01*
X49103392Y-38225362D01*
X49395418Y-38352945D01*
X49706663Y-38421377D01*
X50025272Y-38428051D01*
X50339109Y-38372713D01*
X50636221Y-38257470D01*
X50905291Y-38086714D01*
X51136069Y-37866946D01*
X51319766Y-37606539D01*
X51449385Y-37315412D01*
X51519987Y-37004652D01*
X51525070Y-36640660D01*
X51463172Y-36328051D01*
X51341732Y-36033417D01*
X51165378Y-35767983D01*
X50940826Y-35541857D01*
X50676629Y-35363654D01*
X50382851Y-35240161D01*
X50070681Y-35176082D01*
X49752009Y-35173857D01*
X49438975Y-35233572D01*
X49143501Y-35352951D01*
X48876842Y-35527448D01*
X48685000Y-35715313D01*
X48685000Y-34533505D01*
X48694222Y-34439453D01*
X48711805Y-34381214D01*
X48740366Y-34327499D01*
X48778816Y-34280354D01*
X48825691Y-34241576D01*
X48879204Y-34212642D01*
X48937323Y-34194651D01*
X49029145Y-34185000D01*
X52466496Y-34185000D01*
X52609106Y-34198983D01*
X52609106Y-34198983D01*
G37*
X52609106Y-34198983D02*
X52714052Y-34230668D01*
X52810846Y-34282134D01*
X52895804Y-34351424D01*
X52965684Y-34435894D01*
X53017823Y-34532325D01*
X53050243Y-34637056D01*
X53065000Y-34777455D01*
X53065000Y-35000000D01*
X53071290Y-35064145D01*
X53077133Y-35128356D01*
X53077812Y-35130662D01*
X53078046Y-35133051D01*
X53096666Y-35194723D01*
X53114879Y-35256606D01*
X53115992Y-35258736D01*
X53116686Y-35261033D01*
X53146916Y-35317886D01*
X53176816Y-35375081D01*
X53178323Y-35376955D01*
X53179449Y-35379073D01*
X53220157Y-35428986D01*
X53260586Y-35479269D01*
X53262427Y-35480813D01*
X53263944Y-35482674D01*
X53313616Y-35523766D01*
X53362998Y-35565203D01*
X53365102Y-35566360D01*
X53366953Y-35567891D01*
X53423639Y-35598541D01*
X53480150Y-35629608D01*
X53482442Y-35630335D01*
X53484552Y-35631476D01*
X53546084Y-35650524D01*
X53607580Y-35670031D01*
X53609968Y-35670299D01*
X53612262Y-35671009D01*
X53676366Y-35677746D01*
X53740436Y-35684933D01*
X53745050Y-35684965D01*
X53745218Y-35684983D01*
X53745386Y-35684968D01*
X53750000Y-35685000D01*
X53812242Y-35685000D01*
X53706782Y-35769792D01*
X53564396Y-35939480D01*
X53457681Y-36133594D01*
X53390702Y-36344738D01*
X53366011Y-36564871D01*
X53365900Y-36580718D01*
X53365900Y-37144362D01*
X53387516Y-37364818D01*
X53451540Y-37576877D01*
X53555534Y-37772461D01*
X53695537Y-37944122D01*
X53866216Y-38085320D01*
X54061070Y-38190677D01*
X54272677Y-38256180D01*
X54492976Y-38279334D01*
X54713578Y-38259258D01*
X54926078Y-38196716D01*
X55122384Y-38094089D01*
X55295018Y-37955288D01*
X55437404Y-37785600D01*
X55544119Y-37591486D01*
X55611098Y-37380342D01*
X55635789Y-37160209D01*
X55635900Y-37144362D01*
X55635900Y-36580718D01*
X55614284Y-36360262D01*
X55550260Y-36148203D01*
X55446266Y-35952619D01*
X55306263Y-35780958D01*
X55190270Y-35685000D01*
X56091928Y-35685000D01*
X56091928Y-38070000D01*
X56099992Y-38171121D01*
X56153106Y-38342634D01*
X56251900Y-38492559D01*
X56388550Y-38609025D01*
X56552237Y-38682810D01*
X56730000Y-38708072D01*
X59270000Y-38708072D01*
X59371121Y-38700008D01*
X59542634Y-38646894D01*
X59692559Y-38548100D01*
X59809025Y-38411450D01*
X59882810Y-38247763D01*
X59908072Y-38070000D01*
X59908072Y-35685000D01*
X60812242Y-35685000D01*
X60706782Y-35769792D01*
X60564396Y-35939480D01*
X60457681Y-36133594D01*
X60390702Y-36344738D01*
X60366011Y-36564871D01*
X60365900Y-36580718D01*
X60365900Y-37144362D01*
X60387516Y-37364818D01*
X60451540Y-37576877D01*
X60555534Y-37772461D01*
X60695537Y-37944122D01*
X60866216Y-38085320D01*
X61061070Y-38190677D01*
X61272677Y-38256180D01*
X61492976Y-38279334D01*
X61713578Y-38259258D01*
X61926078Y-38196716D01*
X62122384Y-38094089D01*
X62295018Y-37955288D01*
X62437404Y-37785600D01*
X62544119Y-37591486D01*
X62611098Y-37380342D01*
X62635789Y-37160209D01*
X62635900Y-37144362D01*
X62635900Y-36580718D01*
X62614284Y-36360262D01*
X62550260Y-36148203D01*
X62446266Y-35952619D01*
X62306263Y-35780958D01*
X62190270Y-35685000D01*
X62250000Y-35685000D01*
X62314145Y-35678710D01*
X62378356Y-35672867D01*
X62380662Y-35672188D01*
X62383051Y-35671954D01*
X62444723Y-35653334D01*
X62506606Y-35635121D01*
X62508736Y-35634008D01*
X62511033Y-35633314D01*
X62567886Y-35603084D01*
X62625081Y-35573184D01*
X62626955Y-35571677D01*
X62629073Y-35570551D01*
X62678986Y-35529843D01*
X62729269Y-35489414D01*
X62730813Y-35487573D01*
X62732674Y-35486056D01*
X62773766Y-35436384D01*
X62815203Y-35387002D01*
X62816360Y-35384898D01*
X62817891Y-35383047D01*
X62848541Y-35326361D01*
X62879608Y-35269850D01*
X62880335Y-35267558D01*
X62881476Y-35265448D01*
X62900524Y-35203916D01*
X62920031Y-35142420D01*
X62920299Y-35140032D01*
X62921009Y-35137738D01*
X62927746Y-35073634D01*
X62934933Y-35009564D01*
X62934965Y-35004950D01*
X62934983Y-35004782D01*
X62934968Y-35004614D01*
X62935000Y-35000000D01*
X62935000Y-34533505D01*
X62944222Y-34439453D01*
X62945982Y-34433624D01*
X63183893Y-34195713D01*
X63187323Y-34194651D01*
X63279145Y-34185000D01*
X68513996Y-34185000D01*
X68320762Y-34311449D01*
X67947074Y-34677391D01*
X67651582Y-35108946D01*
X67445541Y-35589678D01*
X67336797Y-36101274D01*
X67329495Y-36624249D01*
X67423911Y-37138682D01*
X67616450Y-37624979D01*
X67899777Y-38064616D01*
X68263101Y-38440850D01*
X68692583Y-38739347D01*
X69171864Y-38948740D01*
X69682689Y-39061052D01*
X70205600Y-39072006D01*
X70720679Y-38981183D01*
X71208309Y-38792044D01*
X71649914Y-38511793D01*
X72028674Y-38151104D01*
X72315000Y-37745212D01*
X72315000Y-42508998D01*
X72072433Y-42266431D01*
X72128810Y-42141363D01*
X72154072Y-41963600D01*
X72154072Y-40236400D01*
X72146008Y-40135279D01*
X72092894Y-39963766D01*
X71994100Y-39813841D01*
X71857450Y-39697375D01*
X71693763Y-39623590D01*
X71516000Y-39598328D01*
X69484000Y-39598328D01*
X69382879Y-39606392D01*
X69211366Y-39659506D01*
X69061441Y-39758300D01*
X68944975Y-39894950D01*
X68871190Y-40058637D01*
X68845928Y-40236400D01*
X68845928Y-41963600D01*
X68853992Y-42064721D01*
X68907106Y-42236234D01*
X69005900Y-42386159D01*
X69142550Y-42502625D01*
X69300272Y-42573721D01*
X69149267Y-42737965D01*
X68996314Y-42989081D01*
X68895291Y-43265211D01*
X68892642Y-43280974D01*
X69013783Y-43513000D01*
X70373000Y-43513000D01*
X70373000Y-43493000D01*
X70627000Y-43493000D01*
X70627000Y-43513000D01*
X70647000Y-43513000D01*
X70647000Y-43767000D01*
X70627000Y-43767000D01*
X70627000Y-46053000D01*
X70647000Y-46053000D01*
X70647000Y-46307000D01*
X70627000Y-46307000D01*
X70627000Y-46327000D01*
X70373000Y-46327000D01*
X70373000Y-46307000D01*
X69013783Y-46307000D01*
X68892642Y-46539026D01*
X68895291Y-46554789D01*
X68996314Y-46830919D01*
X69149267Y-47082035D01*
X69348271Y-47298486D01*
X69553795Y-47448657D01*
X69510299Y-47471784D01*
X69283647Y-47656637D01*
X69097216Y-47881994D01*
X68958108Y-48139269D01*
X68871621Y-48418665D01*
X68841049Y-48709538D01*
X68863724Y-48958700D01*
X67294516Y-48958700D01*
X67354950Y-48846930D01*
X67434914Y-48588608D01*
X67463180Y-48319673D01*
X67438672Y-48050370D01*
X67362322Y-47790956D01*
X67237040Y-47551313D01*
X67067596Y-47340567D01*
X66860445Y-47166747D01*
X66626562Y-47038170D01*
X66716817Y-47001499D01*
X66944628Y-46851502D01*
X67138798Y-46659943D01*
X67291866Y-46434185D01*
X67397950Y-46182902D01*
X67412133Y-46111275D01*
X67289479Y-45897000D01*
X65847000Y-45897000D01*
X65847000Y-45917000D01*
X65593000Y-45917000D01*
X65593000Y-45897000D01*
X64150521Y-45897000D01*
X64027867Y-46111275D01*
X64042050Y-46182902D01*
X64148134Y-46434185D01*
X64301202Y-46659943D01*
X64495372Y-46851502D01*
X64723183Y-47001499D01*
X64815495Y-47039006D01*
X64595593Y-47155929D01*
X64386036Y-47326840D01*
X64213666Y-47535199D01*
X64085050Y-47773070D01*
X64005086Y-48031392D01*
X63976820Y-48300327D01*
X64001328Y-48569630D01*
X64077678Y-48829044D01*
X64145460Y-48958700D01*
X56691300Y-48958700D01*
X56621423Y-48965551D01*
X56551497Y-48971669D01*
X56547659Y-48972784D01*
X56543682Y-48973174D01*
X56476479Y-48993464D01*
X56409060Y-49013051D01*
X56405512Y-49014890D01*
X56401687Y-49016045D01*
X56339690Y-49049009D01*
X56277374Y-49081311D01*
X56274253Y-49083803D01*
X56270722Y-49085680D01*
X56216307Y-49130059D01*
X56161454Y-49173848D01*
X56155894Y-49179331D01*
X56155778Y-49179426D01*
X56155689Y-49179534D01*
X56153899Y-49181299D01*
X52199185Y-53136013D01*
X52198672Y-53130370D01*
X52122322Y-52870956D01*
X51997040Y-52631313D01*
X51827596Y-52420567D01*
X51620445Y-52246747D01*
X51386562Y-52118170D01*
X51476817Y-52081499D01*
X51704628Y-51931502D01*
X51898798Y-51739943D01*
X52051866Y-51514185D01*
X52157950Y-51262902D01*
X52172133Y-51191275D01*
X52049479Y-50977000D01*
X50607000Y-50977000D01*
X50607000Y-50997000D01*
X50353000Y-50997000D01*
X50353000Y-50977000D01*
X50333000Y-50977000D01*
X50333000Y-50723000D01*
X50353000Y-50723000D01*
X50353000Y-50703000D01*
X50607000Y-50703000D01*
X50607000Y-50723000D01*
X52049479Y-50723000D01*
X52172133Y-50508725D01*
X52157950Y-50437098D01*
X52051866Y-50185815D01*
X51898798Y-49960057D01*
X51704628Y-49768498D01*
X51476817Y-49618501D01*
X51384505Y-49580994D01*
X51604407Y-49464071D01*
X51813964Y-49293160D01*
X51986334Y-49084801D01*
X52114950Y-48846930D01*
X52194914Y-48588608D01*
X52223180Y-48319673D01*
X52198672Y-48050370D01*
X52124984Y-47800000D01*
X54455400Y-47800000D01*
X54525277Y-47793149D01*
X54595203Y-47787031D01*
X54599041Y-47785916D01*
X54603018Y-47785526D01*
X54670221Y-47765236D01*
X54737640Y-47745649D01*
X54741188Y-47743810D01*
X54745013Y-47742655D01*
X54806991Y-47709701D01*
X54869325Y-47677390D01*
X54872448Y-47674897D01*
X54875978Y-47673020D01*
X54930387Y-47628645D01*
X54985246Y-47584852D01*
X54990806Y-47579369D01*
X54990922Y-47579274D01*
X54991011Y-47579166D01*
X54992801Y-47577401D01*
X55378969Y-47191233D01*
X55479457Y-47173514D01*
X55650410Y-47107206D01*
X55805229Y-47008955D01*
X55938015Y-46882504D01*
X56043711Y-46732670D01*
X56118292Y-46565160D01*
X56158916Y-46386354D01*
X56161840Y-46176919D01*
X56126225Y-45997048D01*
X56056350Y-45827520D01*
X55954879Y-45674793D01*
X55825675Y-45544684D01*
X55673660Y-45442149D01*
X55504625Y-45371093D01*
X55325007Y-45334223D01*
X55141649Y-45332943D01*
X54961533Y-45367301D01*
X54791522Y-45435990D01*
X54638091Y-45536393D01*
X54507083Y-45664686D01*
X54403489Y-45815981D01*
X54331254Y-45984516D01*
X54302958Y-46117640D01*
X54140598Y-46280000D01*
X52123286Y-46280000D01*
X52194914Y-46048608D01*
X52223180Y-45779673D01*
X52198672Y-45510370D01*
X52122322Y-45250956D01*
X51997040Y-45011313D01*
X51827596Y-44800567D01*
X51620445Y-44626747D01*
X51388163Y-44499050D01*
X51604407Y-44384071D01*
X51813964Y-44213160D01*
X51986334Y-44004801D01*
X52114950Y-43766930D01*
X52194914Y-43508608D01*
X52223180Y-43239673D01*
X52221420Y-43220327D01*
X63976820Y-43220327D01*
X64001328Y-43489630D01*
X64077678Y-43749044D01*
X64202960Y-43988687D01*
X64372404Y-44199433D01*
X64579555Y-44373253D01*
X64813438Y-44501830D01*
X64723183Y-44538501D01*
X64495372Y-44688498D01*
X64301202Y-44880057D01*
X64148134Y-45105815D01*
X64042050Y-45357098D01*
X64027867Y-45428725D01*
X64150521Y-45643000D01*
X65593000Y-45643000D01*
X65593000Y-45623000D01*
X65847000Y-45623000D01*
X65847000Y-45643000D01*
X67289479Y-45643000D01*
X67412133Y-45428725D01*
X67397950Y-45357098D01*
X67291866Y-45105815D01*
X67138798Y-44880057D01*
X66944628Y-44688498D01*
X66716817Y-44538501D01*
X66624505Y-44500994D01*
X66844407Y-44384071D01*
X67053964Y-44213160D01*
X67226334Y-44004801D01*
X67229456Y-43999026D01*
X68892642Y-43999026D01*
X68895291Y-44014789D01*
X68996314Y-44290919D01*
X69149267Y-44542035D01*
X69348271Y-44758486D01*
X69555633Y-44910000D01*
X69348271Y-45061514D01*
X69149267Y-45277965D01*
X68996314Y-45529081D01*
X68895291Y-45805211D01*
X68892642Y-45820974D01*
X69013783Y-46053000D01*
X70373000Y-46053000D01*
X70373000Y-43767000D01*
X69013783Y-43767000D01*
X68892642Y-43999026D01*
X67229456Y-43999026D01*
X67354950Y-43766930D01*
X67434914Y-43508608D01*
X67463180Y-43239673D01*
X67438672Y-42970370D01*
X67362322Y-42710956D01*
X67237040Y-42471313D01*
X67067596Y-42260567D01*
X66860445Y-42086747D01*
X66623478Y-41956474D01*
X66365720Y-41874708D01*
X66096990Y-41844565D01*
X66077644Y-41844430D01*
X65362356Y-41844430D01*
X65093231Y-41870818D01*
X64834356Y-41948977D01*
X64595593Y-42075929D01*
X64386036Y-42246840D01*
X64213666Y-42455199D01*
X64085050Y-42693070D01*
X64005086Y-42951392D01*
X63976820Y-43220327D01*
X52221420Y-43220327D01*
X52198672Y-42970370D01*
X52122322Y-42710956D01*
X51997040Y-42471313D01*
X51827596Y-42260567D01*
X51620445Y-42086747D01*
X51383478Y-41956474D01*
X51125720Y-41874708D01*
X50856990Y-41844565D01*
X50837644Y-41844430D01*
X50122356Y-41844430D01*
X49853231Y-41870818D01*
X49594356Y-41948977D01*
X49355593Y-42075929D01*
X49146036Y-42246840D01*
X48973666Y-42455199D01*
X48845050Y-42693070D01*
X48765086Y-42951392D01*
X48736820Y-43220327D01*
X48761328Y-43489630D01*
X48837678Y-43749044D01*
X48962960Y-43988687D01*
X49132404Y-44199433D01*
X49339555Y-44373253D01*
X49571837Y-44500950D01*
X49355593Y-44615929D01*
X49146036Y-44786840D01*
X48973666Y-44995199D01*
X48845050Y-45233070D01*
X48765086Y-45491392D01*
X48736820Y-45760327D01*
X48761328Y-46029630D01*
X48837678Y-46289044D01*
X48962960Y-46528687D01*
X49091206Y-46688192D01*
X48685000Y-47094398D01*
X48685000Y-39554791D01*
X54234830Y-39554791D01*
X54254464Y-39770533D01*
X54315629Y-39978353D01*
X54415995Y-40170335D01*
X54551738Y-40339166D01*
X54717690Y-40478416D01*
X54907527Y-40582780D01*
X55114021Y-40648284D01*
X55329305Y-40672432D01*
X55344803Y-40672540D01*
X55656997Y-40672540D01*
X55872597Y-40651400D01*
X56079985Y-40588786D01*
X56271262Y-40487083D01*
X56439141Y-40350164D01*
X56577229Y-40183244D01*
X56680265Y-39992682D01*
X56744326Y-39785736D01*
X56766970Y-39570289D01*
X56765560Y-39554791D01*
X59234830Y-39554791D01*
X59254464Y-39770533D01*
X59315629Y-39978353D01*
X59415995Y-40170335D01*
X59551738Y-40339166D01*
X59717690Y-40478416D01*
X59907527Y-40582780D01*
X60114021Y-40648284D01*
X60329305Y-40672432D01*
X60344803Y-40672540D01*
X60656997Y-40672540D01*
X60872597Y-40651400D01*
X61079985Y-40588786D01*
X61271262Y-40487083D01*
X61439141Y-40350164D01*
X61577229Y-40183244D01*
X61680265Y-39992682D01*
X61744326Y-39785736D01*
X61766970Y-39570289D01*
X61747336Y-39354547D01*
X61686171Y-39146727D01*
X61585805Y-38954745D01*
X61450062Y-38785914D01*
X61284110Y-38646664D01*
X61094273Y-38542300D01*
X60887779Y-38476796D01*
X60672495Y-38452648D01*
X60656997Y-38452540D01*
X60344803Y-38452540D01*
X60129203Y-38473680D01*
X59921815Y-38536294D01*
X59730538Y-38637997D01*
X59562659Y-38774916D01*
X59424571Y-38941836D01*
X59321535Y-39132398D01*
X59257474Y-39339344D01*
X59234830Y-39554791D01*
X56765560Y-39554791D01*
X56747336Y-39354547D01*
X56686171Y-39146727D01*
X56585805Y-38954745D01*
X56450062Y-38785914D01*
X56284110Y-38646664D01*
X56094273Y-38542300D01*
X55887779Y-38476796D01*
X55672495Y-38452648D01*
X55656997Y-38452540D01*
X55344803Y-38452540D01*
X55129203Y-38473680D01*
X54921815Y-38536294D01*
X54730538Y-38637997D01*
X54562659Y-38774916D01*
X54424571Y-38941836D01*
X54321535Y-39132398D01*
X54257474Y-39339344D01*
X54234830Y-39554791D01*
X48685000Y-39554791D01*
X48685000Y-37881211D01*
X48841709Y-38043488D01*
X49103392Y-38225362D01*
X49395418Y-38352945D01*
X49706663Y-38421377D01*
X50025272Y-38428051D01*
X50339109Y-38372713D01*
X50636221Y-38257470D01*
X50905291Y-38086714D01*
X51136069Y-37866946D01*
X51319766Y-37606539D01*
X51449385Y-37315412D01*
X51519987Y-37004652D01*
X51525070Y-36640660D01*
X51463172Y-36328051D01*
X51341732Y-36033417D01*
X51165378Y-35767983D01*
X50940826Y-35541857D01*
X50676629Y-35363654D01*
X50382851Y-35240161D01*
X50070681Y-35176082D01*
X49752009Y-35173857D01*
X49438975Y-35233572D01*
X49143501Y-35352951D01*
X48876842Y-35527448D01*
X48685000Y-35715313D01*
X48685000Y-34533505D01*
X48694222Y-34439453D01*
X48711805Y-34381214D01*
X48740366Y-34327499D01*
X48778816Y-34280354D01*
X48825691Y-34241576D01*
X48879204Y-34212642D01*
X48937323Y-34194651D01*
X49029145Y-34185000D01*
X52466496Y-34185000D01*
X52609106Y-34198983D01*
M02*
