M48
;DRILL file {KiCad 4.0.2-stable} date Vendredi 08 juillet 2016 21:03:05
;FORMAT={-:-/ absolute / metric / decimal}
FMAT,2
METRIC,TZ
T1C0.400
T2C0.500
T3C0.550
T4C0.800
T5C1.016
T6C1.300
T7C3.200
T8C1.980
%
G90
G05
M71
T1
X55.067Y-68.08
X55.227Y-46.269
X55.814Y-53.029
X58.857Y-54.077
X59.381Y-68.293
X59.896Y-49.03
T4
X50.48Y-43.23
X50.48Y-45.77
X50.48Y-48.31
X50.48Y-50.85
X50.48Y-53.39
X50.48Y-55.93
X50.48Y-58.47
X50.48Y-61.01
X50.48Y-63.55
X50.48Y-66.09
X50.48Y-68.63
X50.48Y-71.17
X63.18Y-52.12
X63.18Y-54.66
X65.72Y-43.23
X65.72Y-45.77
X65.72Y-48.31
X65.72Y-50.85
X65.72Y-53.39
X65.72Y-55.93
X65.72Y-58.47
X65.72Y-61.01
X65.72Y-63.55
X65.72Y-66.09
X65.72Y-68.63
X65.72Y-71.17
T5
X70.5Y-41.1
X70.5Y-43.64
X70.5Y-46.18
X70.5Y-48.72
X70.5Y-53.
X70.5Y-55.54
X70.5Y-58.08
X70.5Y-60.62
X70.5Y-65.
X70.5Y-67.54
X70.5Y-70.08
T6
X58.Y-36.8
X58.Y-74.62
T7
X70.Y-36.4
X70.Y-74.6
T8
X49.9Y-36.8
T2
X54.501Y-36.538G85X54.501Y-37.188
G05
X61.501Y-36.538G85X61.501Y-37.188
G05
T3
X55.651Y-39.563G85X55.351Y-39.563
G05
X60.651Y-39.563G85X60.351Y-39.563
G05
T0
M30
