G04 #@! TF.FileFunction,Soldermask,Bot*
%FSLAX46Y46*%
G04 Gerber Fmt 4.6, Leading zero omitted, Abs format (unit mm)*
G04 Created by KiCad (PCBNEW 4.0.2-stable) date Vendredi 08 juillet 2016 21:03:03*
%MOMM*%
G01*
G04 APERTURE LIST*
%ADD10C,0.100000*%
%ADD11R,2.540000X2.540000*%
%ADD12C,2.540000*%
%ADD13C,4.064000*%
%ADD14O,1.250000X0.950000*%
%ADD15O,1.000000X1.550000*%
%ADD16O,2.199640X1.501140*%
%ADD17R,2.032000X1.727200*%
%ADD18O,2.032000X1.727200*%
G04 APERTURE END LIST*
D10*
D11*
X58000000Y-36800000D03*
D12*
X58000000Y-74620000D03*
D13*
X70000000Y-74600000D03*
X70000000Y-36400000D03*
D14*
X60500900Y-39562540D03*
X55500900Y-39562540D03*
D15*
X61500900Y-36862540D03*
X54500900Y-36862540D03*
D16*
X50480000Y-43230000D03*
X50480000Y-45770000D03*
X50480000Y-48310000D03*
X50480000Y-50850000D03*
X50480000Y-53390000D03*
X50480000Y-55930000D03*
X50480000Y-58470000D03*
X50480000Y-61010000D03*
X50480000Y-63550000D03*
X50480000Y-66090000D03*
X50480000Y-68630000D03*
X50480000Y-71170000D03*
X65720000Y-71170000D03*
X65720000Y-68630000D03*
X65720000Y-66090000D03*
X65720000Y-63550000D03*
X65720000Y-61010000D03*
X65720000Y-58470000D03*
X65720000Y-55930000D03*
X65720000Y-53390000D03*
X65720000Y-50850000D03*
X65720000Y-48310000D03*
X65720000Y-45770000D03*
X65720000Y-43230000D03*
X63180000Y-54660000D03*
X63180000Y-52120000D03*
D17*
X70500000Y-53000000D03*
D18*
X70500000Y-55540000D03*
X70500000Y-58080000D03*
X70500000Y-60620000D03*
D17*
X70500000Y-41100000D03*
D18*
X70500000Y-43640000D03*
X70500000Y-46180000D03*
X70500000Y-48720000D03*
D17*
X70500000Y-65000000D03*
D18*
X70500000Y-67540000D03*
X70500000Y-70080000D03*
M02*
